<svg xmlns="http://www.w3.org/2000/svg" width="32" height="32" viewBox="0 0 32 32">
  <g id="blocks_ic" transform="translate(4940 -7643)">
    <circle id="타원_208" data-name="타원 208" cx="5" cy="5" r="5" transform="translate(-4919 7655)" fill="#ebba16"/>
    <g id="그룹_3969" data-name="그룹 3969" transform="translate(-5491 7559)">
      <g id="그룹_3961" data-name="그룹 3961" transform="translate(-968.549 -715.453)">
        <path id="패스_2032" data-name="패스 2032" d="M1583.819,825.125v5.659l5.039-3.015v-5.644" transform="translate(-48.192 -14.037)" fill="none" stroke="#222" stroke-linecap="round" stroke-linejoin="round" stroke-width="1.2"/>
        <path id="패스_2033" data-name="패스 2033" d="M1554.685,821.994v5.8l5.039,2.881" transform="translate(-24.096 -13.928)" fill="none" stroke="#222" stroke-linecap="round" stroke-linejoin="round" stroke-width="1.2"/>
        <path id="패스_2034" data-name="패스 2034" d="M1559.723,811.088l-5.039-3.05,5.039-2.884,5.039,2.884Z" transform="translate(-24.096 0)" fill="none" stroke="#222" stroke-linejoin="round" stroke-width="1.2"/>
        <path id="패스_2035" data-name="패스 2035" d="M1612.954,874.8v5.659l5.039-3.015V871.8" transform="translate(-72.288 -55.123)" fill="none" stroke="#222" stroke-linecap="round" stroke-linejoin="round" stroke-width="1.2"/>
        <path id="패스_2036" data-name="패스 2036" d="M1583.819,871.672v5.8l5.039,2.881" transform="translate(-48.192 -55.014)" fill="none" stroke="#222" stroke-linecap="round" stroke-linejoin="round" stroke-width="1.2"/>
        <path id="패스_2037" data-name="패스 2037" d="M1588.858,854.831l5.039,2.885-5.039,3.05-5.039-2.932" transform="translate(-48.192 -41.086)" fill="none" stroke="#222" stroke-linejoin="round" stroke-width="1.2"/>
        <path id="패스_2038" data-name="패스 2038" d="M1554.685,874.8v5.659l5.039-3.015V871.8" transform="translate(-24.096 -55.123)" fill="none" stroke="#222" stroke-linecap="round" stroke-linejoin="round" stroke-width="1.2"/>
        <path id="패스_2039" data-name="패스 2039" d="M1525.55,871.672v5.8l5.039,2.881" transform="translate(0 -55.014)" fill="none" stroke="#222" stroke-linecap="round" stroke-linejoin="round" stroke-width="1.2"/>
        <path id="패스_2040" data-name="패스 2040" d="M1530.589,854.831l-5.039,2.885,5.039,3.05,5.039-2.932" transform="translate(0 -41.086)" fill="none" stroke="#222" stroke-linejoin="round" stroke-width="1.2"/>
        <line id="선_223" data-name="선 223" y2="1.79" transform="translate(1527.25 819.59)" fill="none" stroke="#222" stroke-linecap="round" stroke-linejoin="round" stroke-width="1.2"/>
        <line id="선_224" data-name="선 224" y2="1.79" transform="translate(1532.242 810.926)" fill="none" stroke="#222" stroke-linecap="round" stroke-linejoin="round" stroke-width="1.2"/>
        <line id="선_225" data-name="선 225" y2="1.79" transform="translate(1537.336 819.546)" fill="none" stroke="#222" stroke-linecap="round" stroke-linejoin="round" stroke-width="1.2"/>
      </g>
      <rect id="사각형_1841" data-name="사각형 1841" width="32" height="32" transform="translate(551 84)" fill="none"/>
    </g>
  </g>
</svg>
