<svg xmlns="http://www.w3.org/2000/svg" width="35" height="35" viewBox="0 0 35 35">
  <g id="discord_btn" transform="translate(-1715 -265)">
    <g id="타원_223" data-name="타원 223" transform="translate(1715 265)" fill="none" stroke="#e6e6e6" stroke-width="1">
      <circle cx="17.5" cy="17.5" r="17.5" stroke="none"/>
      <circle cx="17.5" cy="17.5" r="17" fill="none"/>
    </g>
    <g id="discord" transform="translate(1723 274)">
      <path id="패스_2182" data-name="패스 2182" d="M2.955,16.064H13.762l-.516-1.671,1.235,1.06,1.132,1.014,2.061,1.723V1.876A2.012,2.012,0,0,0,15.666,0L2.959,0A1.935,1.935,0,0,0,1,1.88V14.187a1.9,1.9,0,0,0,1.955,1.877ZM10.949,4.307l-.025.009.009-.009Zm-5.783.962a4.675,4.675,0,0,1,2.677-.963l.1.1A5.516,5.516,0,0,0,5.476,5.573s.206-.1.566-.255a8.654,8.654,0,0,1,7.1.3,6.233,6.233,0,0,0-2.368-1.165l.141-.139a4.68,4.68,0,0,1,2.637.955,11.7,11.7,0,0,1,1.4,5.32A4.039,4.039,0,0,1,11.975,11.9s-.358-.4-.612-.758a3.061,3.061,0,0,0,1.7-1.064,11.153,11.153,0,0,1-1.075.559,7.2,7.2,0,0,1-1.385.405,7.373,7.373,0,0,1-4.572-.709l-.4-.2A3.042,3.042,0,0,0,7.278,11.2c-.311.355-.62.759-.62.759a3.37,3.37,0,0,1-2.881-1.369,11.727,11.727,0,0,1,1.389-5.32Z"/>
      <path id="패스_2183" data-name="패스 2183" d="M14,12.123A1.014,1.014,0,0,0,14,10.1v0a1.013,1.013,0,0,0,0,2.025Z" transform="translate(-2.91 -2.444)"/>
      <path id="패스_2184" data-name="패스 2184" d="M9.378,12.123a1.014,1.014,0,0,0,0-2.027l0,0a1.013,1.013,0,0,0,0,2.025Z" transform="translate(-1.792 -2.444)"/>
    </g>
  </g>
</svg>
