<svg xmlns="http://www.w3.org/2000/svg" width="35" height="35" viewBox="0 0 35 35">
  <g id="info_btn" transform="translate(-1760 -265)">
    <g id="타원_225" data-name="타원 225" transform="translate(1760 265)" fill="none" stroke="#e6e6e6" stroke-width="1">
      <circle cx="17.5" cy="17.5" r="17.5" stroke="none"/>
      <circle cx="17.5" cy="17.5" r="17" fill="none"/>
    </g>
    <g id="iconfinder_info_383124" transform="translate(1773.831 270.783)">
      <path id="패스_2185" data-name="패스 2185" d="M4.417,45.269l.606-2.441,1.341-5.4a1.8,1.8,0,0,0-1.311-2.176L4.879,35.2a1.808,1.808,0,0,0-.35-.051v-.036l-.079.035a3.288,3.288,0,0,0-1.358.534c-1.566,1.092-3.71,2.54-3.393,3.23.481,1.045,2.829-1.7,2.267.562l-.606,2.441-1.341,5.4a1.73,1.73,0,0,0,1.233,2.157l.174.043a1.793,1.793,0,0,0,.35.051l0,.036.079-.035a3.285,3.285,0,0,0,1.358-.534c1.566-1.092,3.749-2.531,3.432-3.221C6.164,44.777,3.855,47.535,4.417,45.269Z" transform="translate(0 -27.81)"/>
      <circle id="타원_227" data-name="타원 227" cx="2.515" cy="2.515" r="2.515" transform="translate(1.655 1.217)"/>
    </g>
  </g>
</svg>
