<svg xmlns="http://www.w3.org/2000/svg" width="35" height="35" viewBox="0 0 35 35">
  <g id="instagram_btn" transform="translate(-1506 -230)">
    <g id="타원_201" data-name="타원 201" transform="translate(1506 230)" fill="none" stroke="#e6e6e6" stroke-width="1">
      <circle cx="17.5" cy="17.5" r="17.5" stroke="none"/>
      <circle cx="17.5" cy="17.5" r="17" fill="none"/>
    </g>
    <g id="instagram" transform="translate(1513.505 238.09)">
      <path id="패스_2029" data-name="패스 2029" d="M19.28,5.552a6.9,6.9,0,0,0-.439-2.291A4.837,4.837,0,0,0,16.078.5,6.918,6.918,0,0,0,13.787.059C12.777.011,12.456,0,9.892,0S7.007.011,6,.055A6.9,6.9,0,0,0,3.71.494,4.607,4.607,0,0,0,2.035,1.586,4.649,4.649,0,0,0,.947,3.257,6.918,6.918,0,0,0,.508,5.548C.46,6.559.449,6.88.449,9.443S.46,12.328.5,13.335a6.9,6.9,0,0,0,.439,2.291,4.836,4.836,0,0,0,2.763,2.763A6.919,6.919,0,0,0,6,18.828c1.007.044,1.328.055,3.892.055s2.885-.011,3.892-.055a6.9,6.9,0,0,0,2.291-.439,4.83,4.83,0,0,0,2.763-2.763,6.923,6.923,0,0,0,.439-2.291c.044-1.007.055-1.328.055-3.892s0-2.885-.048-3.892Zm-1.7,7.71a5.176,5.176,0,0,1-.325,1.752,3.132,3.132,0,0,1-1.793,1.793,5.194,5.194,0,0,1-1.752.325c-1,.044-1.295.055-3.814.055s-2.822-.011-3.814-.055a5.173,5.173,0,0,1-1.752-.325,2.906,2.906,0,0,1-1.084-.7,2.936,2.936,0,0,1-.7-1.084,5.2,5.2,0,0,1-.325-1.752c-.044-1-.055-1.295-.055-3.814s.011-2.822.055-3.814A5.173,5.173,0,0,1,2.54,3.884,2.87,2.87,0,0,1,3.249,2.8a2.931,2.931,0,0,1,1.084-.7,5.2,5.2,0,0,1,1.752-.325c1-.044,1.295-.055,3.814-.055s2.822.011,3.814.055a5.176,5.176,0,0,1,1.752.325,2.9,2.9,0,0,1,1.084.7,2.935,2.935,0,0,1,.7,1.085,5.2,5.2,0,0,1,.325,1.752c.044,1,.055,1.295.055,3.814s-.011,2.815-.055,3.811Zm0,0" transform="translate(0 0)"/>
      <path id="패스_2030" data-name="패스 2030" d="M129.8,124.5a4.851,4.851,0,1,0,4.851,4.851A4.852,4.852,0,0,0,129.8,124.5Zm0,8a3.147,3.147,0,1,1,3.147-3.147A3.147,3.147,0,0,1,129.8,132.5Zm0,0" transform="translate(-119.908 -119.907)"/>
      <path id="패스_2031" data-name="패스 2031" d="M364.715,89.734a1.133,1.133,0,1,1-1.133-1.132A1.133,1.133,0,0,1,364.715,89.734Zm0,0" transform="translate(-348.648 -85.333)"/>
    </g>
  </g>
</svg>
