<svg xmlns="http://www.w3.org/2000/svg" width="35" height="35" viewBox="0 0 35 35">
  <g id="reddit_btn" transform="translate(-1625 -265)">
    <g id="타원_226" data-name="타원 226" transform="translate(1625 265)" fill="none" stroke="#e6e6e6" stroke-width="1">
      <circle cx="17.5" cy="17.5" r="17.5" stroke="none"/>
      <circle cx="17.5" cy="17.5" r="17" fill="none"/>
    </g>
    <path id="reddit" d="M16.753,7.42a2.1,2.1,0,0,0-1.505.641A10.106,10.106,0,0,0,9.8,6.355l1.1-5.033,3.5.8A1.573,1.573,0,0,0,15.961,3.7a1.6,1.6,0,1,0-1.4-2.315L10.688.516A.371.371,0,0,0,10.251.8L9.042,6.351A10.231,10.231,0,0,0,3.626,8.077,2.1,2.1,0,0,0,2.1,7.42a2.127,2.127,0,0,0-.91,4.036,4.58,4.58,0,0,0-.1,1c0,3.379,3.751,6.117,8.357,6.117,4.626,0,8.377-2.738,8.377-6.117A3.916,3.916,0,0,0,17.7,11.44a2.128,2.128,0,0,0-.945-4.02ZM4.4,11.67a1.568,1.568,0,1,1,1.577,1.581A1.583,1.583,0,0,1,4.4,11.67Zm8.515,3.769c-1.446,1.468-5.528,1.468-6.975,0a.381.381,0,0,1,.525-.552c1.1,1.149,4.769,1.169,5.921,0a.382.382,0,0,1,.529.552Zm-.032-2.185a1.591,1.591,0,1,1,1.577-1.58A1.571,1.571,0,0,1,12.883,13.254Z" transform="translate(1633 272.5)"/>
  </g>
</svg>
