<svg xmlns="http://www.w3.org/2000/svg" width="35" height="35" viewBox="0 0 35 35">
  <g id="twitter_btn" transform="translate(-1416 -230)">
    <g id="타원_201" data-name="타원 201" transform="translate(1416 230)" fill="none" stroke="#e6e6e6" stroke-width="1">
      <circle cx="17.5" cy="17.5" r="17.5" stroke="none"/>
      <circle cx="17.5" cy="17.5" r="17" fill="none"/>
    </g>
    <g id="twitter" transform="translate(1424.239 192.119)">
      <g id="그룹_3895" data-name="그룹 3895" transform="translate(0 48)">
        <path id="패스_2027" data-name="패스 2027" d="M18.23,49.754a7.792,7.792,0,0,1-2.153.59,3.716,3.716,0,0,0,1.644-2.066,7.469,7.469,0,0,1-2.37.9,3.737,3.737,0,0,0-6.465,2.556,3.848,3.848,0,0,0,.087.852,10.579,10.579,0,0,1-7.7-3.909,3.738,3.738,0,0,0,1.149,5,3.691,3.691,0,0,1-1.689-.46v.041a3.755,3.755,0,0,0,2.994,3.672,3.73,3.73,0,0,1-.98.123,3.3,3.3,0,0,1-.708-.064,3.773,3.773,0,0,0,3.492,2.6A7.51,7.51,0,0,1,.894,61.186,7,7,0,0,1,0,61.135a10.522,10.522,0,0,0,5.733,1.677A10.564,10.564,0,0,0,16.371,52.177c0-.165-.006-.325-.014-.483A7.456,7.456,0,0,0,18.23,49.754Z" transform="translate(0 -48)"/>
      </g>
    </g>
  </g>
</svg>
