<svg xmlns="http://www.w3.org/2000/svg" width="113.5" height="30.301" viewBox="0 0 113.5 30.301">
  <g id="appstore_img" transform="translate(-220.023 -434.824)">
    <g id="그룹_1507" data-name="그룹 1507" transform="translate(220.024 434.824)">
      <g id="그룹_1506" data-name="그룹 1506">
        <path id="패스_1241" data-name="패스 1241" d="M238.014,445.643a6.013,6.013,0,0,1,2.865-5.048,6.157,6.157,0,0,0-4.852-2.624c-2.042-.215-4.022,1.222-5.062,1.222-1.061,0-2.663-1.2-4.388-1.165a6.465,6.465,0,0,0-5.438,3.317c-2.352,4.071-.6,10.055,1.655,13.345,1.126,1.612,2.444,3.411,4.167,3.347,1.686-.069,2.317-1.075,4.353-1.075,2.017,0,2.608,1.075,4.365,1.034,1.811-.029,2.951-1.618,4.038-3.245a13.3,13.3,0,0,0,1.845-3.76A5.813,5.813,0,0,1,238.014,445.643Z" transform="translate(-220.024 -431.562)" fill="#fff"/>
        <path id="패스_1242" data-name="패스 1242" d="M229.228,439.069a5.922,5.922,0,0,0,1.355-4.245,6.025,6.025,0,0,0-3.9,2.019,5.639,5.639,0,0,0-1.392,4.085A4.982,4.982,0,0,0,229.228,439.069Z" transform="translate(-214.558 -434.824)" fill="#fff"/>
      </g>
    </g>
    <g id="그룹_1508" data-name="그룹 1508" transform="translate(250.762 447.051)">
      <path id="패스_1243" data-name="패스 1243" d="M246.724,454.719h-2.356l-1.292-4.057H238.59l-1.23,4.057h-2.295l4.447-13.811h2.745Zm-4.036-5.759-1.169-3.6q-.184-.555-.7-2.6h-.041c-.135.589-.356,1.455-.656,2.6l-1.146,3.6Z" transform="translate(-235.065 -440.702)" fill="#fff"/>
      <path id="패스_1244" data-name="패스 1244" d="M251.262,447.753a5.659,5.659,0,0,1-1.373,4.016,4.014,4.014,0,0,1-3.053,1.312,3.047,3.047,0,0,1-2.826-1.414h-.041v5.246h-2.213V446.175q0-1.6-.082-3.278h1.946l.123,1.578h.041a3.94,3.94,0,0,1,6.3-.39A5.5,5.5,0,0,1,251.262,447.753Zm-2.254.082a4.107,4.107,0,0,0-.656-2.4,2.262,2.262,0,0,0-1.925-.983,2.3,2.3,0,0,0-1.486.542,2.506,2.506,0,0,0-.871,1.426,2.842,2.842,0,0,0-.1.674v1.659a2.661,2.661,0,0,0,.664,1.835,2.214,2.214,0,0,0,1.733.748,2.265,2.265,0,0,0,1.946-.963A4.246,4.246,0,0,0,249.007,447.835Z" transform="translate(-228.169 -438.839)" fill="#fff"/>
      <path id="패스_1245" data-name="패스 1245" d="M256.867,447.753a5.659,5.659,0,0,1-1.373,4.016,4.013,4.013,0,0,1-3.053,1.312,3.045,3.045,0,0,1-2.826-1.414h-.041v5.246H247.36V446.175q0-1.6-.082-3.278h1.945l.123,1.578h.041a3.94,3.94,0,0,1,6.3-.39A5.5,5.5,0,0,1,256.867,447.753Zm-2.254.082a4.107,4.107,0,0,0-.656-2.4,2.262,2.262,0,0,0-1.925-.983,2.3,2.3,0,0,0-1.486.542,2.517,2.517,0,0,0-.871,1.426,2.951,2.951,0,0,0-.1.674v1.659a2.661,2.661,0,0,0,.664,1.835,2.211,2.211,0,0,0,1.733.748,2.265,2.265,0,0,0,1.945-.963A4.246,4.246,0,0,0,254.612,447.835Z" transform="translate(-222.32 -438.839)" fill="#fff"/>
      <path id="패스_1246" data-name="패스 1246" d="M262.613,450.951a3.672,3.672,0,0,1-1.226,2.867,5.438,5.438,0,0,1-3.762,1.21,6.59,6.59,0,0,1-3.58-.86l.513-1.845a6.054,6.054,0,0,0,3.2.883,3.029,3.029,0,0,0,1.95-.564,1.845,1.845,0,0,0,.695-1.51,1.923,1.923,0,0,0-.574-1.416,5.348,5.348,0,0,0-1.9-1.067q-3.629-1.355-3.627-3.961a3.506,3.506,0,0,1,1.271-2.792,5.016,5.016,0,0,1,3.382-1.089,6.72,6.72,0,0,1,3.133.656l-.554,1.8a5.439,5.439,0,0,0-2.642-.635,2.674,2.674,0,0,0-1.823.574,1.643,1.643,0,0,0-.554,1.251,1.686,1.686,0,0,0,.636,1.351,7.166,7.166,0,0,0,2.009,1.067,6.8,6.8,0,0,1,2.622,1.68A3.515,3.515,0,0,1,262.613,450.951Z" transform="translate(-215.259 -440.807)" fill="#fff"/>
      <path id="패스_1247" data-name="패스 1247" d="M264.914,445.718h-2.44v4.835q0,1.845,1.292,1.845a3.985,3.985,0,0,0,.983-.1l.061,1.68a4.993,4.993,0,0,1-1.721.245,2.65,2.65,0,0,1-2.05-.8,3.923,3.923,0,0,1-.738-2.683v-5.021h-1.453v-1.659H260.3v-1.825l2.172-.654v2.479h2.44Z" transform="translate(-210.244 -440)" fill="#fff"/>
      <path id="패스_1248" data-name="패스 1248" d="M272.181,447.794a5.468,5.468,0,0,1-1.31,3.771,4.688,4.688,0,0,1-3.65,1.516,4.452,4.452,0,0,1-3.492-1.455,5.3,5.3,0,0,1-1.3-3.666,5.41,5.41,0,0,1,1.341-3.791,4.645,4.645,0,0,1,3.617-1.476,4.551,4.551,0,0,1,3.525,1.455A5.251,5.251,0,0,1,272.181,447.794Zm-2.295.074a4.5,4.5,0,0,0-.595-2.364,2.184,2.184,0,0,0-1.986-1.191,2.218,2.218,0,0,0-2.029,1.191,4.579,4.579,0,0,0-.595,2.405,4.491,4.491,0,0,0,.595,2.362,2.261,2.261,0,0,0,4-.02A4.5,4.5,0,0,0,269.886,447.867Z" transform="translate(-206.508 -438.839)" fill="#fff"/>
      <path id="패스_1249" data-name="패스 1249" d="M273.443,444.843a3.817,3.817,0,0,0-.7-.061,2.09,2.09,0,0,0-1.8.883,3.305,3.305,0,0,0-.554,1.966v5.225h-2.211l.02-6.824q0-1.723-.084-3.135h1.927l.082,1.9h.061a3.392,3.392,0,0,1,1.106-1.576,2.678,2.678,0,0,1,1.6-.533,3.783,3.783,0,0,1,.554.039Z" transform="translate(-200.576 -438.839)" fill="#fff"/>
      <path id="패스_1250" data-name="패스 1250" d="M280.084,447.416a5.178,5.178,0,0,1-.082,1h-6.638a2.888,2.888,0,0,0,.963,2.254,3.289,3.289,0,0,0,2.17.7,7.346,7.346,0,0,0,2.687-.472l.345,1.537a8.3,8.3,0,0,1-3.337.615,4.834,4.834,0,0,1-3.64-1.363,5.039,5.039,0,0,1-1.322-3.658,5.713,5.713,0,0,1,1.23-3.75,4.243,4.243,0,0,1,3.484-1.6,3.707,3.707,0,0,1,3.258,1.6A5.384,5.384,0,0,1,280.084,447.416Zm-2.111-.574a3,3,0,0,0-.429-1.7,1.932,1.932,0,0,0-1.764-.922,2.1,2.1,0,0,0-1.762.9,3.305,3.305,0,0,0-.654,1.721Z" transform="translate(-197.323 -438.849)" fill="#fff"/>
    </g>
    <g id="그룹_1510" data-name="그룹 1510" transform="translate(252.076 435.175)">
      <g id="그룹_1509" data-name="그룹 1509">
        <path id="패스_1251" data-name="패스 1251" d="M241.285,438.426a3.406,3.406,0,0,1-1.1,2.759,4.369,4.369,0,0,1-2.89.854,13.541,13.541,0,0,1-1.59-.08v-6.674a11.642,11.642,0,0,1,1.872-.141,4.046,4.046,0,0,1,2.687.775A3.129,3.129,0,0,1,241.285,438.426Zm-1.148.031A2.211,2.211,0,0,0,237.67,436a4.668,4.668,0,0,0-.875.069v5.074a5.727,5.727,0,0,0,.734.031,2.573,2.573,0,0,0,1.929-.695A2.786,2.786,0,0,0,240.136,438.457Z" transform="translate(-235.708 -434.842)" fill="#fff"/>
        <path id="패스_1252" data-name="패스 1252" d="M243.859,438.551a2.681,2.681,0,0,1-.644,1.852,2.3,2.3,0,0,1-1.792.746,2.18,2.18,0,0,1-1.717-.715,2.6,2.6,0,0,1-.64-1.8,2.657,2.657,0,0,1,.66-1.862,2.282,2.282,0,0,1,1.776-.723,2.231,2.231,0,0,1,1.731.713A2.578,2.578,0,0,1,243.859,438.551Zm-1.128.037a2.217,2.217,0,0,0-.292-1.163,1.072,1.072,0,0,0-.975-.584,1.088,1.088,0,0,0-1,.584,2.236,2.236,0,0,0-.292,1.181,2.2,2.2,0,0,0,.292,1.163,1.1,1.1,0,0,0,.987.584,1.084,1.084,0,0,0,.975-.6A2.188,2.188,0,0,0,242.731,438.588Z" transform="translate(-232.203 -433.9)" fill="#fff"/>
        <path id="패스_1253" data-name="패스 1253" d="M249.021,436.1l-1.531,4.892h-1l-.634-2.125a15.8,15.8,0,0,1-.394-1.58h-.018a11.5,11.5,0,0,1-.392,1.58l-.674,2.125h-1.007l-1.439-4.892h1.118l.552,2.326q.2.824.333,1.569h.02c.08-.409.215-.93.4-1.559l.695-2.336h.885l.664,2.285c.161.558.292,1.093.392,1.61h.031a15.44,15.44,0,0,1,.333-1.61l.595-2.285Z" transform="translate(-229.211 -433.849)" fill="#fff"/>
        <path id="패스_1254" data-name="패스 1254" d="M250.351,441.039h-1.087v-2.8q0-1.3-.987-1.3a.978.978,0,0,0-.785.355,1.259,1.259,0,0,0-.3.84v2.9H246.1v-3.492c0-.431-.014-.9-.041-1.4h.956l.051.764h.031a1.568,1.568,0,0,1,.562-.591,1.851,1.851,0,0,1,.987-.274,1.564,1.564,0,0,1,1.138.441,2.154,2.154,0,0,1,.564,1.621Z" transform="translate(-224.903 -433.9)" fill="#fff"/>
        <path id="패스_1255" data-name="패스 1255" d="M250.182,442.134H249.1V435h1.085Z" transform="translate(-221.735 -434.996)" fill="#fff"/>
        <path id="패스_1256" data-name="패스 1256" d="M255.209,438.551a2.673,2.673,0,0,1-.646,1.852,2.292,2.292,0,0,1-1.79.746,2.185,2.185,0,0,1-1.719-.715,2.606,2.606,0,0,1-.638-1.8,2.665,2.665,0,0,1,.658-1.862,2.288,2.288,0,0,1,1.776-.723,2.238,2.238,0,0,1,1.733.713A2.578,2.578,0,0,1,255.209,438.551Zm-1.13.037a2.2,2.2,0,0,0-.292-1.163,1.07,1.07,0,0,0-.975-.584,1.088,1.088,0,0,0-1,.584,2.255,2.255,0,0,0-.292,1.181,2.223,2.223,0,0,0,.292,1.163,1.1,1.1,0,0,0,.987.584,1.082,1.082,0,0,0,.975-.6A2.17,2.17,0,0,0,254.079,438.588Z" transform="translate(-220.358 -433.9)" fill="#fff"/>
        <path id="패스_1257" data-name="패스 1257" d="M257.39,441.039h-.977l-.082-.564H256.3a1.676,1.676,0,0,1-1.428.674,1.473,1.473,0,0,1-1.118-.444,1.387,1.387,0,0,1-.382-1,1.519,1.519,0,0,1,.75-1.369,3.892,3.892,0,0,1,2.109-.464v-.09c0-.644-.337-.967-1.016-.967a2.274,2.274,0,0,0-1.275.362l-.221-.713a3.13,3.13,0,0,1,1.68-.423q1.916,0,1.919,2.023v1.8A7.6,7.6,0,0,0,257.39,441.039Zm-1.13-1.682V438.6q-1.8-.031-1.8.985a.734.734,0,0,0,.21.574.75.75,0,0,0,.529.192,1.094,1.094,0,0,0,.666-.227.927.927,0,0,0,.376-.578A.874.874,0,0,0,256.26,439.357Z" transform="translate(-217.274 -433.9)" fill="#fff"/>
        <path id="패스_1258" data-name="패스 1258" d="M260.747,442.134h-.965l-.051-.785H259.7a1.628,1.628,0,0,1-1.572.9,1.842,1.842,0,0,1-1.469-.695,2.7,2.7,0,0,1-.582-1.8,2.833,2.833,0,0,1,.633-1.923,1.943,1.943,0,0,1,1.51-.685,1.465,1.465,0,0,1,1.377.664h.02V435h1.089v5.82Q260.708,441.53,260.747,442.134Zm-1.128-2.064v-.815a1.533,1.533,0,0,0-.031-.341,1.229,1.229,0,0,0-.392-.66,1.067,1.067,0,0,0-.728-.268,1.116,1.116,0,0,0-.956.484,2.07,2.07,0,0,0-.349,1.238,1.936,1.936,0,0,0,.335,1.177,1.116,1.116,0,0,0,.95.482,1.05,1.05,0,0,0,.86-.4A1.351,1.351,0,0,0,259.619,440.07Z" transform="translate(-214.451 -434.996)" fill="#fff"/>
        <path id="패스_1259" data-name="패스 1259" d="M265.361,438.551a2.682,2.682,0,0,1-.646,1.852,2.293,2.293,0,0,1-1.792.746,2.186,2.186,0,0,1-1.717-.715,2.606,2.606,0,0,1-.638-1.8,2.665,2.665,0,0,1,.658-1.862,2.287,2.287,0,0,1,1.778-.723,2.234,2.234,0,0,1,1.731.713A2.588,2.588,0,0,1,265.361,438.551Zm-1.128.037a2.218,2.218,0,0,0-.292-1.163,1.075,1.075,0,0,0-.977-.584,1.092,1.092,0,0,0-1,.584,2.255,2.255,0,0,0-.292,1.181,2.223,2.223,0,0,0,.292,1.163,1.1,1.1,0,0,0,.987.584,1.085,1.085,0,0,0,.977-.6A2.188,2.188,0,0,0,264.233,438.588Z" transform="translate(-209.763 -433.9)" fill="#fff"/>
        <path id="패스_1260" data-name="패스 1260" d="M267.964,441.039h-1.087v-2.8c0-.864-.327-1.3-.987-1.3a.977.977,0,0,0-.783.355,1.26,1.26,0,0,0-.3.84v2.9h-1.089v-3.492c0-.431-.012-.9-.039-1.4h.954l.051.764h.031a1.591,1.591,0,0,1,.564-.591,1.846,1.846,0,0,1,.987-.274,1.56,1.56,0,0,1,1.136.441,2.147,2.147,0,0,1,.564,1.621Z" transform="translate(-206.52 -433.9)" fill="#fff"/>
        <path id="패스_1261" data-name="패스 1261" d="M270.879,437.532h-1.2v2.375c0,.6.213.907.633.907a1.889,1.889,0,0,0,.484-.051l.029.826a2.476,2.476,0,0,1-.846.12,1.3,1.3,0,0,1-1.005-.392,1.916,1.916,0,0,1-.362-1.318v-2.467H267.9v-.815h.715v-.9l1.067-.321v1.218h1.2Z" transform="translate(-202.114 -434.471)" fill="#fff"/>
        <path id="패스_1262" data-name="패스 1262" d="M274.345,442.134h-1.089v-2.781q0-1.315-.985-1.316a1.038,1.038,0,0,0-1.038.764,1.337,1.337,0,0,0-.051.39v2.943H270.1V435h1.085v2.949h.02a1.647,1.647,0,0,1,1.469-.8,1.521,1.521,0,0,1,1.12.441,2.234,2.234,0,0,1,.554,1.641Z" transform="translate(-199.821 -434.996)" fill="#fff"/>
        <path id="패스_1263" data-name="패스 1263" d="M277.3,438.367a2.584,2.584,0,0,1-.041.493H274a1.427,1.427,0,0,0,.472,1.108,1.62,1.62,0,0,0,1.069.341,3.6,3.6,0,0,0,1.32-.231l.17.756a4.113,4.113,0,0,1-1.641.3,2.372,2.372,0,0,1-1.786-.668,2.467,2.467,0,0,1-.65-1.8,2.794,2.794,0,0,1,.6-1.841,2.079,2.079,0,0,1,1.711-.785,1.822,1.822,0,0,1,1.6.785A2.643,2.643,0,0,1,277.3,438.367Zm-1.038-.282a1.469,1.469,0,0,0-.21-.836.949.949,0,0,0-.867-.454,1.031,1.031,0,0,0-.865.444,1.648,1.648,0,0,0-.323.846Z" transform="translate(-196.839 -433.905)" fill="#fff"/>
      </g>
    </g>
  </g>
</svg>
