<svg xmlns="http://www.w3.org/2000/svg" width="34" height="34" viewBox="0 0 34 34">
  <g id="exchange_ic" transform="translate(-1265 -538)">
    <g id="binance-coin-seeklogo.com" transform="translate(1268.106 541.112)">
      <path id="패스_1964" data-name="패스 1964" d="M8.5,11.672l5.394-5.394,5.4,5.4L22.43,8.536,13.894,0,5.361,8.533,8.5,11.672M.006,13.888l3.139-3.139,3.139,3.139L3.145,17.026ZM8.5,16.1,13.894,21.5l5.4-5.4,3.14,3.137,0,0-8.536,8.536L5.361,19.243l0,0L8.5,16.1M21.5,13.889l3.139-3.139,3.139,3.139-3.139,3.139Z" transform="translate(0)" fill="#f0b90b"/>
      <path id="패스_1965" data-name="패스 1965" d="M776.92,773.735h0l-3.185-3.185-2.354,2.354h0l-.27.271-.558.558,0,0,0,0,3.182,3.182,3.185-3.185,0,0h0" transform="translate(-759.843 -759.848)" fill="#f0b90b"/>
    </g>
    <rect id="사각형_1777" data-name="사각형 1777" width="34" height="34" transform="translate(1265 538)" fill="none"/>
  </g>
</svg>
