<svg xmlns="http://www.w3.org/2000/svg" width="34" height="34" viewBox="0 0 34 34">
  <g id="launchpad_ic" transform="translate(-1264 -707)">
    <rect id="사각형_1781" data-name="사각형 1781" width="34" height="34" transform="translate(1264 707)" fill="none"/>
    <g id="그룹_3848" data-name="그룹 3848" transform="translate(-3227.358 -262.034)">
      <path id="패스_1994" data-name="패스 1994" d="M4502.79,1040.589s-2.565-2.682-4.853.9a6.554,6.554,0,0,0-.64,2.283s1.551-1.084,2.194-.26c0,0,.778,1.158-.748,2.273a1.1,1.1,0,0,0-.542.982,3.417,3.417,0,0,1,1.187-.513s2.419-.308,3.417-1.452A2.922,2.922,0,0,0,4502.79,1040.589Z" transform="translate(-0.904 -48.083)" fill="#f0b90b"/>
      <g id="그룹_3845" data-name="그룹 3845" transform="translate(4499.622 973.734)">
        <path id="패스_1995" data-name="패스 1995" d="M4523.083,976.8a4.812,4.812,0,0,0-.584.474l-13.253,13.252,3.168,3.168.18.179,3.168,3.168,13.252-13.253a4.783,4.783,0,0,0,.474-.584Zm-1.411,7.964a2.637,2.637,0,1,1,3.729,0A2.637,2.637,0,0,1,4521.672,984.766Z" transform="translate(-4509.246 -975.973)" fill="#f0b90b"/>
        <path id="패스_1996" data-name="패스 1996" d="M4569.229,980.245a4.845,4.845,0,0,0,.319-1.17l.078-2.445a2.286,2.286,0,0,0-2.887-2.886l-2.444.078a4.812,4.812,0,0,0-1.171.319Z" transform="translate(-4548.564 -973.734)" fill="#f0b90b"/>
      </g>
      <g id="그룹_3846" data-name="그룹 3846" transform="translate(4496.058 977.792)">
        <path id="패스_1997" data-name="패스 1997" d="M4509.032,994.913l6.163-6.163-10.686,1.64Z" transform="translate(-4502.226 -988.75)" fill="#f0b90b"/>
        <rect id="사각형_1782" data-name="사각형 1782" width="2.122" height="6.694" transform="translate(0 3.503) rotate(-45)" fill="#f0b90b"/>
      </g>
      <g id="그룹_3847" data-name="그룹 3847" transform="translate(4508.372 985.372)">
        <path id="패스_1998" data-name="패스 1998" d="M4553.819,1027.485l1.64-10.686-6.163,6.163Z" transform="translate(-4547.222 -1016.799)" fill="#f0b90b"/>
        <rect id="사각형_1783" data-name="사각형 1783" width="2.122" height="6.694" transform="translate(0 8.236) rotate(-45)" fill="#f0b90b"/>
      </g>
    </g>
  </g>
</svg>
