<svg xmlns="http://www.w3.org/2000/svg" width="136.208" height="32.111" viewBox="0 0 136.208 32.111">
  <defs>
    <clipPath id="clip-path">
      <path id="패스_32" data-name="패스 32" d="M229.212,417.675l-4.85-4.853v-.345l4.853-4.85,5.858,3.327c1.642.933,1.642,2.459,0,3.392l-5.749,3.267-.111.063" transform="translate(-224.362 -407.627)" fill="#ffd300"/>
    </clipPath>
    <clipPath id="clip-path-2">
      <path id="패스_34" data-name="패스 34" d="M237.641,414.759,232.68,409.8l-14.642,14.642a1.914,1.914,0,0,0,2.443.072l17.161-9.752" transform="translate(-218.038 -409.797)" fill="#fd3845"/>
    </clipPath>
    <clipPath id="clip-path-3">
      <path id="패스_36" data-name="패스 36" d="M237.641,413.419l-17.161-9.754a1.917,1.917,0,0,0-2.443.072L232.68,418.38l4.962-4.962" transform="translate(-218.038 -403.271)" fill="#00f076"/>
    </clipPath>
  </defs>
  <g id="playstore" transform="translate(-217.803 -403.076)">
    <path id="패스_16" data-name="패스 16" d="M240.872,407.1a3.181,3.181,0,0,1-.878,2.355A3.422,3.422,0,0,1,237.4,410.5a3.685,3.685,0,1,1,0-7.369,3.654,3.654,0,0,1,1.449.294,2.926,2.926,0,0,1,1.1.79l-.62.62A2.38,2.38,0,0,0,237.4,404a2.725,2.725,0,0,0-2.739,2.815,2.7,2.7,0,0,0,.813,2.035,2.811,2.811,0,0,0,3.9,0,2.208,2.208,0,0,0,.59-1.429H237.4v-.847h3.42a3.057,3.057,0,0,1,.049.532" transform="translate(20.96 0.067)" fill="#fff"/>
    <path id="패스_17" data-name="패스 17" d="M240.939,407.165h-.118a3.063,3.063,0,0,1-.84,2.271h0v0a3.311,3.311,0,0,1-2.507,1.007,3.568,3.568,0,1,1,0-7.136,3.526,3.526,0,0,1,1.4.287,2.78,2.78,0,0,1,1.06.755l.09-.074-.083-.083-.621.621.083.083.09-.076a2.5,2.5,0,0,0-2.021-.877,2.935,2.935,0,1,0,2.054,5.047,2.325,2.325,0,0,0,.625-1.5l.012-.127h-2.572v-.614h3.3v-.116l-.118.021a2.85,2.85,0,0,1,.049.512h.236a3.084,3.084,0,0,0-.053-.553l-.016-.1h-3.635V407.6h2.679v-.118l-.116-.009a2.109,2.109,0,0,1-.558,1.354,2.69,2.69,0,0,1-3.732,0,2.834,2.834,0,0,1,0-3.9,2.56,2.56,0,0,1,1.845-.75,2.267,2.267,0,0,1,1.841.794l.083.1.711-.711.076-.076-.069-.083a3.024,3.024,0,0,0-1.148-.822,3.777,3.777,0,0,0-1.493-.3,3.8,3.8,0,1,0,0,7.606,3.545,3.545,0,0,0,2.676-1.081l-.086-.081.083.083a3.309,3.309,0,0,0,.912-2.438h-.118" transform="translate(20.893 0)" fill="#fff"/>
    <path id="패스_18" data-name="패스 18" d="M241.5,404.061h-3.213V406.3h2.9v.847h-2.9v2.238H241.5v.867h-4.119v-7.055H241.5v.867" transform="translate(25.751 0.156)" fill="#fff"/>
    <path id="패스_19" data-name="패스 19" d="M241.567,404.128v-.118h-3.331v2.473h2.9v.612h-2.9v2.473h3.213v.631h-3.884v-6.82h3.884v.749h.118v0h.118v-.984h-4.354v7.29h4.354v-1.1h-3.213v-2h2.9v-1.082h-2.9v-2h3.213v-.118h-.118" transform="translate(25.684 0.089)" fill="#fff"/>
    <path id="패스_20" data-name="패스 20" d="M242.446,410.25h-.908v-6.188h-1.969v-.867h4.848v.867h-1.971v6.188" transform="translate(28.628 0.156)" fill="#fff"/>
    <path id="패스_21" data-name="패스 21" d="M242.514,410.316V410.2h-.79v-6.188h-1.971v-.631h4.614v.631H242.4v6.306h.118v0h.118v-6.071H244.6v-1.1h-5.084v1.1h1.971v6.188h1.143v-.117h-.118" transform="translate(28.56 0.089)" fill="#fff"/>
    <rect id="사각형_14" data-name="사각형 14" width="0.907" height="7.055" transform="translate(276.552 403.351)" fill="#fff"/>
    <path id="패스_22" data-name="패스 22" d="M243.244,410.316h.118v-6.937h.67v6.82h-.788v.118h0v.117h1.024v-7.29h-1.142v7.29h.118v-.117" transform="translate(33.307 0.089)" fill="#fff"/>
    <path id="패스_23" data-name="패스 23" d="M246.94,410.25h-.907v-6.188h-1.971v-.867h4.848v.867H246.94v6.188" transform="translate(34.538 0.156)" fill="#fff"/>
    <path id="패스_24" data-name="패스 24" d="M247.007,410.316V410.2h-.789v-6.188h-1.971v-.631h4.612v.631h-1.97v6.306h.118v0h.118v-6.071h1.97v-1.1h-5.083v1.1h1.97v6.188h1.142v-.117h-.118" transform="translate(34.471 0.089)" fill="#fff"/>
    <path id="패스_25" data-name="패스 25" d="M253.649,409.427a3.661,3.661,0,0,1-5.172,0,3.812,3.812,0,0,1,0-5.232,3.656,3.656,0,0,1,5.168,0,3.8,3.8,0,0,1,0,5.228m-4.5-.59a2.717,2.717,0,0,0,3.834,0,3,3,0,0,0,0-4.049,2.717,2.717,0,0,0-3.834,0,3.01,3.01,0,0,0,0,4.049Z" transform="translate(38.976 0.067)" fill="#fff"/>
    <path id="패스_26" data-name="패스 26" d="M253.715,409.494l-.083-.081a3.547,3.547,0,0,1-5,0l0,0,0,0a3.692,3.692,0,0,1,0-5.068,3.53,3.53,0,0,1,5,0,3.68,3.68,0,0,1,0,5.063l.169.162a3.917,3.917,0,0,0,0-5.39,3.77,3.77,0,0,0-5.337,0,3.929,3.929,0,0,0,0,5.395l0,0,0,0a3.776,3.776,0,0,0,5.341,0l-.086-.081m-4.5-.59-.083.081a2.828,2.828,0,0,0,4,0,3.124,3.124,0,0,0,0-4.214,2.834,2.834,0,0,0-4,0,3.124,3.124,0,0,0,0,4.214l.169-.164a2.89,2.89,0,0,1,0-3.885h0a2.6,2.6,0,0,1,3.667,0,2.89,2.89,0,0,1,0,3.885,2.593,2.593,0,0,1-3.667,0Z" transform="translate(38.91 0)" fill="#fff"/>
    <path id="패스_27" data-name="패스 27" d="M251.119,410.25v-7.055h1.1l3.428,5.487h.039l-.039-1.359v-4.128h.907v7.055h-.946l-3.586-5.754h-.04l.04,1.36v4.394h-.907" transform="translate(43.819 0.156)" fill="#fff"/>
    <path id="패스_28" data-name="패스 28" d="M251.186,410.316h.118v-6.937h.921l3.429,5.489h.226l-.042-1.479v-4.009h.671v6.82h-.763l-3.587-5.754h-.225l.042,1.479V410.2h-.789v.118h0v.117h1.024V405.92l-.04-1.36-.118,0v.118h.04v-.118l-.1.062,3.621,5.809h1.129v-7.29H255.6v4.248l.039,1.36.118,0v-.116h-.039v.116l.1-.061-3.464-5.544h-1.286v7.29h.118v-.117" transform="translate(43.752 0.089)" fill="#fff"/>
    <path id="패스_29" data-name="패스 29" d="M265.438,413.828a5,5,0,1,0,5.02,5,4.929,4.929,0,0,0-5.02-5m0,8.032a3.038,3.038,0,1,1,2.822-3.031A2.892,2.892,0,0,1,265.438,421.86Zm-10.951-8.032a5,5,0,1,0,5.019,5A4.928,4.928,0,0,0,254.486,413.828Zm0,8.032a3.038,3.038,0,1,1,2.822-3.031A2.894,2.894,0,0,1,254.486,421.86Zm-13.026-6.5v2.121h5.075a4.431,4.431,0,0,1-1.153,2.672,5.205,5.205,0,0,1-3.922,1.551,5.644,5.644,0,0,1,0-11.287,5.415,5.415,0,0,1,3.827,1.514l1.5-1.5a7.4,7.4,0,0,0-5.323-2.142,7.767,7.767,0,1,0,0,15.533,7.1,7.1,0,0,0,5.418-2.179,7.011,7.011,0,0,0,1.836-4.964,6.868,6.868,0,0,0-.113-1.324Zm53.272,1.648a4.645,4.645,0,0,0-4.281-3.183,4.753,4.753,0,0,0-4.716,5,4.893,4.893,0,0,0,4.962,5,4.973,4.973,0,0,0,4.17-2.216l-1.706-1.137a2.855,2.855,0,0,1-2.463,1.382,2.546,2.546,0,0,1-2.424-1.514l6.686-2.767Zm-6.818,1.667a2.741,2.741,0,0,1,2.614-2.917,1.937,1.937,0,0,1,1.857,1.06Zm-5.436,4.848h2.2v-14.7h-2.2Zm-3.6-8.58H278.8a3.464,3.464,0,0,0-2.632-1.118,5.005,5.005,0,0,0,0,10,3.409,3.409,0,0,0,2.632-1.137h.074v.72c0,1.915-1.021,2.936-2.669,2.936a2.771,2.771,0,0,1-2.521-1.78l-1.912.8a4.766,4.766,0,0,0,4.434,2.954c2.575,0,4.753-1.517,4.753-5.209v-8.979h-2.084Zm-2.519,6.913a3.042,3.042,0,0,1,0-6.061,3.055,3.055,0,0,1,0,6.061Zm28.667-13.033h-5.258v14.7h2.193v-5.568h3.065a4.573,4.573,0,1,0,0-9.131Zm.056,7.085h-3.121v-5.038h3.121a2.52,2.52,0,1,1,0,5.038Zm13.56-2.109a4.119,4.119,0,0,0-3.915,2.25l1.947.813a2.082,2.082,0,0,1,2-1.079,2.111,2.111,0,0,1,2.306,1.892v.15a4.84,4.84,0,0,0-2.287-.567c-2.1,0-4.237,1.153-4.237,3.308a3.4,3.4,0,0,0,3.651,3.234,3.1,3.1,0,0,0,2.8-1.438h.074V423.5H323.1v-5.633C323.1,415.257,321.156,413.8,318.642,413.8Zm-.266,8.055c-.718,0-1.72-.359-1.72-1.248,0-1.134,1.248-1.57,2.324-1.57a3.919,3.919,0,0,1,2,.491A2.658,2.658,0,0,1,318.376,421.857Zm12.442-7.735L328.3,420.5h-.074l-2.612-6.374h-2.364l3.915,8.907-2.232,4.955h2.29l6.031-13.861Zm-19.761,9.4h2.195v-14.7h-2.195Z" transform="translate(20.753 6.867)" fill="#fff"/>
    <path id="패스_30" data-name="패스 30" d="M218.347,403.519a2.353,2.353,0,0,0-.544,1.651v25.984a2.353,2.353,0,0,0,.544,1.651l.088.083,14.554-14.554v-.345l-14.554-14.554-.088.083" transform="translate(0 0.473)" fill="#00c6ff"/>
    <g id="그룹_9" data-name="그룹 9" transform="translate(232.989 413.613)">
      <path id="패스_31" data-name="패스 31" d="M229.212,417.675l-4.85-4.853v-.345l4.853-4.85,5.858,3.327c1.642.933,1.642,2.459,0,3.392l-5.749,3.267-.111.063" transform="translate(-224.362 -407.627)" fill="#ffd300"/>
      <g id="그룹_8" data-name="그룹 8" clip-path="url(#clip-path)">
        <rect id="사각형_15" data-name="사각형 15" width="12.351" height="10.05" transform="translate(0.001 -0.001)" fill="#ffd300"/>
      </g>
    </g>
    <g id="그룹_11" data-name="그룹 11" transform="translate(218.347 418.637)">
      <path id="패스_33" data-name="패스 33" d="M237.641,414.759,232.68,409.8l-14.642,14.642a1.914,1.914,0,0,0,2.443.072l17.161-9.752" transform="translate(-218.038 -409.797)" fill="#fd3845"/>
      <g id="그룹_10" data-name="그룹 10" clip-path="url(#clip-path-2)">
        <rect id="사각형_16" data-name="사각형 16" width="24.67" height="24.67" transform="translate(-7.642 7.642) rotate(-45)" fill="#fd3845"/>
      </g>
    </g>
    <g id="그룹_13" data-name="그룹 13" transform="translate(218.347 403.527)">
      <path id="패스_35" data-name="패스 35" d="M237.641,413.419l-17.161-9.754a1.917,1.917,0,0,0-2.443.072L232.68,418.38l4.962-4.962" transform="translate(-218.038 -403.271)" fill="#00f076"/>
      <g id="그룹_12" data-name="그룹 12" clip-path="url(#clip-path-3)">
        <rect id="사각형_17" data-name="사각형 17" width="24.67" height="24.67" transform="translate(-7.642 7.466) rotate(-45)" fill="#00f076"/>
      </g>
    </g>
  </g>
</svg>
