<svg xmlns="http://www.w3.org/2000/svg" width="133.849" height="22.867" viewBox="0 0 133.849 22.867">
  <g id="footer_logo" transform="translate(-624.568 -1315.965)">
    <g id="그룹_1262" data-name="그룹 1262" transform="translate(624.568 1315.965)">
      <path id="패스_1334" data-name="패스 1334" d="M636.769,1334.378l-4.733-8.2a1.344,1.344,0,0,1,0-1.344l4.733-8.2a1.343,1.343,0,0,1,1.164-.673H647.4a1.343,1.343,0,0,1,1.164.673l4.733,8.2-2.328,1.344-4.345-7.526h-7.914l-3.958,6.854,4.345,7.526Z" transform="translate(-628.327 -1315.965)" fill="#9c6cff"/>
      <path id="패스_1335" data-name="패스 1335" d="M639.932,1343.578h-9.467a1.345,1.345,0,0,1-1.165-.672l-4.733-8.2,2.328-1.344,4.345,7.526h7.915l3.957-6.854-4.345-7.526,2.328-1.344,4.733,8.2a1.344,1.344,0,0,1,0,1.344l-4.733,8.2A1.344,1.344,0,0,1,639.932,1343.578Z" transform="translate(-624.568 -1320.71)" fill="#05d2dd"/>
    </g>
    <g id="그룹_1264" data-name="그룹 1264" transform="translate(656.968 1321.541)">
      <g id="그룹_1263" data-name="그룹 1263" transform="translate(0 1.44)">
        <path id="패스_1336" data-name="패스 1336" d="M693.71,1338.716a4.223,4.223,0,0,1-1.635-1.58,4.627,4.627,0,0,1,0-4.53,4.211,4.211,0,0,1,1.641-1.579,4.807,4.807,0,0,1,2.345-.574,4.9,4.9,0,0,1,1.852.339,3.8,3.8,0,0,1,1.431,1.006l-.8.778a3.218,3.218,0,0,0-2.431-1.025,3.525,3.525,0,0,0-1.74.432,3.134,3.134,0,0,0-1.215,1.191,3.5,3.5,0,0,0,0,3.394,3.131,3.131,0,0,0,1.215,1.191,3.52,3.52,0,0,0,1.74.432,3.226,3.226,0,0,0,2.431-1.037l.8.778a3.832,3.832,0,0,1-1.438,1.012,4.865,4.865,0,0,1-1.858.346A4.766,4.766,0,0,1,693.71,1338.716Z" transform="translate(-691.483 -1330.454)" fill="#fff"/>
        <path id="패스_1337" data-name="패스 1337" d="M711.775,1338.716a4.239,4.239,0,0,1-1.647-1.586,4.561,4.561,0,0,1,0-4.517,4.243,4.243,0,0,1,1.647-1.586,5.1,5.1,0,0,1,4.7,0,4.21,4.21,0,0,1,1.642,1.579,4.624,4.624,0,0,1,0,4.53,4.209,4.209,0,0,1-1.642,1.58,5.1,5.1,0,0,1-4.7,0Zm4.067-.956a3.163,3.163,0,0,0,1.2-1.191,3.5,3.5,0,0,0,0-3.394,3.166,3.166,0,0,0-1.2-1.191,3.4,3.4,0,0,0-1.709-.432,3.466,3.466,0,0,0-1.722.432,3.144,3.144,0,0,0-1.209,1.191,3.5,3.5,0,0,0,0,3.394,3.141,3.141,0,0,0,1.209,1.191,3.461,3.461,0,0,0,1.722.432A3.392,3.392,0,0,0,715.841,1337.76Z" transform="translate(-700.791 -1330.454)" fill="#fff"/>
        <path id="패스_1338" data-name="패스 1338" d="M732.186,1338.988a3.863,3.863,0,0,1-1.425-.783l.457-.963a3.778,3.778,0,0,0,1.265.722,4.644,4.644,0,0,0,1.586.278,2.858,2.858,0,0,0,1.6-.364,1.122,1.122,0,0,0,.53-.969.956.956,0,0,0-.29-.722,1.943,1.943,0,0,0-.716-.426q-.426-.148-1.2-.333a12.407,12.407,0,0,1-1.574-.469,2.6,2.6,0,0,1-1.024-.722,1.926,1.926,0,0,1-.426-1.315,2.226,2.226,0,0,1,.364-1.246,2.5,2.5,0,0,1,1.1-.889,4.483,4.483,0,0,1,1.839-.333,5.835,5.835,0,0,1,1.506.2,4.018,4.018,0,0,1,1.272.568l-.407.987a4.469,4.469,0,0,0-1.16-.524,4.343,4.343,0,0,0-1.21-.179,2.669,2.669,0,0,0-1.574.383,1.172,1.172,0,0,0-.524.988.946.946,0,0,0,.3.722,2.053,2.053,0,0,0,.734.431,11.365,11.365,0,0,0,1.191.327,12.032,12.032,0,0,1,1.567.469,2.632,2.632,0,0,1,1.018.716,1.884,1.884,0,0,1,.426,1.3,2.2,2.2,0,0,1-.37,1.241,2.48,2.48,0,0,1-1.123.888,4.64,4.64,0,0,1-1.852.327A5.9,5.9,0,0,1,732.186,1338.988Z" transform="translate(-711.742 -1330.454)" fill="#fff"/>
        <path id="패스_1339" data-name="패스 1339" d="M756.231,1339.3l-.012-6.295-3.123,5.245h-.568l-3.123-5.208v6.257h-1.185v-8.64h1.012l3.6,6.072,3.554-6.072H757.4l.013,8.64Z" transform="translate(-720.748 -1330.559)" fill="#fff"/>
        <path id="패스_1340" data-name="패스 1340" d="M773.355,1338.716a4.24,4.24,0,0,1-1.648-1.586,4.561,4.561,0,0,1,0-4.517,4.244,4.244,0,0,1,1.648-1.586,5.1,5.1,0,0,1,4.7,0,4.211,4.211,0,0,1,1.642,1.579,4.627,4.627,0,0,1,0,4.53,4.209,4.209,0,0,1-1.642,1.58,5.1,5.1,0,0,1-4.7,0Zm4.067-.956a3.166,3.166,0,0,0,1.2-1.191,3.5,3.5,0,0,0,0-3.394,3.169,3.169,0,0,0-1.2-1.191,3.4,3.4,0,0,0-1.71-.432,3.466,3.466,0,0,0-1.721.432,3.145,3.145,0,0,0-1.209,1.191,3.5,3.5,0,0,0,0,3.394,3.142,3.142,0,0,0,1.209,1.191,3.461,3.461,0,0,0,1.721.432A3.394,3.394,0,0,0,777.422,1337.76Z" transform="translate(-732.554 -1330.454)" fill="#fff"/>
        <path id="패스_1341" data-name="패스 1341" d="M793.768,1338.988a3.864,3.864,0,0,1-1.426-.783l.457-.963a3.778,3.778,0,0,0,1.265.722,4.64,4.64,0,0,0,1.586.278,2.859,2.859,0,0,0,1.605-.364,1.122,1.122,0,0,0,.53-.969.957.957,0,0,0-.289-.722,1.944,1.944,0,0,0-.716-.426q-.426-.148-1.2-.333a12.408,12.408,0,0,1-1.574-.469,2.6,2.6,0,0,1-1.024-.722,1.926,1.926,0,0,1-.426-1.315,2.223,2.223,0,0,1,.364-1.246,2.5,2.5,0,0,1,1.1-.889,4.482,4.482,0,0,1,1.839-.333,5.839,5.839,0,0,1,1.506.2,4.009,4.009,0,0,1,1.271.568l-.407.987a4.453,4.453,0,0,0-1.16-.524,4.34,4.34,0,0,0-1.21-.179,2.669,2.669,0,0,0-1.574.383,1.171,1.171,0,0,0-.524.988.947.947,0,0,0,.3.722,2.059,2.059,0,0,0,.735.431,11.409,11.409,0,0,0,1.191.327,12.057,12.057,0,0,1,1.567.469,2.633,2.633,0,0,1,1.018.716,1.886,1.886,0,0,1,.426,1.3,2.206,2.206,0,0,1-.37,1.241,2.482,2.482,0,0,1-1.123.888,4.638,4.638,0,0,1-1.852.327A5.9,5.9,0,0,1,793.768,1338.988Z" transform="translate(-743.506 -1330.454)" fill="#fff"/>
        <path id="패스_1342" data-name="패스 1342" d="M809.934,1331.731h-2.962v-1.074h7.146v1.074h-2.962v7.566h-1.222Z" transform="translate(-751.052 -1330.559)" fill="#fff"/>
        <path id="패스_1343" data-name="패스 1343" d="M827.728,1337.137h-4.591l-.951,2.16h-1.271l3.912-8.64h1.222l3.925,8.64h-1.3Zm-.432-.987-1.863-4.234-1.864,4.234Z" transform="translate(-758.244 -1330.559)" fill="#fff"/>
        <path id="패스_1344" data-name="패스 1344" d="M841.77,1331.731h-2.962v-1.074h7.146v1.074h-2.962v7.566H841.77Z" transform="translate(-767.473 -1330.559)" fill="#fff"/>
        <path id="패스_1345" data-name="패스 1345" d="M856.344,1330.657h1.234v8.64h-1.234Z" transform="translate(-776.518 -1330.559)" fill="#fff"/>
        <path id="패스_1346" data-name="패스 1346" d="M865.039,1338.716a4.241,4.241,0,0,1-1.648-1.586,4.561,4.561,0,0,1,0-4.517,4.244,4.244,0,0,1,1.648-1.586,5.1,5.1,0,0,1,4.7,0,4.21,4.21,0,0,1,1.642,1.579,4.627,4.627,0,0,1,0,4.53,4.208,4.208,0,0,1-1.642,1.58,5.1,5.1,0,0,1-4.7,0Zm4.067-.956a3.167,3.167,0,0,0,1.2-1.191,3.5,3.5,0,0,0,0-3.394,3.17,3.17,0,0,0-1.2-1.191,3.4,3.4,0,0,0-1.71-.432,3.466,3.466,0,0,0-1.721.432,3.145,3.145,0,0,0-1.209,1.191,3.5,3.5,0,0,0,0,3.394,3.142,3.142,0,0,0,1.209,1.191,3.461,3.461,0,0,0,1.721.432A3.394,3.394,0,0,0,869.106,1337.76Z" transform="translate(-779.844 -1330.454)" fill="#fff"/>
        <path id="패스_1347" data-name="패스 1347" d="M893.086,1330.657v8.64h-1.012l-5.183-6.443v6.443h-1.234v-8.64h1.012l5.183,6.443v-6.443Z" transform="translate(-791.637 -1330.559)" fill="#fff"/>
      </g>
      <rect id="사각형_178" data-name="사각형 178" width="15.523" height="1.046" transform="translate(7.676 10.977) rotate(-45)" fill="#fff"/>
    </g>
  </g>
</svg>
