<svg xmlns="http://www.w3.org/2000/svg" width="35" height="35" viewBox="0 0 35 35">
  <g id="github_btn" transform="translate(-1625 -218)">
    <g id="타원_201" data-name="타원 201" transform="translate(1625 218)" fill="none" stroke="#e6e6e6" stroke-width="1">
      <circle cx="17.5" cy="17.5" r="17.5" stroke="none"/>
      <circle cx="17.5" cy="17.5" r="17" fill="none"/>
    </g>
    <g id="github-logo" transform="translate(1632.198 225.218)">
      <path id="패스_1759" data-name="패스 1759" d="M18.978,10.431a10.127,10.127,0,0,0-3.7-3.7,9.948,9.948,0,0,0-5.105-1.364A9.949,9.949,0,0,0,5.066,6.729a10.126,10.126,0,0,0-3.7,3.7A9.949,9.949,0,0,0,0,15.536a9.885,9.885,0,0,0,1.94,5.979A9.961,9.961,0,0,0,6.953,25.19a.593.593,0,0,0,.53-.093.518.518,0,0,0,.172-.4q0-.04-.007-.715t-.007-1.178l-.3.053a3.886,3.886,0,0,1-.735.046,5.6,5.6,0,0,1-.92-.093,2.057,2.057,0,0,1-.887-.4,1.68,1.68,0,0,1-.583-.814l-.132-.3a3.309,3.309,0,0,0-.417-.675,1.6,1.6,0,0,0-.576-.5l-.093-.066a.972.972,0,0,1-.172-.159.726.726,0,0,1-.119-.185q-.04-.093.066-.153a.859.859,0,0,1,.384-.059l.265.04a1.933,1.933,0,0,1,.656.318,2.137,2.137,0,0,1,.642.688,2.334,2.334,0,0,0,.735.828,1.559,1.559,0,0,0,.867.285,3.766,3.766,0,0,0,.755-.066,2.634,2.634,0,0,0,.6-.2,2.146,2.146,0,0,1,.649-1.364,9.068,9.068,0,0,1-1.357-.238,5.4,5.4,0,0,1-1.245-.517,3.565,3.565,0,0,1-1.066-.887,4.264,4.264,0,0,1-.7-1.391,6.613,6.613,0,0,1-.271-1.986,3.863,3.863,0,0,1,1.046-2.728,3.56,3.56,0,0,1,.093-2.7,1.856,1.856,0,0,1,1.139.179,7.963,7.963,0,0,1,1.106.51q.351.212.563.358a9.565,9.565,0,0,1,5.086,0l.5-.318a7.127,7.127,0,0,1,1.218-.583,1.736,1.736,0,0,1,1.073-.146,3.526,3.526,0,0,1,.106,2.7,3.863,3.863,0,0,1,1.046,2.728A6.687,6.687,0,0,1,16.389,17a4.1,4.1,0,0,1-.7,1.391,3.7,3.7,0,0,1-1.073.881,5.415,5.415,0,0,1-1.245.517,9.058,9.058,0,0,1-1.357.239,2.359,2.359,0,0,1,.688,1.88V24.7a.528.528,0,0,0,.166.4.575.575,0,0,0,.523.093A9.96,9.96,0,0,0,18.4,21.515a9.887,9.887,0,0,0,1.94-5.979A9.957,9.957,0,0,0,18.978,10.431Z" transform="translate(0 -5.365)"/>
    </g>
  </g>
</svg>
