<svg xmlns="http://www.w3.org/2000/svg" width="35" height="35" viewBox="0 0 35 35">
  <g id="telegram_btn" transform="translate(-1670 -218)">
    <g id="타원_201" data-name="타원 201" transform="translate(1670 218)" fill="none" stroke="#e6e6e6" stroke-width="1">
      <circle cx="17.5" cy="17.5" r="17.5" stroke="none"/>
      <circle cx="17.5" cy="17.5" r="17" fill="none"/>
    </g>
    <g id="iconfinder_335_Telegram_logo_4375490" transform="translate(1676.999 228.006)">
      <g id="그룹_1907" data-name="그룹 1907" transform="translate(0 0)">
        <path id="패스_1674" data-name="패스 1674" d="M43.452,64.448,40.811,76.9c-.2.879-.719,1.1-1.457.684L35.33,74.622l-1.942,1.868a1.011,1.011,0,0,1-.809.395l.289-4.1,7.458-6.74c.324-.289-.07-.449-.5-.16L30.6,71.691l-3.969-1.242c-.863-.27-.879-.863.18-1.278L42.339,63.19C43.058,62.92,43.687,63.35,43.452,64.448Z" transform="translate(-26.001 -63.112)"/>
      </g>
    </g>
  </g>
</svg>
