<svg xmlns="http://www.w3.org/2000/svg" width="35" height="35" viewBox="0 0 35 35">
  <g id="twitter_btn_hover" transform="translate(-1416 -230)">
    <g id="패스_2186" data-name="패스 2186" transform="translate(1416 230)" fill="#e6e6e6">
      <path d="M 17.5 34.5 C 12.95913982391357 34.5 8.690059661865234 32.731689453125 5.479189872741699 29.52080917358398 C 2.268310070037842 26.30994033813477 0.5 22.04085922241211 0.5 17.5 C 0.5 12.95913982391357 2.268310070037842 8.690059661865234 5.479189872741699 5.479189872741699 C 8.690059661865234 2.268310070037842 12.95913982391357 0.5 17.5 0.5 C 22.04085922241211 0.5 26.30994033813477 2.268310070037842 29.52080917358398 5.479189872741699 C 32.731689453125 8.690059661865234 34.5 12.95913982391357 34.5 17.5 C 34.5 22.04085922241211 32.731689453125 26.30994033813477 29.52080917358398 29.52080917358398 C 26.30994033813477 32.731689453125 22.04085922241211 34.5 17.5 34.5 Z" stroke="none"/>
      <path d="M 17.5 1 C 13.09268951416016 1 8.949180603027344 2.716300964355469 5.832740783691406 5.832740783691406 C 2.716300964355469 8.949180603027344 1 13.09268951416016 1 17.5 C 1 21.90731048583984 2.716300964355469 26.05081939697266 5.832740783691406 29.16725921630859 C 8.949180603027344 32.28369903564453 13.09268951416016 34 17.5 34 C 21.90731048583984 34 26.05081939697266 32.28369903564453 29.16725921630859 29.16725921630859 C 32.28369903564453 26.05081939697266 34 21.90731048583984 34 17.5 C 34 13.09268951416016 32.28369903564453 8.949180603027344 29.16725921630859 5.832740783691406 C 26.05081939697266 2.716300964355469 21.90731048583984 1 17.5 1 M 17.5 0 C 27.16497993469238 0 35 7.835020065307617 35 17.5 C 35 27.16497993469238 27.16497993469238 35 17.5 35 C 7.835020065307617 35 0 27.16497993469238 0 17.5 C 0 7.835020065307617 7.835020065307617 0 17.5 0 Z" stroke="none" fill="#e6e6e6"/>
    </g>
    <g id="twitter" transform="translate(1424.239 192.119)">
      <g id="그룹_3895" data-name="그룹 3895" transform="translate(0 48)">
        <path id="패스_2027" data-name="패스 2027" d="M18.23,49.754a7.792,7.792,0,0,1-2.153.59,3.716,3.716,0,0,0,1.644-2.066,7.469,7.469,0,0,1-2.37.9,3.737,3.737,0,0,0-6.465,2.556,3.848,3.848,0,0,0,.087.852,10.579,10.579,0,0,1-7.7-3.909,3.738,3.738,0,0,0,1.149,5,3.691,3.691,0,0,1-1.689-.46v.041a3.755,3.755,0,0,0,2.994,3.672,3.73,3.73,0,0,1-.98.123,3.3,3.3,0,0,1-.708-.064,3.773,3.773,0,0,0,3.492,2.6A7.51,7.51,0,0,1,.894,61.186,7,7,0,0,1,0,61.135a10.522,10.522,0,0,0,5.733,1.677A10.564,10.564,0,0,0,16.371,52.177c0-.165-.006-.325-.014-.483A7.456,7.456,0,0,0,18.23,49.754Z" transform="translate(0 -48)"/>
      </g>
    </g>
  </g>
</svg>
