<svg xmlns="http://www.w3.org/2000/svg" width="35" height="35" viewBox="0 0 35 35">
  <g id="youtube_btn" transform="translate(-1670 -265)">
    <g id="타원_224" data-name="타원 224" transform="translate(1670 265)" fill="none" stroke="#e6e6e6" stroke-width="1">
      <circle cx="17.5" cy="17.5" r="17.5" stroke="none"/>
      <circle cx="17.5" cy="17.5" r="17" fill="none"/>
    </g>
    <g id="youtube" transform="translate(1678 261.324)">
      <path id="패스_2181" data-name="패스 2181" d="M18.262,16.76a2.348,2.348,0,0,0-2.009-1.826,62.442,62.442,0,0,0-6.959-.257,62.452,62.452,0,0,0-6.959.257A2.347,2.347,0,0,0,.327,16.76,19.9,19.9,0,0,0,0,21.153a19.9,19.9,0,0,0,.324,4.393,2.347,2.347,0,0,0,2.008,1.826,62.4,62.4,0,0,0,6.959.257,62.384,62.384,0,0,0,6.959-.257,2.348,2.348,0,0,0,2.009-1.826,19.887,19.887,0,0,0,.325-4.393A19.9,19.9,0,0,0,18.262,16.76ZM6.894,24.037V17.891L12.8,20.974Z" transform="translate(0 0)"/>
    </g>
  </g>
</svg>
