<svg xmlns="http://www.w3.org/2000/svg" width="34" height="34" viewBox="0 0 34 34">
  <g id="dex_ic" transform="translate(-1265 -595)">
    <rect id="사각형_1777" data-name="사각형 1777" width="34" height="34" transform="translate(1265 595)" fill="none"/>
    <g id="그룹_3832" data-name="그룹 3832" transform="translate(1130.849 -174.512)">
      <path id="패스_1966" data-name="패스 1966" d="M167.431,776.366l-4.6,2.665-2.547-1.557,7.158-4.163,7.276,4.234-2.724,1.592Z" transform="translate(-16.37 0)" fill="#f0b90b"/>
      <path id="패스_1967" data-name="패스 1967" d="M184.244,800.785l-2.555-1.484,2.555-1.484L186.8,799.3Z" transform="translate(-33.189 -19.256)" fill="#f0b90b"/>
      <path id="패스_1968" data-name="패스 1968" d="M160.391,841.789v3.2l2.545,1.391v-3.1Z" transform="translate(-16.454 -53.807)" fill="#f0b90b"/>
      <path id="패스_1969" data-name="패스 1969" d="M186.648,876.8l-2.615,1.524-2.615-1.524v3.074l2.612,1.428v0h.005v0l2.612-1.428Z" transform="translate(-32.976 -81.316)" fill="#f0b90b"/>
      <path id="패스_1970" data-name="패스 1970" d="M146.5,838.872l-4.481-2.53v-5.29l-2.545-1.484v8.573l2.289,1.251h0l0,0,.252.138h0l4.481,2.443Z" transform="translate(-0.017 -44.205)" fill="#f0b90b"/>
      <path id="패스_1971" data-name="패스 1971" d="M215,838.872l4.481-2.53v-5.29l2.545-1.484v8.573l-2.289,1.251h0l0,0-.252.138h0L215,841.976Z" transform="translate(-59.361 -44.205)" fill="#f0b90b"/>
      <path id="패스_1972" data-name="패스 1972" d="M217.991,841.789v3.2l-2.545,1.391v-3.1Z" transform="translate(-59.714 -53.807)" fill="#f0b90b"/>
      <path id="패스_1973" data-name="패스 1973" d="M223.928,799.466l2.555-1.484,2.555,1.484v3.152l-2.523,1.486v-3.087Z" transform="translate(-66.379 -19.386)" fill="#f0b90b"/>
      <path id="패스_1974" data-name="패스 1974" d="M144.561,799.466l-2.555-1.484-2.555,1.484v3.152l2.523,1.486v-3.087Z" transform="translate(0 -19.386)" fill="#f0b90b"/>
      <path id="패스_1975" data-name="패스 1975" d="M167.533,823.951l2.689-1.557v-5.236l4.458-2.524v-3.207l-2.642-1.51-4.5,2.677h.008l-4.5-2.677-2.642,1.51v3.207l4.458,2.524v5.236l2.689,1.557Z" transform="translate(-16.456 -28.763)" fill="#f0b90b"/>
    </g>
  </g>
</svg>
