<svg xmlns="http://www.w3.org/2000/svg" width="34" height="34" viewBox="0 0 34 34">
  <g id="jex_ic" transform="translate(-1265 -654)">
    <text id="JEX" transform="translate(1272.625 686)" fill="#f0b90b" font-size="10" font-family="Montserrat-Bold, Montserrat" font-weight="700"><tspan x="0" y="0">JEX</tspan></text>
    <rect id="사각형_1780" data-name="사각형 1780" width="34" height="34" transform="translate(1265 654)" fill="none"/>
    <g id="binance-coin-seeklogo.com" transform="translate(1271.394 654.858)">
      <path id="패스_1964" data-name="패스 1964" d="M6.506,8.932,10.634,4.8l4.13,4.13,2.4-2.4L10.634,0,4.1,6.53l2.4,2.4m-6.5,1.7,2.4-2.4,2.4,2.4-2.4,2.4Zm6.5,1.7,4.128,4.128,4.13-4.13,2.4,2.4h0l-6.532,6.532L4.1,14.726l0,0,2.405-2.4m9.952-1.7,2.4-2.4,2.4,2.4-2.4,2.4Z" transform="translate(0)" fill="#f0b90b"/>
      <path id="패스_1965" data-name="패스 1965" d="M775.425,772.987h0l-2.437-2.437-1.8,1.8h0l-.207.207-.427.427,0,0,0,0,2.435,2.435,2.437-2.437h0" transform="translate(-762.355 -762.361)" fill="#f0b90b"/>
    </g>
  </g>
</svg>
