<svg xmlns="http://www.w3.org/2000/svg" width="34" height="34" viewBox="0 0 34 34">
  <g id="jex_ic" transform="translate(-1679 -671)">
    <rect id="사각형_1780" data-name="사각형 1780" width="34" height="34" transform="translate(1679 671)" fill="none"/>
    <g id="binance-coin-seeklogo.com" transform="translate(1685.394 671.858)">
      <path id="패스_1964" data-name="패스 1964" d="M6.506,8.932,10.634,4.8l4.13,4.13,2.4-2.4L10.634,0,4.1,6.53l2.4,2.4M0,10.63l2.4-2.4,2.4,2.4-2.4,2.4Zm6.5,1.7,4.128,4.128,4.13-4.13,2.4,2.4h0L10.626,21.26,4.1,14.726h0l2.405-2.4m9.952-1.7,2.4-2.4,2.4,2.4-2.4,2.4Z" fill="#f0b90b"/>
      <path id="패스_1965" data-name="패스 1965" d="M775.425,772.987h0l-2.437-2.437-1.8,1.8h0l-.207.207-.427.427h0l2.435,2.435,2.437-2.437h0" transform="translate(-762.355 -762.361)" fill="#f0b90b"/>
    </g>
    <g id="그룹_4244" data-name="그룹 4244" transform="translate(647.191 201.396)">
      <path id="패스_2187" data-name="패스 2187" d="M1038.809,501.169l.968-1.162a1.73,1.73,0,0,0,1.4.829c.7,0,1.066-.42,1.066-1.248V496h-2.647v-1.4h4.379v4.887c0,1.862-.936,2.777-2.711,2.777A3.027,3.027,0,0,1,1038.809,501.169Z" fill="#f0b923"/>
      <path id="패스_2188" data-name="패스 2188" d="M1052.321,500.74v1.4h-5.834V494.6h5.694V496h-3.96v1.636h3.5V499h-3.5v1.744Z" transform="translate(-0.788)" fill="#f0b923"/>
      <path id="패스_2189" data-name="패스 2189" d="M1059.1,502.139l-1.818-2.616-1.787,2.616h-2l2.788-3.832-2.648-3.7h1.98l1.734,2.444,1.7-2.444h1.883l-2.626,3.638,2.809,3.9Z" transform="translate(-1.507)" fill="#f0b923"/>
    </g>
  </g>
</svg>
