<svg xmlns="http://www.w3.org/2000/svg" width="60" height="58" viewBox="0 0 60 58">
  <g id="error_ic" transform="translate(-945 -649)">
    <g id="그룹_4272" data-name="그룹 4272" transform="translate(-8 7)">
      <g id="error" transform="translate(946.268 634.922)">
        <g id="그룹_4271" data-name="그룹 4271" transform="translate(10 26.02)">
          <g id="그룹_4270" data-name="그룹 4270" transform="translate(3 -10)">
            <path id="패스_2259" data-name="패스 2259" d="M237.888,363.673a1.841,1.841,0,0,0,0-3.682h0a1.841,1.841,0,0,0,0,3.682Z" transform="translate(-214.314 -329.888)" fill="#ff2745"/>
            <path id="패스_2260" data-name="패스 2260" d="M239.724,158.384V144.851a1.841,1.841,0,0,0-3.682,0v13.533a1.841,1.841,0,0,0,3.682,0Z" transform="translate(-214.311 -132.884)" fill="#ff2745"/>
          </g>
        </g>
      </g>
      <g id="다각형_5" data-name="다각형 5" transform="translate(953 644)" fill="none" stroke-linejoin="round">
        <path d="M24.912,8.141a6,6,0,0,1,10.176,0L54.263,38.82A6,6,0,0,1,49.175,48H10.825a6,6,0,0,1-5.088-9.18Z" stroke="none"/>
        <path d="M 30 7.820777893066406 C 28.76719093322754 7.820777893066406 27.68539047241211 8.420356750488281 27.03200912475586 9.465785980224609 L 7.857490539550781 40.1450080871582 C 7.173248291015625 41.23977661132812 7.138389587402344 42.5675163269043 7.764228820800781 43.69668579101562 C 8.390071868896484 44.82586669921875 9.534469604492188 45.49999618530273 10.82548141479492 45.49999618530273 L 49.17451095581055 45.49999618530273 C 50.46553039550781 45.49999618530273 51.60992050170898 44.82586669921875 52.23575973510742 43.69668579101562 C 52.86159896850586 42.5675163269043 52.82674026489258 41.23978805541992 52.14250183105469 40.1450080871582 L 32.96800231933594 9.465785980224609 C 32.31459808349609 8.420356750488281 31.23280906677246 7.820777893066406 30 7.820777893066406 M 30 5.320781707763672 C 31.95649337768555 5.320781707763672 33.91298675537109 6.260784149169922 35.08798980712891 8.140789031982422 L 54.26250076293945 38.82000732421875 C 56.76018142700195 42.81629943847656 53.88713073730469 47.99999618530273 49.17451095581055 47.99999618530273 L 10.82548141479492 47.99999618530273 C 6.112869262695312 47.99999618530273 3.239810943603516 42.81629943847656 5.737491607666016 38.82000732421875 L 24.91201019287109 8.140789031982422 C 26.08701324462891 6.260784149169922 28.04350662231445 5.320781707763672 30 5.320781707763672 Z" stroke="none" fill="#b2b6bc"/>
      </g>
    </g>
    <rect id="사각형_2062" data-name="사각형 2062" width="58" height="58" transform="translate(946 649)" fill="none"/>
  </g>
</svg>
