<svg xmlns="http://www.w3.org/2000/svg" width="270" height="270" viewBox="0 0 270 270">
    <g id="그룹_1497" data-name="그룹 1497" transform="translate(-825 -282)">
        <g id="website" transform="translate(874 339.771)">
            <path id="패스_1349" data-name="패스 1349"
                  d="M158.085,0H14.372A14.388,14.388,0,0,0,0,14.372V123.595a14.39,14.39,0,0,0,14.372,14.372H68.758c-1.235,8.826-7.846,17.245-14.147,17.245a8.623,8.623,0,0,0,0,17.245h63.235a8.623,8.623,0,0,0,0-17.245c-6.3,0-12.911-8.419-14.147-17.245h54.386a14.39,14.39,0,0,0,14.372-14.372V14.372A14.388,14.388,0,0,0,158.085,0ZM14.372,5.748H158.085a8.623,8.623,0,0,1,8.623,8.623v8.622H137.966a2.874,2.874,0,1,0,0,5.748h28.742V86.229H160.96a2.874,2.874,0,1,0,0,5.748h5.748v17.245H5.749V91.977H83.354A2.874,2.874,0,0,0,86.229,89.1a37.348,37.348,0,0,0-74.584-2.875h-5.9V28.743H109.223a2.874,2.874,0,1,0,0-5.748H5.749V14.372a8.623,8.623,0,0,1,8.623-8.623Zm45.146,72.7a2.876,2.876,0,0,0-4.064,0l-7.78,7.781h-30.3a31.617,31.617,0,0,1,62.976,0H55.8l3.716-3.717a2.874,2.874,0,0,0,0-4.064Zm58.328,88.261H54.611a2.874,2.874,0,0,1,0-5.748h63.235a2.874,2.874,0,0,1,0,5.748Zm-11.871-11.5H66.482a29.9,29.9,0,0,0,8.092-17.245h23.31a29.9,29.9,0,0,0,8.092,17.245Zm60.734-31.617a8.624,8.624,0,0,1-8.623,8.623H14.372a8.624,8.624,0,0,1-8.623-8.623v-8.623h160.96Zm0,0"
                  fill="#b2b6bc"/>
            <path id="패스_1350" data-name="패스 1350"
                  d="M253.214,361.274a2.875,2.875,0,1,1-2.875-2.875A2.875,2.875,0,0,1,253.214,361.274Zm0,0"
                  transform="translate(-164.111 -237.679)" fill="#b2b6bc"/>
            <path id="패스_1351" data-name="패스 1351"
                  d="M277.062,94.2a5.7,5.7,0,0,0-8.047,0l-4.142,4.145a5.69,5.69,0,0,0,0,8.047l2.989,3.091a24.971,24.971,0,0,0-1.851,4.6H261.7a5.7,5.7,0,0,0-5.7,5.685v5.863a5.7,5.7,0,0,0,5.691,5.692l4.295.068a24.817,24.817,0,0,0,1.941,4.55L264.869,139a5.7,5.7,0,0,0,0,8.047l4.149,4.146a5.7,5.7,0,0,0,8.047,0l3.093-2.987a25.242,25.242,0,0,0,4.584,1.851v4.31a5.7,5.7,0,0,0,5.692,5.7H296.3a5.7,5.7,0,0,0,5.692-5.691l.074-4.295a25.464,25.464,0,0,0,4.547-1.939l3.055,3.053a5.7,5.7,0,0,0,8.048,0l4.147-4.146a5.7,5.7,0,0,0,0-8.047l-2.989-3.079a24.933,24.933,0,0,0,1.851-4.6h4.312a5.7,5.7,0,0,0,5.7-5.692v-5.863a5.7,5.7,0,0,0-5.692-5.691l-4.293-.07a25.01,25.01,0,0,0-1.941-4.552l3.055-3.055a5.691,5.691,0,0,0,0-8.048l-4.15-4.15a5.7,5.7,0,0,0-8.048,0l-3.075,2.992a25.192,25.192,0,0,0-4.6-1.851V91.029a5.7,5.7,0,0,0-5.692-5.7h-5.863a5.7,5.7,0,0,0-5.692,5.692l-.074,4.293a25.336,25.336,0,0,0-4.547,1.941Zm9.351,6.61a5.748,5.748,0,0,0,4.078-5.47l-.057-4.26,5.805-.057v4.312a5.748,5.748,0,0,0,4.076,5.46,23.038,23.038,0,0,1,3.608,1.5,5.748,5.748,0,0,0,6.751-.971l2.975-3.055,4.147,4.067-3.058,3.055a5.749,5.749,0,0,0-.968,6.748,23.042,23.042,0,0,1,1.5,3.608,5.748,5.748,0,0,0,5.455,4.079l4.26-.058v5.806h-4.26a5.746,5.746,0,0,0-5.46,4.079,23.073,23.073,0,0,1-1.5,3.606,5.747,5.747,0,0,0,.971,6.746l3.06,2.979-4.067,4.147-3.055-3.053a5.75,5.75,0,0,0-6.748-.972,23.171,23.171,0,0,1-3.608,1.5,5.749,5.749,0,0,0-4.079,5.452l.058,4.259-5.806.058v-4.312a5.749,5.749,0,0,0-4.075-5.462,22.791,22.791,0,0,1-3.608-1.5,5.946,5.946,0,0,0-2.747-.678,5.631,5.631,0,0,0-4,1.65l-2.975,3.055-4.149-4.067,3.056-3.055a5.75,5.75,0,0,0,.971-6.75,23.077,23.077,0,0,1-1.5-3.606,5.748,5.748,0,0,0-5.455-4.079l-4.26.057-.058-5.805H266a5.75,5.75,0,0,0,5.462-4.079,23.039,23.039,0,0,1,1.5-3.608,5.748,5.748,0,0,0-.971-6.748l-3.056-2.975L273,98.267l3.055,3.055a5.747,5.747,0,0,0,6.748.971,23.167,23.167,0,0,1,3.608-1.5Zm0,0"
                  transform="translate(-169.771 -56.59)" fill="#b2b6bc"/>
            <path id="패스_1352" data-name="패스 1352"
                  d="M332.98,179.558a17.245,17.245,0,1,0-17.245-17.245A17.245,17.245,0,0,0,332.98,179.558Zm0-28.742a11.5,11.5,0,1,1-11.5,11.5A11.5,11.5,0,0,1,332.98,150.815Zm0,0"
                  transform="translate(-209.386 -96.204)" fill="#b2b6bc"/>
            <path id="패스_1353" data-name="패스 1353"
                  d="M364.147,190.608a2.874,2.874,0,1,1-2.874-2.874A2.874,2.874,0,0,1,364.147,190.608Zm0,0"
                  transform="translate(-237.679 -124.5)" fill="#b2b6bc"/>
            <path id="패스_1354" data-name="패스 1354"
                  d="M39.881,37.008a2.874,2.874,0,1,1-2.874-2.875A2.874,2.874,0,0,1,39.881,37.008Zm0,0"
                  transform="translate(-22.636 -22.636)" fill="#b2b6bc"/>
            <path id="패스_1355" data-name="패스 1355"
                  d="M74.014,37.008a2.874,2.874,0,1,1-2.874-2.875A2.874,2.874,0,0,1,74.014,37.008Zm0,0"
                  transform="translate(-45.272 -22.636)" fill="#b2b6bc"/>
            <path id="패스_1356" data-name="패스 1356"
                  d="M108.147,37.008a2.874,2.874,0,1,1-2.874-2.875A2.874,2.874,0,0,1,108.147,37.008Zm0,0"
                  transform="translate(-67.908 -22.636)" fill="#b2b6bc"/>
            <path id="패스_1357" data-name="패스 1357"
                  d="M142.284,190.608a2.874,2.874,0,1,1-2.875-2.874A2.874,2.874,0,0,1,142.284,190.608Zm0,0"
                  transform="translate(-90.546 -124.5)" fill="#b2b6bc"/>
            <path id="패스_1358" data-name="패스 1358"
                  d="M176.416,207.674a2.874,2.874,0,1,1-2.875-2.874A2.874,2.874,0,0,1,176.416,207.674Zm0,0"
                  transform="translate(-113.181 -135.818)" fill="#b2b6bc"/>
            <path id="패스_1359" data-name="패스 1359"
                  d="M202.014,233.274a2.874,2.874,0,1,1-2.874-2.875A2.874,2.874,0,0,1,202.014,233.274Zm0,0"
                  transform="translate(-130.157 -152.793)" fill="#b2b6bc"/>
            <path id="패스_1360" data-name="패스 1360"
                  d="M108.147,207.674a2.874,2.874,0,1,1-2.874-2.874A2.874,2.874,0,0,1,108.147,207.674Zm0,0"
                  transform="translate(-67.908 -135.818)" fill="#b2b6bc"/>
            <path id="패스_1361" data-name="패스 1361"
                  d="M82.549,233.274a2.874,2.874,0,1,1-2.875-2.875A2.874,2.874,0,0,1,82.549,233.274Zm0,0"
                  transform="translate(-50.932 -152.793)" fill="#b2b6bc"/>
            <path id="패스_1362" data-name="패스 1362"
                  d="M149.009,121.907a49.636,49.636,0,0,0-18.314-2.343,2.879,2.879,0,1,0,.338,5.748,43.849,43.849,0,0,1,16.18,2.067,2.874,2.874,0,1,0,1.8-5.46Zm0,0"
                  transform="translate(-84.876 -79.232)" fill="#b2b6bc"/>
            <path id="패스_1363" data-name="패스 1363"
                  d="M55.782,133.471a48.963,48.963,0,0,0-12.214,8.462,2.875,2.875,0,1,0,3.953,4.176A43.2,43.2,0,0,1,58.3,138.636a2.877,2.877,0,0,0-2.517-5.175Zm0,0"
                  transform="translate(-28.297 -88.316)" fill="#b2b6bc"/>
        </g>
        <path id="패스_1364" data-name="패스 1364"
              d="M1327.938,253.739a8.849,8.849,0,1,0-8.85,8.848A8.859,8.859,0,0,0,1327.938,253.739Zm-8.85,4.942a4.943,4.943,0,1,1,4.944-4.942A4.948,4.948,0,0,1,1319.088,258.681Z"
              transform="translate(-241.285 126.643)" fill="#b2b6bc"/>
        <path id="패스_1365" data-name="패스 1365"
              d="M1078.97,160.43a14.163,14.163,0,0,0,3.037,25.991,14.271,14.271,0,0,0,3.884.543,14.164,14.164,0,1,0-6.922-26.534Zm11.9,21.322a10.257,10.257,0,0,1-13.955-3.957,10.314,10.314,0,0,1-.659-1.508l8.4-4.687a1.952,1.952,0,0,0-1.9-3.409l-7.1,3.965a10.226,10.226,0,0,1,19.934-2.617c-.037.018-.077.016-.112.036l-9.773,5.455a1.952,1.952,0,1,0,1.9,3.409l8.48-4.733A10.252,10.252,0,0,1,1090.871,181.752Z"
              transform="translate(-225.424 148.137)" fill="#b2b6bc"/>
        <path id="패스_1366" data-name="패스 1366"
              d="M1311.857,179.233l2.038-2.038,2.037,2.038a1.952,1.952,0,0,0,2.761-2.761l-2.037-2.038,2.037-2.038a1.952,1.952,0,0,0-2.761-2.761l-2.037,2.038-2.038-2.038a1.952,1.952,0,0,0-2.761,2.761l2.037,2.038-2.037,2.038a1.952,1.952,0,1,0,2.761,2.761Z"
              transform="translate(-240.639 155.208)" fill="#b2b6bc"/>
        <path id="패스_1367" data-name="패스 1367"
              d="M1094.4,294.441h-2.881V291.56a1.953,1.953,0,1,0-3.905,0v2.881h-2.881a1.952,1.952,0,0,0,0,3.9h2.881v2.881a1.953,1.953,0,1,0,3.905,0v-2.881h2.881a1.952,1.952,0,0,0,0-3.9Z"
              transform="translate(-255.596 107.797)" fill="#b2b6bc"/>
        <path id="패스_1368" data-name="패스 1368"
              d="M1298.067,294.564a1.983,1.983,0,1,0,1.983,1.983A1.984,1.984,0,0,0,1298.067,294.564Z"
              transform="translate(-235.952 107.93)" fill="#b2b6bc"/>
        <path id="패스_1369" data-name="패스 1369"
              d="M1104.22,234.878a1.983,1.983,0,1,0,1.983,1.983A1.983,1.983,0,0,0,1104.22,234.878Z"
              transform="translate(-262.927 128.415)" fill="#b2b6bc"/>
        <rect id="사각형_999" data-name="사각형 999" width="270" height="270" transform="translate(825 282)" fill="none"/>
    </g>
</svg>
