<svg id="qr_code" xmlns="http://www.w3.org/2000/svg" width="30.283" height="30.283" viewBox="0 0 30.283 30.283">
  <path id="패스_291" data-name="패스 291" d="M12.534,4H6.845A2.844,2.844,0,0,0,4,6.845v5.69a2.844,2.844,0,0,0,2.845,2.845h5.69a2.844,2.844,0,0,0,2.845-2.845V6.845A2.844,2.844,0,0,0,12.534,4Zm0,8.534H6.845V6.845h5.69Zm-1.422-1.422H8.267V8.267h2.845Z" transform="translate(-4 -4)"/>
  <path id="패스_292" data-name="패스 292" d="M12.534,18H6.845A2.844,2.844,0,0,0,4,20.845v5.69a2.844,2.844,0,0,0,2.845,2.845h5.69a2.844,2.844,0,0,0,2.845-2.845v-5.69A2.844,2.844,0,0,0,12.534,18Zm0,8.534H6.845v-5.69h5.69Zm-1.422-1.422H8.267V22.267h2.845Z" transform="translate(-4 0.904)"/>
  <path id="패스_293" data-name="패스 293" d="M26.534,4h-5.69A2.844,2.844,0,0,0,18,6.845v5.69a2.844,2.844,0,0,0,2.845,2.845h5.69a2.844,2.844,0,0,0,2.845-2.845V6.845A2.844,2.844,0,0,0,26.534,4Zm0,8.534h-5.69V6.845h5.69Zm-1.422-1.422H22.267V8.267h2.845Z" transform="translate(0.904 -4)"/>
  <rect id="사각형_119" data-name="사각형 119" width="2.845" height="2.845" transform="translate(13.719 2.845)"/>
  <rect id="사각형_120" data-name="사각형 120" width="2.845" height="2.845" transform="translate(13.719 8.231)"/>
  <rect id="사각형_121" data-name="사각형 121" width="2.845" height="2.845" transform="translate(13.719 13.719)"/>
  <rect id="사각형_122" data-name="사각형 122" width="2.845" height="2.845" transform="translate(8.231 13.719)"/>
  <rect id="사각형_123" data-name="사각형 123" width="2.845" height="2.845" transform="translate(2.845 13.719)"/>
  <rect id="사각형_124" data-name="사각형 124" width="2.845" height="2.845" transform="translate(19.207 13.719)"/>
  <rect id="사각형_125" data-name="사각형 125" width="2.845" height="2.845" transform="translate(24.593 13.719)"/>
  <rect id="사각형_126" data-name="사각형 126" width="2.845" height="2.845" transform="translate(16.463 16.463)"/>
  <rect id="사각형_127" data-name="사각형 127" width="2.845" height="2.845" transform="translate(21.951 16.463)"/>
  <rect id="사각형_128" data-name="사각형 128" width="2.845" height="2.845" transform="translate(19.207 19.207)"/>
  <rect id="사각형_129" data-name="사각형 129" width="2.845" height="2.845" transform="translate(13.719 19.207)"/>
  <rect id="사각형_130" data-name="사각형 130" width="2.845" height="2.845" transform="translate(16.463 21.951)"/>
  <rect id="사각형_131" data-name="사각형 131" width="2.845" height="2.845" transform="translate(19.207 24.593)"/>
  <rect id="사각형_132" data-name="사각형 132" width="2.845" height="2.845" transform="translate(16.463 27.438)"/>
  <rect id="사각형_133" data-name="사각형 133" width="2.845" height="2.845" transform="translate(27.438 16.463)"/>
  <rect id="사각형_134" data-name="사각형 134" width="2.845" height="2.845" transform="translate(27.438 21.951)"/>
  <rect id="사각형_135" data-name="사각형 135" width="2.845" height="2.845" transform="translate(21.951 21.951)"/>
  <rect id="사각형_136" data-name="사각형 136" width="2.845" height="2.845" transform="translate(21.951 27.438)"/>
  <rect id="사각형_137" data-name="사각형 137" width="2.845" height="2.845" transform="translate(24.593 24.593)"/>
  <rect id="사각형_138" data-name="사각형 138" width="2.845" height="2.845" transform="translate(24.593 19.207)"/>
  <rect id="사각형_139" data-name="사각형 139" width="2.845" height="2.845" transform="translate(13.719 24.593)"/>
</svg>
