<svg xmlns="http://www.w3.org/2000/svg" width="32" height="32" viewBox="0 0 32 32">
  <g id="assets_ic_none" transform="translate(-861 -84)">
    <g id="그룹_3967" data-name="그룹 3967" transform="translate(-2591.863 -1219.384)">
      <circle id="타원_206" data-name="타원 206" cx="8.357" cy="8.357" r="8.357" transform="translate(3457.793 1309.684)" fill="none" stroke="#59606a" stroke-miterlimit="10" stroke-width="1.2"/>
      <circle id="타원_207" data-name="타원 207" cx="6.378" cy="6.378" r="6.378" transform="translate(3459.773 1311.664)" fill="none" stroke="#59606a" stroke-miterlimit="10" stroke-width="1.2"/>
      <path id="패스_2047" data-name="패스 2047" d="M3467.076,1319.482a4.3,4.3,0,0,1,3.618-1.969" transform="translate(-4.243 -3.345)" fill="none" stroke="#59606a" stroke-linecap="round" stroke-miterlimit="10" stroke-width="1.2"/>
      <path id="패스_2048" data-name="패스 2048" d="M3465.871,1323.6a4.348,4.348,0,0,1,.15-.533" transform="translate(-3.834 -5.257)" fill="none" stroke="#59606a" stroke-linecap="round" stroke-miterlimit="10" stroke-width="1.2"/>
      <line id="선_251" data-name="선 251" y2="2.023" transform="translate(3466.027 1309.691)" fill="none" stroke="#59606a" stroke-miterlimit="10" stroke-width="1.2"/>
      <line id="선_252" data-name="선 252" y2="1.958" transform="translate(3466.027 1324.461)" fill="none" stroke="#59606a" stroke-miterlimit="10" stroke-width="1.2"/>
      <line id="선_253" data-name="선 253" x2="1.43" y2="1.43" transform="translate(3460.113 1312.141)" fill="none" stroke="#59606a" stroke-miterlimit="10" stroke-width="1.2"/>
      <line id="선_254" data-name="선 254" x2="1.385" y2="1.385" transform="translate(3470.557 1322.585)" fill="none" stroke="#59606a" stroke-miterlimit="10" stroke-width="1.2"/>
      <line id="선_255" data-name="선 255" x2="2.023" transform="translate(3457.663 1318.055)" fill="none" stroke="#59606a" stroke-miterlimit="10" stroke-width="1.2"/>
      <line id="선_256" data-name="선 256" x2="1.958" transform="translate(3472.433 1318.055)" fill="none" stroke="#59606a" stroke-miterlimit="10" stroke-width="1.2"/>
      <line id="선_257" data-name="선 257" y1="1.43" x2="1.43" transform="translate(3460.113 1322.54)" fill="none" stroke="#59606a" stroke-miterlimit="10" stroke-width="1.2"/>
      <line id="선_258" data-name="선 258" y1="1.385" x2="1.385" transform="translate(3470.557 1312.141)" fill="none" stroke="#59606a" stroke-miterlimit="10" stroke-width="1.2"/>
      <path id="패스_2049" data-name="패스 2049" d="M3479.748,1315.028a8.358,8.358,0,1,1-6.946,14.011" transform="translate(-7.305 -2.578)" fill="none" stroke="#59606a" stroke-miterlimit="10" stroke-width="1.2"/>
      <path id="패스_2050" data-name="패스 2050" d="M3483.608,1319.494a6.379,6.379,0,1,1-5.548,11.4" transform="translate(-9.841 -4.733)" fill="none" stroke="#59606a" stroke-miterlimit="10" stroke-width="1.2"/>
      <line id="선_259" data-name="선 259" y2="1.958" transform="translate(3471.492 1327.187)" fill="none" stroke="#59606a" stroke-miterlimit="10" stroke-width="1.2"/>
      <line id="선_260" data-name="선 260" x2="1.385" y2="1.385" transform="translate(3476.022 1325.31)" fill="none" stroke="#59606a" stroke-miterlimit="10" stroke-width="1.2"/>
      <line id="선_261" data-name="선 261" x2="1.958" transform="translate(3477.898 1320.781)" fill="none" stroke="#59606a" stroke-miterlimit="10" stroke-width="1.2"/>
      <line id="선_262" data-name="선 262" y1="1.385" x2="1.385" transform="translate(3476.022 1314.866)" fill="none" stroke="#59606a" stroke-miterlimit="10" stroke-width="1.2"/>
    </g>
    <rect id="사각형_1843" data-name="사각형 1843" width="32" height="32" transform="translate(861 84)" fill="none"/>
  </g>
</svg>
