<svg xmlns="http://www.w3.org/2000/svg" width="20.1" height="20.1" viewBox="0 0 20.1 20.1">
  <g id="kavachain_img" transform="translate(-267.95 -242.227)">
    <circle id="타원_116" data-name="타원 116" cx="8.684" cy="8.684" r="8.684" transform="translate(269.453 243.455)" fill="#fff"/>
    <g id="그룹_1488" data-name="그룹 1488" transform="translate(268 242)">
      <path id="제외_2" data-name="제외 2" d="M10,20A10,10,0,0,1,2.929,2.929,10,10,0,1,1,17.071,17.071,9.934,9.934,0,0,1,10,20ZM10,1.428A8.571,8.571,0,1,0,18.571,10,8.581,8.581,0,0,0,10,1.428Z" transform="translate(0 0.277)" fill="#ff564f"/>
      <path id="교차_4" data-name="교차 4" d="M9.285,19.975V18.541q.354.03.715.03t.714-.029v1.433Q10.359,20,10,20T9.285,19.975Zm6.247-3.434a8.618,8.618,0,0,0,1.009-1.01l1.016,1.017q-.233.269-.487.522t-.522.487Zm-12.6.53q-.254-.254-.488-.523l1.016-1.016a8.621,8.621,0,0,0,1.01,1.01L3.452,17.558Q3.183,17.325,2.929,17.071Zm15.612-6.357q.029-.354.03-.716c0-.24-.01-.478-.029-.714h1.434c.017.237.025.475.025.714s-.008.479-.025.716Zm-18.516,0Q0,10.359,0,10c0-.239.008-.477.025-.714H1.459c-.02.236-.029.473-.029.714s.01.48.03.716ZM2.442,3.452c.156-.179.318-.353.488-.522s.344-.332.523-.488L4.468,3.457a8.662,8.662,0,0,0-1.01,1.011Zm13.09.006,1.016-1.016q.269.234.523.488c.169.169.332.344.487.522L16.542,4.468A8.618,8.618,0,0,0,15.532,3.458ZM9.285.025Q9.64,0,10,0t.714.025V1.457q-.353-.029-.714-.029c-.241,0-.479.01-.715.03Z" transform="translate(0 0.277)" fill="#fff" stroke="#fff" stroke-width="0.1" opacity="0.41"/>
    </g>
    <g id="그룹_3965" data-name="그룹 3965" transform="translate(274 247.277)">
      <rect id="사각형_1871" data-name="사각형 1871" width="9.916" height="1.73" transform="translate(1.73 0) rotate(90)" fill="#ff564f"/>
      <path id="패스_2077" data-name="패스 2077" d="M215.935,119.036l-3.792-4.958,3.792-4.958h2.17l-3.74,4.958,3.74,4.958Z" transform="translate(-209.472 -109.12)" fill="#ff564f"/>
    </g>
  </g>
</svg>
