<svg xmlns="http://www.w3.org/2000/svg" width="150" height="34" viewBox="0 0 150 34">
  <g id="mintscan_logo" transform="translate(-360.8 -19.5)">
    <g id="그룹_3785" data-name="그룹 3785" transform="translate(361 20)">
      <g id="그룹_3781" data-name="그룹 3781">
        <path id="패스_1868" data-name="패스 1868" d="M32.912,0H19.2a1.95,1.95,0,0,0-1.686.973L10.659,12.846a1.94,1.94,0,0,0,0,1.946l6.856,11.873,3.371-1.946L14.6,13.819l5.73-9.927H31.791l6.3,10.9,3.371-1.946L34.6.973A1.944,1.944,0,0,0,32.912,0Z" transform="translate(-5.288)" fill="#222"/>
        <path id="패스_1869" data-name="패스 1869" d="M23.938,13.13l-3.371,1.946,6.3,10.9L21.132,35.9H9.667L3.371,25,0,26.949,6.856,38.823a1.946,1.946,0,0,0,1.686.973H22.253a1.95,1.95,0,0,0,1.686-.973l6.856-11.873a1.94,1.94,0,0,0,0-1.946Z" transform="translate(0 -6.677)" fill="#222"/>
      </g>
      <g id="그룹_3782" data-name="그룹 3782" transform="translate(47.808 1.445)">
        <path id="패스_1870" data-name="패스 1870" d="M99.108,6.951l4.831,8.06h.88L109.65,6.9l.02,9.736H111.5L111.483,3.27h-1.568l-5.5,9.392L98.843,3.27H97.28V16.632h1.828Z" transform="translate(-97.28 -3.108)" fill="#222"/>
        <rect id="사각형_1738" data-name="사각형 1738" width="1.907" height="13.362" transform="translate(18.228 0.162)" fill="#222"/>
        <path id="패스_1871" data-name="패스 1871" d="M155.993,13.232,147.978,3.27H146.41V16.632h1.912V6.666l8.015,9.967H157.9V3.27h-1.912Z" transform="translate(-122.265 -3.108)" fill="#222"/>
        <path id="패스_1872" data-name="패스 1872" d="M178.61,16.632H180.5V4.931h4.58V3.27H174.03V4.931h4.58Z" transform="translate(-136.312 -3.108)" fill="#222"/>
        <path id="패스_1873" data-name="패스 1873" d="M205.97,9.712a19.462,19.462,0,0,0-2.423-.727,17.915,17.915,0,0,1-1.843-.506,3.159,3.159,0,0,1-1.135-.668,1.46,1.46,0,0,1-.457-1.116,1.813,1.813,0,0,1,.811-1.528,4.129,4.129,0,0,1,2.433-.59,6.828,6.828,0,0,1,1.872.275,7.108,7.108,0,0,1,1.794.811l.629-1.528a6.224,6.224,0,0,0-1.966-.88,9.074,9.074,0,0,0-2.329-.3,6.93,6.93,0,0,0-2.845.516,3.89,3.89,0,0,0-1.71,1.376,3.453,3.453,0,0,0-.56,1.926A3,3,0,0,0,198.9,8.8a4.028,4.028,0,0,0,1.582,1.116,20.225,20.225,0,0,0,2.433.727c.8.192,1.42.364,1.863.516a3.026,3.026,0,0,1,1.106.659,1.47,1.47,0,0,1,.447,1.116,1.737,1.737,0,0,1-.821,1.5,4.433,4.433,0,0,1-2.482.565,7.216,7.216,0,0,1-2.452-.428,5.8,5.8,0,0,1-1.956-1.116l-.708,1.489a6.009,6.009,0,0,0,2.207,1.214,9.063,9.063,0,0,0,2.909.467,7.154,7.154,0,0,0,2.865-.506,3.86,3.86,0,0,0,1.74-1.376,3.4,3.4,0,0,0,.57-1.917,2.925,2.925,0,0,0-.659-2.005A3.984,3.984,0,0,0,205.97,9.712Z" transform="translate(-148.456 -2.945)" fill="#222"/>
        <path id="패스_1874" data-name="패스 1874" d="M226.782,5.314a5.432,5.432,0,0,1,2.693-.668,4.991,4.991,0,0,1,3.76,1.582l1.238-1.2a5.9,5.9,0,0,0-2.216-1.558,7.586,7.586,0,0,0-2.865-.526,7.4,7.4,0,0,0-3.627.89,6.531,6.531,0,0,0-2.541,2.442,6.79,6.79,0,0,0-.914,3.5,6.79,6.79,0,0,0,.914,3.5,6.5,6.5,0,0,0,2.531,2.442,7.4,7.4,0,0,0,3.617.89,7.5,7.5,0,0,0,2.875-.536,5.9,5.9,0,0,0,2.221-1.568l-1.238-1.2a4.975,4.975,0,0,1-3.76,1.6,5.432,5.432,0,0,1-2.693-.668A4.88,4.88,0,0,1,224.9,12.4a5.144,5.144,0,0,1-.678-2.624,5.144,5.144,0,0,1,.678-2.624A4.938,4.938,0,0,1,226.782,5.314Z" transform="translate(-160.865 -2.94)" fill="#222"/>
        <path id="패스_1875" data-name="패스 1875" d="M253.89,3.27l-6.05,13.362h1.966l1.469-3.342h7.1l1.469,3.342h2.005L255.782,3.27Zm-1.946,8.492,2.885-6.546,2.88,6.546Z" transform="translate(-173.848 -3.108)" fill="#222"/>
        <path id="패스_1876" data-name="패스 1876" d="M289.973,3.27v9.962l-8.02-9.962H280.39V16.632H282.3V6.666l8.02,9.967h1.563V3.27Z" transform="translate(-190.401 -3.108)" fill="#222"/>
      </g>
      <g id="그룹_3784" data-name="그룹 3784" transform="translate(47.901 20.076)">
        <g id="그룹_3783" data-name="그룹 3783">
          <path id="패스_1877" data-name="패스 1877" d="M102.458,43.877a2.97,2.97,0,0,1,1.16,1.165,3.71,3.71,0,0,1,0,3.42,2.982,2.982,0,0,1-1.16,1.17,3.273,3.273,0,0,1-1.651.418,3.048,3.048,0,0,1-1.46-.344,2.67,2.67,0,0,1-1.042-1v1.283H97.47V40.85h.875v3.892a2.69,2.69,0,0,1,1.042-.953,3.088,3.088,0,0,1,1.425-.324A3.316,3.316,0,0,1,102.458,43.877Zm-.482,5.086a2.242,2.242,0,0,0,.87-.894,2.915,2.915,0,0,0,0-2.634,2.274,2.274,0,0,0-.87-.894,2.586,2.586,0,0,0-2.472,0,2.219,2.219,0,0,0-.86.894,2.915,2.915,0,0,0,0,2.634,2.251,2.251,0,0,0,.86.894,2.586,2.586,0,0,0,2.472,0Z" transform="translate(-97.47 -40.85)" fill="#222"/>
          <path id="패스_1878" data-name="패스 1878" d="M117.949,46.27l-3.239,7.254a3.073,3.073,0,0,1-.909,1.292,2.033,2.033,0,0,1-1.243.383,2.534,2.534,0,0,1-.875-.147,1.9,1.9,0,0,1-.7-.442l.408-.654a1.611,1.611,0,0,0,1.184.491,1.2,1.2,0,0,0,.757-.246,2.208,2.208,0,0,0,.585-.835l.285-.629L111.3,46.27h.909l2.438,5.5,2.438-5.5Z" transform="translate(-104.341 -43.606)" fill="#222"/>
          <path id="패스_1879" data-name="패스 1879" d="M135.257,49.962a4.1,4.1,0,0,1-1.612-1.573,4.6,4.6,0,0,1,0-4.492,4.126,4.126,0,0,1,1.622-1.573,4.721,4.721,0,0,1,2.315-.565,4.845,4.845,0,0,1,1.774.319,3.7,3.7,0,0,1,1.381.934l-.58.58a3.429,3.429,0,0,0-2.551-1.022,3.751,3.751,0,0,0-1.858.467,3.394,3.394,0,0,0-1.312,1.283,3.566,3.566,0,0,0-.477,1.823,3.518,3.518,0,0,0,.477,1.823,3.428,3.428,0,0,0,1.312,1.283,3.726,3.726,0,0,0,1.858.467,3.382,3.382,0,0,0,2.551-1.037l.58.58a3.7,3.7,0,0,1-1.386.944,4.791,4.791,0,0,1-1.779.324A4.721,4.721,0,0,1,135.257,49.962Z" transform="translate(-115.569 -41.313)" fill="#222"/>
          <path id="패스_1880" data-name="패스 1880" d="M151.967,52.333a3.124,3.124,0,0,1-1.184-1.175,3.559,3.559,0,0,1,0-3.4,3.044,3.044,0,0,1,1.184-1.17,3.61,3.61,0,0,1,3.371,0,2.987,2.987,0,0,1,1.175,1.17,3.372,3.372,0,0,1,.423,1.7,3.423,3.423,0,0,1-.423,1.7,3.032,3.032,0,0,1-1.175,1.175,3.573,3.573,0,0,1-3.371,0Zm2.924-.663a2.207,2.207,0,0,0,.855-.894,2.956,2.956,0,0,0,0-2.634,2.238,2.238,0,0,0-.855-.894,2.6,2.6,0,0,0-2.477,0,2.219,2.219,0,0,0-.86.894,2.915,2.915,0,0,0,0,2.634,2.251,2.251,0,0,0,.86.894,2.6,2.6,0,0,0,2.477,0Z" transform="translate(-124.362 -43.556)" fill="#222"/>
          <path id="패스_1881" data-name="패스 1881" d="M166.7,52.539a3.209,3.209,0,0,1-1.125-.575l.393-.688a3.381,3.381,0,0,0,1.022.526,4,4,0,0,0,1.283.2,2.485,2.485,0,0,0,1.312-.275.88.88,0,0,0,.423-.781.706.706,0,0,0-.236-.56,1.6,1.6,0,0,0-.59-.31,8.252,8.252,0,0,0-.948-.2,10.691,10.691,0,0,1-1.268-.3,1.847,1.847,0,0,1-.821-.526,1.45,1.45,0,0,1-.339-1.022,1.605,1.605,0,0,1,.678-1.332,3.049,3.049,0,0,1,1.882-.516,4.84,4.84,0,0,1,1.258.167,3.559,3.559,0,0,1,1.037.437l-.383.7a3.278,3.278,0,0,0-1.907-.555,2.22,2.22,0,0,0-1.263.295.9.9,0,0,0-.423.776.756.756,0,0,0,.241.59,1.472,1.472,0,0,0,.6.324,9.528,9.528,0,0,0,.988.216,11.28,11.28,0,0,1,1.243.295,1.816,1.816,0,0,1,.8.506,1.389,1.389,0,0,1,.334.988,1.561,1.561,0,0,1-.708,1.347,3.353,3.353,0,0,1-1.966.5A5.137,5.137,0,0,1,166.7,52.539Z" transform="translate(-132.103 -43.561)" fill="#222"/>
          <path id="패스_1882" data-name="패스 1882" d="M189.651,46.878a2.831,2.831,0,0,1,.7,2.069V52.7h-.875V49.03a2.2,2.2,0,0,0-.487-1.538,1.766,1.766,0,0,0-1.371-.531,2.048,2.048,0,0,0-1.587.624,2.413,2.413,0,0,0-.58,1.72v3.4h-.875V49.035a2.2,2.2,0,0,0-.487-1.538,1.785,1.785,0,0,0-1.386-.531,2.058,2.058,0,0,0-1.582.624,2.415,2.415,0,0,0-.585,1.72v3.4h-.875V46.224h.835v1.184a2.323,2.323,0,0,1,.963-.909,3.063,3.063,0,0,1,1.415-.319,2.765,2.765,0,0,1,1.41.344,2.124,2.124,0,0,1,.894,1.022,2.494,2.494,0,0,1,1.027-1,3.184,3.184,0,0,1,1.533-.364A2.55,2.55,0,0,1,189.651,46.878Z" transform="translate(-139.268 -43.561)" fill="#222"/>
          <path id="패스_1883" data-name="패스 1883" d="M206.577,52.333a3.124,3.124,0,0,1-1.184-1.175,3.559,3.559,0,0,1,0-3.4,3.044,3.044,0,0,1,1.184-1.17,3.61,3.61,0,0,1,3.371,0,2.987,2.987,0,0,1,1.175,1.17,3.372,3.372,0,0,1,.423,1.7,3.423,3.423,0,0,1-.423,1.7,3.032,3.032,0,0,1-1.175,1.175,3.342,3.342,0,0,1-1.686.423A3.305,3.305,0,0,1,206.577,52.333Zm2.929-.663a2.207,2.207,0,0,0,.855-.894,2.956,2.956,0,0,0,0-2.634,2.239,2.239,0,0,0-.855-.894,2.6,2.6,0,0,0-2.477,0,2.219,2.219,0,0,0-.86.894,2.915,2.915,0,0,0,0,2.634,2.251,2.251,0,0,0,.86.894,2.418,2.418,0,0,0,1.238.315A2.443,2.443,0,0,0,209.506,51.669Z" transform="translate(-152.135 -43.556)" fill="#222"/>
          <path id="패스_1884" data-name="패스 1884" d="M221.315,52.539a3.209,3.209,0,0,1-1.125-.575l.393-.688a3.381,3.381,0,0,0,1.022.526,4,4,0,0,0,1.283.2,2.485,2.485,0,0,0,1.312-.275.88.88,0,0,0,.423-.781.706.706,0,0,0-.236-.56,1.6,1.6,0,0,0-.59-.31,8.25,8.25,0,0,0-.948-.2,10.69,10.69,0,0,1-1.268-.3,1.847,1.847,0,0,1-.821-.526,1.45,1.45,0,0,1-.339-1.022A1.605,1.605,0,0,1,221.1,46.7a3.049,3.049,0,0,1,1.882-.516,4.84,4.84,0,0,1,1.258.167,3.5,3.5,0,0,1,1.037.437l-.383.7a3.278,3.278,0,0,0-1.907-.555,2.22,2.22,0,0,0-1.263.295A.9.9,0,0,0,221.3,48a.756.756,0,0,0,.241.59,1.472,1.472,0,0,0,.6.324,9.529,9.529,0,0,0,.988.216,11.278,11.278,0,0,1,1.243.295,1.816,1.816,0,0,1,.8.506,1.389,1.389,0,0,1,.334.988,1.561,1.561,0,0,1-.708,1.347,3.353,3.353,0,0,1-1.966.5A5.137,5.137,0,0,1,221.315,52.539Z" transform="translate(-159.88 -43.561)" fill="#222"/>
          <path id="패스_1885" data-name="패스 1885" d="M236.633,50.895a1.664,1.664,0,0,1-.609.339,2.438,2.438,0,0,1-.757.118,1.9,1.9,0,0,1-1.406-.491,1.877,1.877,0,0,1-.491-1.391V45.553h-1.16v-.737h1.16V43.4h.875v1.415h1.971v.737h-1.971V49.42a1.224,1.224,0,0,0,.29.88,1.1,1.1,0,0,0,.831.3,1.6,1.6,0,0,0,.526-.088,1.312,1.312,0,0,0,.437-.246Z" transform="translate(-165.993 -42.147)" fill="#222"/>
          <path id="패스_1886" data-name="패스 1886" d="M248.1,46.8a2.445,2.445,0,0,1,.678,1.877V52.7h-.835V51.689a1.967,1.967,0,0,1-.87.786,3.073,3.073,0,0,1-1.361.285,2.673,2.673,0,0,1-1.725-.516,1.78,1.78,0,0,1-.039-2.7,2.935,2.935,0,0,1,1.9-.506h2.059v-.393a1.659,1.659,0,0,0-.467-1.273,1.933,1.933,0,0,0-1.366-.437,3.548,3.548,0,0,0-1.184.2,3.044,3.044,0,0,0-.973.56l-.393-.654a3.488,3.488,0,0,1,1.184-.649,4.6,4.6,0,0,1,1.455-.226A2.736,2.736,0,0,1,248.1,46.8Zm-.988,4.929a2.008,2.008,0,0,0,.786-.978V49.694h-2.035c-1.111,0-1.661.388-1.661,1.16a1.06,1.06,0,0,0,.432.894,1.966,1.966,0,0,0,1.209.324A2.3,2.3,0,0,0,247.114,51.733Z" transform="translate(-171.658 -43.556)" fill="#222"/>
          <path id="패스_1887" data-name="패스 1887" d="M261.6,50.895a1.664,1.664,0,0,1-.609.339,2.438,2.438,0,0,1-.757.118,1.9,1.9,0,0,1-1.406-.491,1.877,1.877,0,0,1-.491-1.391V45.553h-1.16v-.737h1.16V43.4h.875v1.415h1.971v.737h-1.971V49.42a1.224,1.224,0,0,0,.29.88,1.1,1.1,0,0,0,.831.3,1.6,1.6,0,0,0,.526-.088,1.312,1.312,0,0,0,.437-.246Z" transform="translate(-178.691 -42.147)" fill="#222"/>
          <path id="패스_1888" data-name="패스 1888" d="M269.2,41.912a.606.606,0,0,1-.187-.442.581.581,0,0,1,.187-.432.623.623,0,0,1,.457-.187.634.634,0,0,1,.457.177.571.571,0,0,1,.187.423.638.638,0,0,1-.644.644A.6.6,0,0,1,269.2,41.912Zm.01,1.6h.875v6.477h-.875Z" transform="translate(-184.707 -40.85)" fill="#222"/>
          <path id="패스_1889" data-name="패스 1889" d="M276.437,52.333a3.125,3.125,0,0,1-1.184-1.175,3.559,3.559,0,0,1,0-3.4,3.044,3.044,0,0,1,1.184-1.17,3.61,3.61,0,0,1,3.371,0,2.987,2.987,0,0,1,1.175,1.17,3.372,3.372,0,0,1,.423,1.7,3.423,3.423,0,0,1-.423,1.7,3.032,3.032,0,0,1-1.175,1.175,3.573,3.573,0,0,1-3.371,0Zm2.924-.663a2.208,2.208,0,0,0,.855-.894,2.956,2.956,0,0,0,0-2.634,2.239,2.239,0,0,0-.855-.894,2.6,2.6,0,0,0-2.477,0,2.219,2.219,0,0,0-.86.894,2.915,2.915,0,0,0,0,2.634,2.251,2.251,0,0,0,.86.894,2.6,2.6,0,0,0,2.477,0Z" transform="translate(-187.662 -43.556)" fill="#222"/>
          <path id="패스_1890" data-name="패스 1890" d="M297.109,46.878a2.762,2.762,0,0,1,.722,2.064V52.7h-.875V49.025a2.135,2.135,0,0,0-.506-1.538,1.9,1.9,0,0,0-1.44-.531,2.2,2.2,0,0,0-1.656.624,2.342,2.342,0,0,0-.609,1.72v3.4h-.875V46.219h.835v1.194a2.458,2.458,0,0,1,.993-.919,3.188,3.188,0,0,1,1.469-.324A2.641,2.641,0,0,1,297.109,46.878Z" transform="translate(-196.333 -43.556)" fill="#222"/>
        </g>
      </g>
    </g>
    <rect id="사각형_1898" data-name="사각형 1898" width="150" height="34" transform="translate(360.8 19.5)" fill="none"/>
  </g>
</svg>
