<svg xmlns="http://www.w3.org/2000/svg" width="22" height="22" fill="none" viewBox="0 0 22 22">
    <path fill="#fff" d="M10.97 19.94c4.954 0 8.97-4.016 8.97-8.97 0-4.954-4.016-8.97-8.97-8.97C6.016 2 2 6.016 2 10.97c0 4.954 4.016 8.97 8.97 8.97z"/>
    <path fill="#5E12A0" d="M10.966 21c-1.97 0-3.898-.584-5.537-1.68-1.639-1.094-2.916-2.65-3.67-4.472-.755-1.821-.952-3.825-.567-5.758.384-1.934 1.333-3.71 2.727-5.103.922-.94 2.022-1.688 3.235-2.2 1.212-.513 2.515-.78 3.832-.787 1.316-.006 2.621.249 3.84.75 1.217.5 2.323 1.238 3.255 2.169.93.931 1.668 2.037 2.17 3.255.5 1.218.755 2.523.749 3.84-.006 1.316-.273 2.619-.786 3.832-.512 1.213-1.26 2.312-2.2 3.234-.923.929-2.022 1.665-3.231 2.166-1.21.502-2.507.758-3.816.755zm0-18.51c-1.689 0-3.34.502-4.745 1.44-1.405.939-2.5 2.273-3.147 3.834-.646 1.56-.815 3.278-.486 4.935.33 1.657 1.143 3.18 2.338 4.374 1.194 1.195 2.716 2.008 4.373 2.338 1.657.33 3.375.16 4.936-.486 1.56-.646 2.895-1.74 3.834-3.146.939-1.404 1.44-3.056 1.44-4.745-.003-2.265-.903-4.437-2.505-6.038-1.601-1.602-3.773-2.503-6.038-2.505z"/>
    <path fill="#fff" stroke="#fff" stroke-width=".1" d="M10.285 20.975v-1.434c.236.02.474.029.715.029.24 0 .479-.01.714-.029v1.434c-.237.017-.475.025-.714.025-.24 0-.478-.008-.715-.025zm6.247-3.434c.364-.308.701-.646 1.009-1.01l1.016 1.017c-.155.18-.318.353-.487.522-.17.169-.343.331-.522.487l-1.016-1.016zm-12.6.529c-.17-.17-.332-.343-.488-.522l1.016-1.017c.308.364.646.702 1.01 1.01l-1.018 1.016c-.18-.155-.354-.317-.523-.487h.003zm15.612-6.356c.02-.236.03-.474.03-.715s-.01-.478-.029-.714h1.434c.014.236.021.474.021.715 0 .24-.008.479-.025.715l-1.431-.001zm-18.516 0C1.009 11.477 1 11.239 1 11c0-.24.008-.477.025-.714h1.434c-.02.236-.029.474-.029.714 0 .241.01.479.03.715l-1.432-.001zm2.414-7.262c.155-.18.318-.353.488-.522.17-.169.344-.331.523-.488l1.015 1.015c-.364.308-.702.646-1.01 1.01L3.442 4.452zm13.09.006l1.016-1.016c.179.156.353.319.523.488.17.17.332.343.487.522l-1.016 1.015c-.308-.364-.646-.701-1.01-1.009v0zm-6.247-3.433C10.522 1.008 10.76 1 11 1s.478.008.714.025v1.432c-.235-.02-.473-.029-.714-.029-.24 0-.479.01-.715.03V1.025z" opacity=".3"/>
    <path fill="#5E12A0" d="M16.324 6.968c-.119-.45-.5-.899-1.187-1.399-.552-.399-1.137-.628-1.603-.628-.094 0-.178.009-.263.026-.212.042-.399.195-.518.424-.144.271-.178.636-.084.856.034.068.076.153.127.23-.45.27-.704.347-.738.356 1.17.39 2.146 1.204 2.756 2.264l.009-.102c.025-.28.11-.602.229-.933.119.034.237.051.356.051.314 0 .585-.127.755-.356.17-.229.237-.534.16-.789z"/>
    <path fill="url(#paint0_radial)" d="M15.1 7.823c.772.212 1.086-.382.984-.78-.11-.4-.467-.806-1.094-1.264-.628-.458-1.264-.645-1.671-.56-.407.085-.526.704-.424.941.042.094.136.23.263.382-.161.11-.314.195-.441.271.78.348 1.458.891 1.967 1.57.06-.23.145-.433.22-.611.06.008.128.025.196.05z"/>
    <path fill="url(#paint1_radial)" d="M10.681 16.132c2.619 0 4.741-2.123 4.741-4.741 0-2.618-2.123-4.74-4.74-4.74-2.619 0-4.742 2.122-4.742 4.74 0 2.618 2.123 4.74 4.741 4.74z"/>
    <path fill="#A98698" d="M15.697 6.652c-.645-.678-1.188-.856-1.84-1-.51-.12-.374-.408.245-.348-.296-.102-.576-.128-.78-.085-.407.085-.526.704-.424.941.042.094.136.23.263.382-.229.152-.424.263-.585.348.076.034.17.076.28.135.288.153.602.407.602.407-.475-.407-.373-.593.28-1.051.203-.144.576-.128.924.05.348.179.755.628.755.628l-.39.747.076.025c.246.068.441.05.594-.009.178-.11.644-.483 0-1.17z" opacity=".6"/>
    <path fill="#5E12A0" d="M13.844 6.06c.17.069.39.187.661.365.323.212.603.45.78.636-.296.39-.491.925-.61 1.298.06.085.127.17.186.255.06-.213.162-.526.297-.84.034.008.077.008.12.008.1 0 .22-.017.313-.093.068-.051.144-.144.136-.314 0-.161-.128-.364-.39-.61-.187-.179-.441-.374-.696-.552-.73-.483-1.238-.619-1.467-.39-.153.153-.136.34-.085.475-.271.178-.5.305-.653.39.102.034.195.077.297.119.271-.144.661-.39 1.11-.746h.001zm1.603 1.213c.025.043.034.085.034.11 0 .077-.026.102-.043.12-.034.025-.102.042-.16.042.05-.102.11-.187.169-.272zM13.352 6.01c.026-.026.093-.043.204-.026-.085.068-.17.128-.255.187-.008-.06 0-.119.051-.161z"/>
    <path fill="#5E12A0" d="M10.682 6.371c-2.774 0-5.02 2.248-5.02 5.02 0 2.774 2.247 5.021 5.02 5.021 2.773 0 5.02-2.247 5.02-5.02 0-2.773-2.255-5.02-5.02-5.02zm0 9.762c-2.62 0-4.741-2.12-4.741-4.741 0-2.62 2.12-4.741 4.74-4.741 2.621 0 4.742 2.12 4.742 4.74 0 2.621-2.13 4.742-4.741 4.742z"/>
    <path fill="url(#paint2_linear)" d="M10.681 16.132c2.619 0 4.741-2.123 4.741-4.741 0-2.618-2.123-4.74-4.74-4.74-2.619 0-4.742 2.122-4.742 4.74 0 2.618 2.123 4.74 4.741 4.74z" opacity=".6"/>
    <path fill="#A98698" d="M10.649 15.555c-2.587-.415-4.342-2.85-3.918-5.436.186-1.145.763-2.12 1.577-2.824-1.187.687-2.07 1.883-2.307 3.341-.415 2.587 1.34 5.021 3.918 5.437 1.442.237 2.833-.212 3.86-1.094-.908.525-2.01.754-3.13.576z" opacity=".6"/>
    <path fill="url(#paint3_linear)" d="M11.436 6.723c-1.196-.195-2.358.076-3.308.678l-.034.034c.365-.22.9-.416.9-.416-1.375.798-1.799 1.705-1.799 1.705C7.73 7.69 9.298 6.96 10.528 6.91c1.23-.05 2.036.314 3.02 1.103.983.797 1.577 2.425 1.518 3.714-.051 1.29-.73 2.333-.73 2.333.467-.603.746-1.043.925-1.493.034-.136.067-.271.084-.416.424-2.578-1.323-5.012-3.91-5.427z" opacity=".6"/>
    <path fill="url(#paint4_linear)" d="M15.189 11.344c0 2.485-2.018 4.503-4.503 4.503-2.485 0-4.512-2.018-4.512-4.503h9.015z"/>
    <path fill="url(#paint5_linear)" d="M14.827 11.344c0 2.425-1.917 4.41-4.325 4.503h.178c2.485 0 4.503-2.018 4.503-4.503h-.356z" opacity=".6"/>
    <path fill="url(#paint6_linear)" d="M6.808 11.344h-.636c0 2.485 2.018 4.503 4.503 4.503.11 0 .212 0 .314-.008-2.332-.17-4.18-2.12-4.18-4.495z" opacity=".7"/>
    <path fill="url(#paint7_linear)" d="M15.18 11.39c0-.516-.899-.813-2.095-.915-.865-.068-1.738.017-2.74.322-.864.255-1.644.212-2.213.144-1.263-.144-1.959-.16-1.959.45 0 .882 1.798 1.984 4.495 1.603 1.366-.195 2.07-.594 2.875-.865.874-.289 1.637-.28 1.637-.738z"/>
    <path fill="#fff" d="M12.16 9.255c.422 0 .764-.342.764-.763 0-.422-.342-.763-.763-.763-.422 0-.763.341-.763.763 0 .421.341.763.763.763zm1.248.568c.178 0 .322-.144.322-.322 0-.178-.145-.322-.322-.322-.178 0-.323.144-.323.322 0 .178.145.322.322.322z"/>
    <path fill="url(#paint8_linear)" d="M14.561 7.877h-.017c-.05-.008-.084-.059-.076-.118.076-.39.399-.764.416-.78.034-.043.101-.043.135-.01.043.035.043.103.009.137-.009.008-.305.356-.373.695-.009.05-.051.076-.094.076z" opacity=".6"/>
    <path fill="#fff" d="M13.531 4.945c.475 0 1.06.229 1.603.628.687.5 1.069.94 1.188 1.399.067.263.008.56-.162.78-.178.23-.44.356-.754.356-.11 0-.23-.017-.357-.05-.076.195-.135.39-.178.576.518.789.823 1.739.823 2.756 0 2.774-2.248 5.021-5.02 5.021-2.774 0-5.013-2.247-5.013-5.02 0-2.774 2.248-5.021 5.02-5.021.611 0 1.197.11 1.74.314.101-.051.228-.12.373-.204-.051-.076-.102-.153-.128-.229-.093-.229-.06-.585.085-.857.119-.22.297-.373.517-.424.077-.017.17-.025.263-.025zm0-.144c-.101 0-.203.008-.296.034-.255.06-.475.229-.62.5-.16.314-.203.72-.093.984.017.034.034.076.06.119-.06.034-.12.067-.179.093-.56-.195-1.136-.297-1.73-.297-.695 0-1.374.136-2.01.407-.619.263-1.17.636-1.645 1.111-.475.475-.848 1.026-1.11 1.645-.272.636-.408 1.315-.408 2.01 0 .696.136 1.374.407 2.01.263.62.636 1.17 1.111 1.646.475.475 1.026.848 1.645 1.11.636.272 1.315.408 2.01.408.696 0 1.374-.136 2.01-.407.62-.263 1.17-.636 1.646-1.111.474-.475.848-1.027 1.11-1.646.272-.636.408-1.314.408-2.01 0-.992-.28-1.95-.815-2.781.026-.128.068-.255.11-.382.086.017.179.025.264.025.356 0 .67-.144.873-.415.195-.255.271-.61.187-.908-.136-.491-.526-.958-1.247-1.475-.568-.433-1.187-.67-1.688-.67z"/>
    <path fill="#fff" d="M10.367 14.932c.131 0 .238-.107.238-.238 0-.13-.107-.237-.238-.237-.13 0-.237.106-.237.237 0 .132.106.238.237.238z" opacity=".2"/>
    <g opacity=".4">
        <path fill="url(#paint9_linear)" d="M10.233 14.839c-.094-.094-.094-.246 0-.34.017-.017.034-.025.05-.042-.033.009-.059.025-.084.05-.093.094-.093.247 0 .34.076.077.195.093.288.043-.085.034-.186.016-.254-.051z" opacity=".6"/>
    </g>
    <path fill="#fff" d="M10.455 14.625c.028 0 .05-.023.05-.05 0-.029-.022-.052-.05-.052-.028 0-.051.023-.051.051 0 .028.023.051.05.051z" opacity=".3"/>
    <path fill="#fff" d="M11.609 14.803c.13 0 .237-.106.237-.237 0-.132-.106-.238-.237-.238-.132 0-.238.107-.238.238 0 .13.106.237.237.237z" opacity=".2"/>
    <g opacity=".4">
        <path fill="url(#paint10_linear)" d="M11.471 14.725c-.093-.093-.093-.246 0-.339.017-.017.034-.025.051-.042-.034.008-.06.025-.085.05-.093.094-.093.247 0 .34.077.076.195.093.289.042-.085.034-.187.017-.255-.05z" opacity=".6"/>
    </g>
    <path fill="#fff" d="M11.688 14.5c.028 0 .05-.023.05-.05 0-.029-.022-.052-.05-.052-.029 0-.051.023-.051.051 0 .028.022.051.05.051z" opacity=".3"/>
    <path fill="#fff" d="M10.995 15.356c.098 0 .178-.08.178-.178 0-.098-.08-.178-.178-.178-.099 0-.179.08-.179.178 0 .098.08.178.178.178z" opacity=".2"/>
    <g opacity=".4">
        <path fill="url(#paint11_linear)" d="M10.894 15.296c-.068-.068-.068-.187 0-.255.008-.008.025-.017.034-.025-.026.008-.043.025-.06.042-.068.068-.068.187 0 .255.06.059.144.067.22.025-.067.025-.143.008-.194-.042z" opacity=".6"/>
    </g>
    <path fill="#fff" d="M11.053 15.127c.02 0 .034-.016.034-.034 0-.02-.015-.034-.034-.034-.018 0-.034.015-.034.034 0 .018.016.034.034.034z" opacity=".3"/>
    <path fill="#fff" d="M12.091 15.231c.099 0 .178-.08.178-.178 0-.098-.08-.178-.178-.178-.098 0-.178.08-.178.178 0 .098.08.178.178.178z" opacity=".2"/>
    <g opacity=".4">
        <path fill="url(#paint12_linear)" d="M11.99 15.167c-.067-.068-.067-.187 0-.255.009-.008.026-.017.034-.025-.025.008-.042.025-.06.042-.067.068-.067.187 0 .255.06.059.145.067.221.025-.067.025-.144.008-.195-.042z" opacity=".6"/>
    </g>
    <path fill="#fff" d="M12.147 14.998c.019 0 .034-.016.034-.034 0-.02-.015-.034-.034-.034-.018 0-.034.015-.034.034 0 .018.016.034.034.034z" opacity=".3"/>
    <path fill="#fff" d="M9.36 14.843c.215 0 .39-.175.39-.39 0-.216-.175-.39-.39-.39-.216 0-.39.174-.39.39 0 .215.174.39.39.39z" opacity=".2"/>
    <g opacity=".4">
        <path fill="url(#paint13_linear)" d="M9.135 14.702c-.153-.152-.153-.398 0-.55.025-.026.05-.043.085-.06-.05.017-.093.05-.136.085-.152.152-.152.398 0 .55.127.128.322.154.475.06-.144.06-.314.034-.424-.085z" opacity=".6"/>
    </g>
    <path fill="#fff" d="M9.493 14.33c.047 0 .085-.038.085-.085 0-.047-.038-.085-.085-.085-.047 0-.085.038-.085.085 0 .047.038.085.085.085z" opacity=".3"/>
    <path fill="#fff" d="M12.84 13.886c.216 0 .39-.175.39-.39 0-.216-.174-.39-.39-.39-.215 0-.39.174-.39.39 0 .215.175.39.39.39z" opacity=".2"/>
    <g opacity=".4">
        <path fill="url(#paint14_linear)" d="M12.615 13.736c-.153-.153-.153-.399 0-.552.025-.025.05-.042.084-.059-.05.017-.093.05-.135.085-.153.152-.153.398 0 .551.127.127.322.153.475.06-.144.059-.306.033-.424-.085z" opacity=".6"/>
    </g>
    <path fill="#fff" d="M12.984 13.379c.047 0 .085-.038.085-.085 0-.047-.038-.085-.085-.085-.047 0-.085.038-.085.085 0 .047.038.085.085.085z" opacity=".3"/>
    <defs>
        <linearGradient id="paint2_linear" x1="9.921" x2="11.437" y1="16.065" y2="6.71" gradientUnits="userSpaceOnUse">
            <stop stop-color="#81FFFF"/>
            <stop offset=".62" stop-color="#fff" stop-opacity="0"/>
        </linearGradient>
        <linearGradient id="paint3_linear" x1="14.022" x2="10.102" y1="8.176" y2="11.773" gradientUnits="userSpaceOnUse">
            <stop offset=".289" stop-color="#fff"/>
            <stop offset=".78" stop-color="#fff" stop-opacity="0"/>
        </linearGradient>
        <linearGradient id="paint4_linear" x1="6.178" x2="15.187" y1="13.593" y2="13.593" gradientUnits="userSpaceOnUse">
            <stop stop-color="#0002E9"/>
            <stop offset=".995" stop-color="#FF00C7"/>
        </linearGradient>
        <linearGradient id="paint5_linear" x1="15.608" x2="10.704" y1="11.739" y2="16.373" gradientUnits="userSpaceOnUse">
            <stop offset=".289" stop-color="#fff"/>
            <stop offset=".78" stop-color="#fff" stop-opacity="0"/>
        </linearGradient>
        <linearGradient id="paint6_linear" x1="6.176" x2="10.996" y1="13.593" y2="13.593" gradientUnits="userSpaceOnUse">
            <stop stop-color="#000292"/>
            <stop offset=".995" stop-color="#7D00C7"/>
        </linearGradient>
        <linearGradient id="paint7_linear" x1="6.183" x2="15.18" y1="11.765" y2="11.765" gradientUnits="userSpaceOnUse">
            <stop stop-color="#000292"/>
            <stop offset=".995" stop-color="#BE00C7"/>
        </linearGradient>
        <linearGradient id="paint8_linear" x1="15.033" x2="14.386" y1="6.937" y2="7.988" gradientUnits="userSpaceOnUse">
            <stop offset=".289" stop-color="#fff"/>
            <stop offset=".78" stop-color="#fff" stop-opacity="0"/>
        </linearGradient>
        <linearGradient id="paint9_linear" x1="10.129" x2="10.488" y1="14.693" y2="14.693" gradientUnits="userSpaceOnUse">
            <stop offset=".289" stop-color="#fff"/>
            <stop offset=".78" stop-color="#fff" stop-opacity="0"/>
        </linearGradient>
        <linearGradient id="paint10_linear" x1="11.366" x2="11.725" y1="14.578" y2="14.578" gradientUnits="userSpaceOnUse">
            <stop offset=".289" stop-color="#fff"/>
            <stop offset=".78" stop-color="#fff" stop-opacity="0"/>
        </linearGradient>
        <linearGradient id="paint11_linear" x1="10.816" x2="11.086" y1="15.187" y2="15.187" gradientUnits="userSpaceOnUse">
            <stop offset=".289" stop-color="#fff"/>
            <stop offset=".78" stop-color="#fff" stop-opacity="0"/>
        </linearGradient>
        <linearGradient id="paint12_linear" x1="11.909" x2="12.179" y1="15.058" y2="15.058" gradientUnits="userSpaceOnUse">
            <stop offset=".289" stop-color="#fff"/>
            <stop offset=".78" stop-color="#fff" stop-opacity="0"/>
        </linearGradient>
        <linearGradient id="paint13_linear" x1="8.966" x2="9.552" y1="14.466" y2="14.466" gradientUnits="userSpaceOnUse">
            <stop offset=".289" stop-color="#fff"/>
            <stop offset=".78" stop-color="#fff" stop-opacity="0"/>
        </linearGradient>
        <linearGradient id="paint14_linear" x1="12.449" x2="13.035" y1="13.499" y2="13.499" gradientUnits="userSpaceOnUse">
            <stop offset=".289" stop-color="#fff"/>
            <stop offset=".78" stop-color="#fff" stop-opacity="0"/>
        </linearGradient>
        <radialGradient id="paint0_radial" cx="0" cy="0" r="1" gradientTransform="translate(15.929 6.50817) scale(3.79046)" gradientUnits="userSpaceOnUse">
            <stop stop-color="#FFEAFF" stop-opacity=".6"/>
            <stop offset=".681" stop-color="#A087C9"/>
            <stop offset="1" stop-color="#10002F"/>
        </radialGradient>
        <radialGradient id="paint1_radial" cx="0" cy="0" r="1" gradientTransform="translate(13.8201 8.1227) scale(9.27389)" gradientUnits="userSpaceOnUse">
            <stop stop-color="#FFEAFF" stop-opacity=".6"/>
            <stop offset=".681" stop-color="#A087C9"/>
            <stop offset="1" stop-color="#10002F"/>
        </radialGradient>
    </defs>
</svg>
