<svg xmlns="http://www.w3.org/2000/svg" width="20.001" height="20" viewBox="0 0 20.001 20">
    <circle cx="9" cy="9" r="9" fill="#fff" transform="translate(1 1)"/>
    <g>
        <path fill="#032d74" d="M10 20A10 10 0 0 1 2.929 2.929 10 10 0 1 1 17.071 17.07 9.934 9.934 0 0 1 10 20zm0-18.572A8.571 8.571 0 1 0 18.571 10 8.581 8.581 0 0 0 10 1.428z" transform="translate(0 .236) translate(0 -.235)"/>
        <path fill="#fff" d="M9.285 19.975v-1.434q.354.029.715.029t.714-.029v1.434Q10.359 20 10 20t-.715-.025zm6.247-3.434a8.647 8.647 0 0 0 1.009-1.01l1.016 1.017q-.233.269-.487.522t-.522.487zm-12.6.529q-.254-.254-.488-.522l1.016-1.017a8.652 8.652 0 0 0 1.01 1.01l-1.018 1.016q-.269-.232-.523-.487zm15.612-6.356c.02-.236.03-.474.03-.715s-.01-.478-.029-.714h1.434Q20 9.639 20 10t-.025.715zm-18.516 0Q0 10.359 0 10t.025-.714h1.434Q1.43 9.64 1.43 10c0 .241.01.479.03.715zm2.414-7.262q.233-.269.488-.522t.523-.488l1.015 1.015a8.688 8.688 0 0 0-1.01 1.01zm13.09.006l1.016-1.016q.268.234.523.488t.487.522l-1.016 1.015a8.646 8.646 0 0 0-1.01-1.009zM9.285.025Q9.64 0 10 0t.714.025v1.432q-.353-.029-.714-.029t-.715.03z" opacity="0.41" transform="translate(0 .236) translate(0 -.235)"/>
    </g>
    <path fill="#03316c" d="M28.371 275.183h-.834l-1-.916v-.47l1.033-.986v-1.561l1.35-.88 1.538 1.162zm-3.451-2.465l.153-1.467-.5-1.315h2.982l-.493 1.315.141 1.467h-2.284zm.681 1.55l-1 .927h-.845l-2.1-3.663 1.55-1.15 1.362.869v1.561l1.033.986v.47zm-1.855-7.044h4.614l.552 2.348h-5.707zm2.313-2.923l-5.859 3.38v6.762l5.858 3.381 5.858-3.381v-6.762z" transform="translate(-16.175 -260.944)"/>
</svg>
