<svg width="20" height="20" fill="none" xmlns="http://www.w3.org/2000/svg">
    <g clip-path="url(#a)">
        <path d="M10 18.955a8.955 8.955 0 1 0 0-17.91 8.955 8.955 0 0 0 0 17.91z" fill="#fff"/>
        <path d="M10 19.95A9.95 9.95 0 0 1 2.966 2.964a9.95 9.95 0 1 1 14.072 14.07A9.883 9.883 0 0 1 10 19.95zm0-18.48A8.528 8.528 0 1 0 18.53 10 8.539 8.539 0 0 0 10 1.47z" fill="#E1AA4C"/>
        <path opacity=".41" d="M9.29 19.926V18.5a8.682 8.682 0 0 0 1.421 0v1.426a10.101 10.101 0 0 1-1.421 0zm6.216-3.416a8.608 8.608 0 0 0 1.003-1.006l1.011 1.013a9.71 9.71 0 0 1-.484.519c-.169.168-.342.33-.52.484l-1.01-1.01zm-12.538.526c-.168-.169-.33-.342-.485-.52l1.01-1.011c.307.362.643.698 1.006 1.004L3.486 17.52a9.415 9.415 0 0 1-.52-.484h.002zm15.535-6.325a8.417 8.417 0 0 0 0-1.421h1.427c.014.234.021.472.021.711 0 .24-.008.477-.025.712l-1.423-.002zm-18.424 0a9.032 9.032 0 0 1-.028-.71c0-.238.008-.475.025-.71h1.427a8.701 8.701 0 0 0 0 1.421H.08zM2.48 3.486c.154-.179.316-.352.485-.52.17-.168.343-.33.52-.485l1.01 1.01a8.644 8.644 0 0 0-1.004 1.005L2.48 3.486zm13.024.006 1.011-1.011c.178.155.352.317.52.485.17.169.331.342.485.52l-1.01 1.01a8.607 8.607 0 0 0-1.005-1.004zM9.29.076a10.124 10.124 0 0 1 1.421 0V1.5a8.678 8.678 0 0 0-1.421 0V.077z" fill="#fff" stroke="#fff" stroke-width=".1"/>
        <path d="m14.441 6.673.058.348c.046.324.068.652.066.98 0 .722-.088 1.443-.26 2.145a8.044 8.044 0 0 1-1.2 2.666 8.308 8.308 0 0 1-2.939 2.574l-.167.09-.166-.09a8.308 8.308 0 0 1-2.939-2.574 8.05 8.05 0 0 1-1.197-2.666A9.034 9.034 0 0 1 5.437 8c-.002-.327.02-.655.066-.979l.058-.348a.219.219 0 1 0-.432-.072l-.063.349c-.048.347-.07.698-.065 1.05 0 .759.091 1.515.272 2.252a8.488 8.488 0 0 0 1.263 2.81 8.751 8.751 0 0 0 3.09 2.71l.27.145a.217.217 0 0 0 .207 0l.27-.146a8.755 8.755 0 0 0 3.093-2.71 8.488 8.488 0 0 0 1.261-2.809c.18-.736.272-1.492.273-2.25a6.906 6.906 0 0 0-.07-1.05l-.057-.349a.219.219 0 0 0-.432.072v-.002z" fill="#000"/>
        <path d="m6.753 6.44 3.245-.993L13.32 6.46a.219.219 0 1 0 .128-.418l-3.384-1.033a.218.218 0 0 0-.127 0L6.627 6.02a.219.219 0 1 0 .126.419z" fill="#000"/>
        <path d="m5.15 6.74 4.659 9.087a.218.218 0 0 0 .387.004l2.838-5.313.005-.008 1.817-3.777a.218.218 0 0 0-.101-.294.218.218 0 0 0-.293.104l-1.816 3.771-2.641 4.94-4.466-8.713a.219.219 0 1 0-.39.197v.002z" fill="#000"/>
        <path d="M7.377 10.787h5.178a.219.219 0 0 0 0-.437H7.377a.218.218 0 1 0 0 .437z" fill="#000"/>
    </g>
    <defs>
        <clipPath id="a">
            <path fill="#fff" d="M0 0h20v20H0z"/>
        </clipPath>
    </defs>
</svg>
