<svg width="21" height="21" fill="none" xmlns="http://www.w3.org/2000/svg">
    <path d="M10.966 19.004a8.97 8.97 0 1 0 0-17.94 8.97 8.97 0 1 0 0 17.94z" fill="#fff"/>
    <path d="M10.966 20A9.968 9.968 0 0 1 3.92 2.986 9.967 9.967 0 1 1 18.014 17.08 9.902 9.902 0 0 1 10.967 20zm0-18.51a8.543 8.543 0 1 0 8.543 8.543 8.552 8.552 0 0 0-8.543-8.543z" fill="#86CCBA"/>
    <path opacity=".41" d="M10.254 19.976v-1.43a8.71 8.71 0 0 0 1.424 0v1.43a10.134 10.134 0 0 1-1.424 0zm6.226-3.423a8.612 8.612 0 0 0 1.006-1.006l1.012 1.013a9.702 9.702 0 0 1-.485.52c-.169.169-.342.33-.52.486l-1.013-1.013zm-12.558.528c-.169-.17-.33-.343-.486-.52l1.012-1.014c.308.362.644.7 1.007 1.006L4.44 17.566a9.441 9.441 0 0 1-.52-.485h.002zm15.56-6.335a8.401 8.401 0 0 0 .001-1.424h1.43c.013.235.02.473.02.713s-.008.477-.025.712h-1.426zm-18.454 0A9.041 9.041 0 0 1 1 10.034c0-.238.008-.475.025-.711h1.43a8.71 8.71 0 0 0 0 1.424H1.028zM3.434 3.51c.155-.179.317-.352.486-.52.17-.169.343-.33.521-.487l1.012 1.012c-.363.307-.7.644-1.007 1.006L3.434 3.51zm13.046.006 1.013-1.013c.178.156.352.318.521.486.17.17.331.343.485.52L17.487 4.52a8.613 8.613 0 0 0-1.007-1.005zM10.254.093a10.142 10.142 0 0 1 1.424 0V1.52a8.686 8.686 0 0 0-1.424.001V.093z" fill="#fff" stroke="#fff" stroke-width=".1"/>
    <g clip-path="url(#a)" fill="#00282D">
        <path d="M11.029 7.451c-1.212 0-2.168.797-2.423 1.944H7.555v.829h.988a2.47 2.47 0 0 0 2.486 2.262c.988 0 1.816-.382 2.167-1.051l-.893-.574c-.223.383-.733.606-1.274.606-.765 0-1.307-.478-1.435-1.243h4.462l.287-.829h-1.02c-.16-1.115-1.115-1.944-2.294-1.944zm-1.37 1.944c.19-.637.636-1.02 1.306-1.02s1.147.415 1.21 1.02H9.659zM9.415 15.357l-.32 1.102a6.692 6.692 0 0 1-4.556-8.297l1.102.32a5.55 5.55 0 0 0 3.774 6.875zm3.421-11.75-.32 1.102a5.55 5.55 0 0 1 3.774 6.874l1.101.32a6.692 6.692 0 0 0-4.555-8.296z"/>
    </g>
    <defs>
        <clipPath id="a">
            <path fill="#fff" transform="translate(3.953 3.021)" d="M0 0h14.023v14.022H0z"/>
        </clipPath>
    </defs>
</svg>
