<svg xmlns="http://www.w3.org/2000/svg" width="22" height="22" fill="none" viewBox="0 0 22 22">
    <path fill="#fff" d="M11.056 19.56c4.748 0 8.598-3.85 8.598-8.597 0-4.749-3.85-8.598-8.598-8.598-4.748 0-8.597 3.85-8.597 8.598 0 4.748 3.85 8.597 8.597 8.597z"/>
    <path fill="#4C4FF2" d="M11 21c-1.978 0-3.911-.587-5.556-1.686-1.644-1.099-2.926-2.66-3.683-4.488C1.004 13 .806 10.99 1.192 9.05s1.339-3.722 2.737-5.12C5.804 2.054 8.348 1 11 1s5.196 1.054 7.07 2.929C19.947 5.804 21 8.348 21 10.999c0 2.653-1.054 5.196-2.93 7.072-.925.931-2.027 1.67-3.241 2.172-1.214.503-2.515.76-3.829.756zm0-18.571c-1.695 0-3.352.503-4.762 1.444-1.41.942-2.508 2.28-3.156 3.847-.65 1.566-.819 3.29-.488 4.952.33 1.662 1.147 3.19 2.346 4.388 1.198 1.199 2.725 2.015 4.388 2.346 1.663.33 3.386.16 4.952-.488 1.566-.648 2.905-1.747 3.846-3.156.942-1.41 1.445-3.067 1.445-4.762-.003-2.273-.906-4.451-2.513-6.058C15.45 3.335 13.272 2.432 11 2.429z"/>
    <path fill="#fff" stroke="#fff" stroke-width=".1" d="M10.287 20.974V19.54c.238.02.476.03.714.03s.476-.01.715-.03v1.434c-.239.017-.477.025-.715.025s-.476-.009-.714-.025zm6.247-3.434c.363-.308.701-.645 1.009-1.009l1.016 1.016c-.155.18-.317.354-.487.523-.17.168-.343.33-.522.486l-1.016-1.016zm-12.604.53c-.17-.17-.332-.344-.488-.523l1.017-1.016c.308.364.646.701 1.01 1.01l-1.016 1.016c-.179-.156-.353-.318-.523-.487zm15.612-6.357c.02-.238.03-.476.03-.714 0-.24-.01-.478-.03-.714h1.434c.017.236.025.475.025.714 0 .24-.008.479-.025.714h-1.434zm-18.515 0c-.017-.238-.025-.476-.025-.714s.009-.477.025-.714H2.46c-.019.236-.029.474-.029.714 0 .241.01.48.03.714H1.026zm2.416-7.262c.156-.178.318-.353.488-.522.17-.168.344-.332.523-.488l1.015 1.016c-.363.308-.701.646-1.01 1.01L3.444 4.452zm13.09.007l1.016-1.017c.179.156.353.319.522.488.17.17.332.344.487.522l-1.015 1.017c-.308-.364-.646-.702-1.01-1.01v0zm-6.246-3.433c.238-.017.476-.025.714-.025s.476.008.715.025v1.432c-.239-.019-.477-.029-.715-.029-.24 0-.479.011-.714.03V1.025z" opacity=".41"/>
    <g clip-path="url(#clip0)">
        <path fill="#4520E6" fill-rule="evenodd" d="M13.986 13.067c0 .967-.789 1.753-1.759 1.753H8.854l3.506-3.492c.907.069 1.626.818 1.626 1.74zM8.357 11.18V7.127h3.878c.066 0 .131.004.196.011L8.357 11.18zm6.335-2.308c0-.817-.404-1.541-1.024-1.986l1.673-1.663-1 .005-1.33 1.321c-.246-.082-.509-.126-.782-.126H7.654v6.442l5.508-5.476c.496.31.826.859.826 1.483 0 .965-.789 1.75-1.76 1.75h-.145l-6.128 6.092h.995l1.201-1.195h4.078c1.358 0 2.463-1.098 2.463-2.449 0-.89-.482-1.669-1.199-2.098.717-.428 1.199-1.21 1.199-2.1z" clip-rule="evenodd"/>
    </g>
    <defs>
        <clipPath id="clip0">
            <path fill="#fff" d="M0 0H11.428V11.428H0z" transform="translate(4.92969 5.28516)"/>
        </clipPath>
    </defs>
</svg>
