<svg xmlns="http://www.w3.org/2000/svg" width="32" height="32" viewBox="0 0 32 32">
  <g id="transations_ic" transform="translate(-701 -84)">
    <circle id="타원_208" data-name="타원 208" cx="5" cy="5" r="5" transform="translate(717 87)" fill="#ebba16"/>
    <g id="그룹_3970" data-name="그룹 3970" transform="translate(7)">
      <g id="그룹_3966" data-name="그룹 3966" transform="translate(679.234 -1011.143)">
        <path id="패스_2045" data-name="패스 2045" d="M34.785,1117.656H23.34a.574.574,0,0,1-.574-.574v-14.764a.574.574,0,0,1,.574-.574H34.785a.574.574,0,0,1,.574.574v14.764A.574.574,0,0,1,34.785,1117.656Zm-10.871-1.149h10.3v-13.615h-10.3Z" fill="#222" stroke="#222" stroke-width="0.2" style="isolation: isolate"/>
        <rect id="사각형_1836" data-name="사각형 1836" width="6.178" height="1.149" transform="translate(26.131 1104.716)" fill="#222" stroke="#222" stroke-width="0.2" style="isolation: isolate"/>
        <rect id="사각형_1837" data-name="사각형 1837" width="6.179" height="1.149" transform="translate(26.122 1108.941)" fill="#222" stroke="#222" stroke-width="0.2" style="isolation: isolate"/>
        <rect id="사각형_1838" data-name="사각형 1838" width="6.179" height="1.149" transform="translate(26.122 1113.104)" fill="#222" stroke="#222" stroke-width="0.2" style="isolation: isolate"/>
        <rect id="사각형_1839" data-name="사각형 1839" width="2.255" height="1.149" transform="translate(30.046 1110.998)" fill="#222" stroke="#222" stroke-width="0.2" style="isolation: isolate"/>
        <rect id="사각형_1840" data-name="사각형 1840" width="3.097" height="1.149" transform="translate(26.122 1110.998)" fill="#222" stroke="#222" stroke-width="0.2" style="isolation: isolate"/>
        <path id="패스_2046" data-name="패스 2046" d="M38.877,1105.491h-1.12v1.149H38.3v13.616h-10.3v-.072H26.858v.647a.574.574,0,0,0,.574.573H38.877a.574.574,0,0,0,.574-.573v-14.764A.574.574,0,0,0,38.877,1105.491Z" transform="translate(-0.846 -0.775)" fill="#222" stroke="#222" stroke-width="0.2" style="isolation: isolate"/>
      </g>
      <rect id="사각형_1842" data-name="사각형 1842" width="32" height="32" transform="translate(694 84)" fill="none"/>
    </g>
  </g>
</svg>
