<svg xmlns="http://www.w3.org/2000/svg" width="25.999" height="26.002" viewBox="0 0 25.999 26.002">
  <path id="arrow_ic" d="M3599-10413a12.917,12.917,0,0,1-9.192-3.808A12.921,12.921,0,0,1,3586-10426a12.915,12.915,0,0,1,3.808-9.192A12.918,12.918,0,0,1,3599-10439a12.917,12.917,0,0,1,9.193,3.808A12.916,12.916,0,0,1,3612-10426a12.922,12.922,0,0,1-3.807,9.194A12.916,12.916,0,0,1,3599-10413Zm-1.89-19a1.1,1.1,0,0,0-.787.323,1.105,1.105,0,0,0,0,1.557l4.281,4.278-4.281,4.28a1.09,1.09,0,0,0-.322.777,1.09,1.09,0,0,0,.322.776,1.093,1.093,0,0,0,.778.325,1.106,1.106,0,0,0,.778-.325l5.062-5.062a1.105,1.105,0,0,0,0-1.557l-5.062-5.062A1.081,1.081,0,0,0,3597.11-10432Z" transform="translate(-3586 10439.001)" fill="#222"/>
</svg>
