<svg xmlns="http://www.w3.org/2000/svg" width="20" height="20" viewBox="0 0 20 20">
  <g id="email_btn" transform="translate(-1543.5 -1363)">
    <path id="iconfinder_contact_126567" d="M6.777,8.777a1.964,1.964,0,0,1-.847-.285L0,5.388v5.93a.85.85,0,0,0,.847.847H12.707a.85.85,0,0,0,.847-.847V5.388l-5.93,3.1A1.964,1.964,0,0,1,6.777,8.777ZM12.707,2H.847A.85.85,0,0,0,0,2.847v.642L6.777,7.051l6.777-3.562V2.847A.85.85,0,0,0,12.707,2Z" transform="translate(1546.8 1366.2)" fill="#cdcdcd"/>
    <rect id="사각형_1909" data-name="사각형 1909" width="20" height="20" transform="translate(1543.5 1363)" fill="none"/>
  </g>
</svg>
