<svg xmlns="http://www.w3.org/2000/svg" width="20" height="20" viewBox="0 0 20 20">
  <g id="github_btn" transform="translate(-1419 -1363)">
    <g id="github_btn-2" data-name="github_btn" transform="translate(0 186)">
      <g id="github-logo" transform="translate(1421.199 1174.035)">
        <path id="패스_1759" data-name="패스 1759" d="M14.451,9.222A7.711,7.711,0,0,0,11.632,6.4,7.575,7.575,0,0,0,7.745,5.365,7.576,7.576,0,0,0,3.857,6.4,7.71,7.71,0,0,0,1.039,9.222,7.576,7.576,0,0,0,0,13.11a7.527,7.527,0,0,0,1.477,4.553,7.585,7.585,0,0,0,3.817,2.8.451.451,0,0,0,.4-.07.394.394,0,0,0,.131-.3q0-.03-.005-.545t-.005-.9l-.232.04a2.959,2.959,0,0,1-.56.035,4.264,4.264,0,0,1-.7-.071,1.566,1.566,0,0,1-.676-.3,1.28,1.28,0,0,1-.444-.62l-.1-.232a2.52,2.52,0,0,0-.318-.514A1.217,1.217,0,0,0,2.35,16.6l-.071-.051a.74.74,0,0,1-.131-.121.553.553,0,0,1-.091-.141q-.03-.071.05-.116a.654.654,0,0,1,.292-.045l.2.03a1.472,1.472,0,0,1,.5.242,1.628,1.628,0,0,1,.489.524,1.778,1.778,0,0,0,.56.63,1.187,1.187,0,0,0,.66.217,2.868,2.868,0,0,0,.575-.05,2.006,2.006,0,0,0,.454-.151,1.634,1.634,0,0,1,.494-1.039A6.9,6.9,0,0,1,5.3,16.347a4.116,4.116,0,0,1-.948-.393,2.715,2.715,0,0,1-.812-.676,3.247,3.247,0,0,1-.529-1.059A5.035,5.035,0,0,1,2.8,12.706a2.941,2.941,0,0,1,.8-2.077,2.711,2.711,0,0,1,.071-2.057,1.413,1.413,0,0,1,.867.136A6.063,6.063,0,0,1,5.38,9.1q.267.161.429.272a7.283,7.283,0,0,1,3.873,0l.383-.242a5.427,5.427,0,0,1,.928-.444,1.322,1.322,0,0,1,.817-.111,2.685,2.685,0,0,1,.08,2.057,2.942,2.942,0,0,1,.8,2.077,5.092,5.092,0,0,1-.207,1.518,3.121,3.121,0,0,1-.534,1.059,2.819,2.819,0,0,1-.817.671,4.123,4.123,0,0,1-.948.393,6.9,6.9,0,0,1-1.034.182,1.8,1.8,0,0,1,.524,1.432v2.128a.4.4,0,0,0,.126.3.438.438,0,0,0,.4.07,7.584,7.584,0,0,0,3.817-2.8,7.771,7.771,0,0,0,.438-8.44Z" fill="#cdcdcd"/>
      </g>
      <rect id="사각형_1433" data-name="사각형 1433" width="20" height="20" transform="translate(1419 1177)" fill="none"/>
    </g>
    <rect id="사각형_1906" data-name="사각형 1906" width="20" height="20" transform="translate(1419 1363)" fill="none"/>
  </g>
</svg>
