<svg xmlns="http://www.w3.org/2000/svg" width="20" height="20" viewBox="0 0 20 20">
  <g id="medium_btn" transform="translate(-1463 -1363)">
    <g id="iconfinder_53-medium_843778" transform="translate(1463 1360)">
      <path id="패스_1670" data-name="패스 1670" d="M38.033,24.558l4.181,2.09.02.009a.192.192,0,0,0,0-.022V17.729Z" transform="translate(-25.235 -7.729)" fill="#cdcdcd"/>
      <path id="패스_1671" data-name="패스 1671" d="M29.452,7l-2.967,4.8,2.853,4.637,4.467-7.259Z" transform="translate(-16.917)" fill="#cdcdcd"/>
      <path id="패스_1672" data-name="패스 1672" d="M20.315,22.081l3.871,1.935-3.871-6.29Z" transform="translate(-12.472 -7.727)" fill="#cdcdcd"/>
      <path id="패스_1673" data-name="패스 1673" d="M3,16.83a.277.277,0,0,0,.123.2l4.172,2.086.02.009a.186.186,0,0,0,0-.022V9.424L3,7.266Z" transform="translate(0 -0.192)" fill="#cdcdcd"/>
    </g>
    <rect id="사각형_1907" data-name="사각형 1907" width="20" height="20" transform="translate(1463 1363)" fill="none"/>
  </g>
</svg>
