<svg xmlns="http://www.w3.org/2000/svg" width="149.399" height="33.147" viewBox="0 0 149.399 33.147">
  <g id="footer_logo" transform="translate(-361 -21)">
    <g id="그룹_1252" data-name="그룹 1252" transform="translate(361 21)">
      <path id="패스_1296" data-name="패스 1296" d="M817.009,1480.864H803.288a1.948,1.948,0,0,0-1.687.975l-6.861,11.883a1.948,1.948,0,0,0,0,1.949l6.861,11.884,3.374-1.949-6.3-10.909,5.737-9.935h11.472l6.3,10.909,3.375-1.949-6.861-11.883A1.947,1.947,0,0,0,817.009,1480.864Z" transform="translate(-789.363 -1480.864)" fill="#9c6cff"/>
      <path id="패스_1297" data-name="패스 1297" d="M812.958,1487.779l-3.375,1.949,6.3,10.909-5.736,9.935H798.673l-6.3-10.91L789,1501.611l6.86,11.884a1.95,1.95,0,0,0,1.688.975h13.722a1.949,1.949,0,0,0,1.687-.975l6.86-11.884a1.948,1.948,0,0,0,0-1.949Z" transform="translate(-789 -1481.322)" fill="#05d2dd"/>
    </g>
    <g id="그룹_1253" data-name="그룹 1253" transform="translate(408.842 22.887)">
      <path id="패스_1298" data-name="패스 1298" d="M842.07,1486.733l4.833,8.062h.878l4.833-8.119.019,9.743h1.834l-.019-13.373h-1.566l-5.5,9.4-5.578-9.4h-1.566v13.373h1.834Z" transform="translate(-840.236 -1482.894)" fill="#fff"/>
      <rect id="사각형_175" data-name="사각형 175" width="1.91" height="13.373" transform="translate(18.245 0.152)" fill="#fff"/>
      <path id="패스_1299" data-name="패스 1299" d="M875.708,1493.019l-8.024-9.973h-1.566v13.373h1.91v-9.973l8.023,9.973h1.566v-13.373h-1.91Z" transform="translate(-841.951 -1482.894)" fill="#fff"/>
      <path id="패스_1300" data-name="패스 1300" d="M885.249,1496.419h1.892v-11.711h4.585v-1.662H880.664v1.662h4.585Z" transform="translate(-842.915 -1482.894)" fill="#fff"/>
      <path id="패스_1301" data-name="패스 1301" d="M901.309,1489.646a18.652,18.652,0,0,0-2.426-.726,17.837,17.837,0,0,1-1.844-.506,3.168,3.168,0,0,1-1.136-.669,1.463,1.463,0,0,1-.458-1.118,1.814,1.814,0,0,1,.811-1.529,4.127,4.127,0,0,1,2.436-.592,6.7,6.7,0,0,1,1.873.277,6.9,6.9,0,0,1,1.8.811l.63-1.528a6.2,6.2,0,0,0-1.968-.879,9.009,9.009,0,0,0-2.331-.305,6.936,6.936,0,0,0-2.846.516,3.87,3.87,0,0,0-1.711,1.375,3.447,3.447,0,0,0-.563,1.93,2.982,2.982,0,0,0,.659,2.035,4.031,4.031,0,0,0,1.585,1.118,19.19,19.19,0,0,0,2.436.726q1.2.287,1.862.515a3.01,3.01,0,0,1,1.108.659,1.48,1.48,0,0,1,.449,1.118,1.736,1.736,0,0,1-.821,1.5,4.421,4.421,0,0,1-2.485.564,7.2,7.2,0,0,1-2.455-.43,5.837,5.837,0,0,1-1.958-1.117l-.707,1.489a5.985,5.985,0,0,0,2.206,1.214,9.159,9.159,0,0,0,2.913.468,7.207,7.207,0,0,0,2.867-.506,3.854,3.854,0,0,0,1.739-1.375,3.415,3.415,0,0,0,.573-1.921,2.916,2.916,0,0,0-.659-2.006A4.075,4.075,0,0,0,901.309,1489.646Z" transform="translate(-843.749 -1482.883)" fill="#fff"/>
      <path id="패스_1302" data-name="패스 1302" d="M910.567,1485.252a5.443,5.443,0,0,1,2.694-.669,4.983,4.983,0,0,1,3.763,1.586l1.242-1.2a5.866,5.866,0,0,0-2.216-1.558,7.583,7.583,0,0,0-2.867-.525,7.442,7.442,0,0,0-3.629.888,6.519,6.519,0,0,0-2.541,2.446,7.16,7.16,0,0,0,0,7.011,6.545,6.545,0,0,0,2.531,2.445,7.387,7.387,0,0,0,3.62.888,7.535,7.535,0,0,0,2.876-.535,5.95,5.95,0,0,0,2.225-1.567l-1.242-1.2a4.992,4.992,0,0,1-3.763,1.605,5.443,5.443,0,0,1-2.694-.669,4.84,4.84,0,0,1-1.881-1.844,5.42,5.42,0,0,1,0-5.253A4.837,4.837,0,0,1,910.567,1485.252Z" transform="translate(-844.6 -1482.883)" fill="#fff"/>
      <path id="패스_1303" data-name="패스 1303" d="M925.594,1483.046l-6.056,13.373h1.967l1.472-3.343h7.107l1.471,3.343h2.007l-6.076-13.373Zm-1.949,8.5,2.884-6.553,2.884,6.553Z" transform="translate(-845.491 -1482.894)" fill="#fff"/>
      <path id="패스_1304" data-name="패스 1304" d="M946.274,1483.046v9.973l-8.024-9.973h-1.566v13.373h1.91v-9.973l8.024,9.973h1.566v-13.373Z" transform="translate(-846.627 -1482.894)" fill="#fff"/>
    </g>
    <g id="그룹_1939" data-name="그룹 1939" transform="translate(124.256 -1.284)">
      <g id="그룹_1938" data-name="그룹 1938" transform="translate(284.744 43.284)">
        <path id="패스_1709" data-name="패스 1709" d="M291.489,49.348a3.114,3.114,0,0,1-3.171,3.347,2.788,2.788,0,0,1-2.59-1.465v1.427h-.985V43.284h.985V47.44a2.765,2.765,0,0,1,2.564-1.478A3.151,3.151,0,0,1,291.489,49.348Zm-1-.027a2.383,2.383,0,1,0-2.375,2.476A2.344,2.344,0,0,0,290.491,49.322Z" transform="translate(-284.744 -43.284)" fill="#8b939e"/>
        <path id="패스_1710" data-name="패스 1710" d="M293.671,53.038a2.14,2.14,0,0,1-2,1.552,2.111,2.111,0,0,1-1.4-.492l.417-.822a1.569,1.569,0,0,0,.934.316,1.327,1.327,0,0,0,1.213-.934l.278-.619-2.754-6.608H291.4l2.211,5.5,2.109-5.5h1.01Z" transform="translate(-283.285 -42.717)" fill="#8b939e"/>
        <path id="패스_1711" data-name="패스 1711" d="M306.338,44.972l-.605.771a3.717,3.717,0,0,0-2.616-1.112,3.488,3.488,0,1,0,0,6.973,3.857,3.857,0,0,0,2.616-1.06l.618.7a4.885,4.885,0,0,1-3.285,1.364,4.462,4.462,0,1,1,.039-8.919A4.783,4.783,0,0,1,306.338,44.972Z" transform="translate(-281.115 -43.179)" fill="#8b939e"/>
        <path id="패스_1712" data-name="패스 1712" d="M312.089,48.76a3.373,3.373,0,1,1-3.372-3.347A3.231,3.231,0,0,1,312.089,48.76Zm-5.761.013a2.389,2.389,0,1,0,2.389-2.462A2.333,2.333,0,0,0,306.329,48.772Z" transform="translate(-279.307 -42.722)" fill="#8b939e"/>
        <path id="패스_1713" data-name="패스 1713" d="M316.129,46.01l-.379.784a3.5,3.5,0,0,0-1.806-.545c-.746,0-1.314.265-1.314.885,0,1.478,3.715.72,3.715,3.108,0,1.313-1.162,1.895-2.438,1.895a3.755,3.755,0,0,1-2.552-.935l.379-.744a3.375,3.375,0,0,0,2.211.846c.782,0,1.414-.289,1.427-.947.038-1.6-3.688-.784-3.675-3.146,0-1.275,1.1-1.806,2.312-1.806A3.845,3.845,0,0,1,316.129,46.01Z" transform="translate(-277.721 -42.725)" fill="#8b939e"/>
        <path id="패스_1714" data-name="패스 1714" d="M327.586,47.993V52.1H326.6v-3.84a1.71,1.71,0,0,0-1.844-1.882,2.2,2.2,0,0,0-2.173,2.449V52.1h-1v-3.84a1.7,1.7,0,0,0-1.844-1.882,2.211,2.211,0,0,0-2.184,2.449V52.1h-.973V45.44h.973v1.5A2.553,2.553,0,0,1,320.1,45.4a2.266,2.266,0,0,1,2.388,1.743A2.565,2.565,0,0,1,325.11,45.4,2.335,2.335,0,0,1,327.586,47.993Z" transform="translate(-276.341 -42.725)" fill="#8b939e"/>
        <path id="패스_1715" data-name="패스 1715" d="M333.239,48.76a3.373,3.373,0,1,1-3.373-3.347A3.23,3.23,0,0,1,333.239,48.76Zm-5.761.013a2.389,2.389,0,1,0,2.388-2.462A2.332,2.332,0,0,0,327.479,48.772Z" transform="translate(-273.726 -42.722)" fill="#8b939e"/>
        <path id="패스_1716" data-name="패스 1716" d="M337.279,46.01l-.379.784a3.5,3.5,0,0,0-1.806-.545c-.746,0-1.313.265-1.313.885,0,1.478,3.713.72,3.713,3.108,0,1.313-1.163,1.895-2.439,1.895A3.754,3.754,0,0,1,332.5,51.2l.379-.744a3.378,3.378,0,0,0,2.211.846c.784,0,1.414-.289,1.428-.947.037-1.6-3.689-.784-3.678-3.146,0-1.275,1.1-1.806,2.313-1.806A3.848,3.848,0,0,1,337.279,46.01Z" transform="translate(-272.14 -42.725)" fill="#8b939e"/>
        <path id="패스_1717" data-name="패스 1717" d="M341.32,51.958a2.79,2.79,0,0,1-1.5.5c-.973,0-1.694-.581-1.694-1.895v-3.8h-.959v-.8h.959V44.214h.973v1.754l2.11-.011v.808H339.1v3.625c0,.81.315,1.112.885,1.112a2.025,2.025,0,0,0,1.06-.34Z" transform="translate(-270.91 -43.039)" fill="#8b939e"/>
        <path id="패스_1718" data-name="패스 1718" d="M345.882,51.074a2.865,2.865,0,0,1-2.437,1.074,2.064,2.064,0,0,1-2.261-2.034c0-1.162.921-1.895,2.487-1.907h2.187v-.392c0-.973-.608-1.553-1.781-1.553a3.7,3.7,0,0,0-2.111.757l-.416-.72a4.467,4.467,0,0,1,2.715-.9c1.643,0,2.552.872,2.564,2.3l.013,4.4h-.961Zm-.011-1.275V49H343.8c-1.111,0-1.692.34-1.692,1.072s.594,1.213,1.528,1.213A2.156,2.156,0,0,0,345.871,49.8Z" transform="translate(-269.849 -42.725)" fill="#8b939e"/>
        <path id="패스_1719" data-name="패스 1719" d="M350.99,51.958a2.789,2.789,0,0,1-1.5.5c-.973,0-1.694-.581-1.694-1.895v-3.8h-.959v-.8h.959V44.214h.973v1.754l2.109-.011v.808h-2.109v3.625c0,.81.315,1.112.883,1.112a2.025,2.025,0,0,0,1.062-.34Z" transform="translate(-268.358 -43.039)" fill="#8b939e"/>
        <path id="패스_1720" data-name="패스 1720" d="M352.461,44.067a.645.645,0,1,1-.643-.683A.648.648,0,0,1,352.461,44.067Zm-1.122,8.564V45.972h.972v6.658Z" transform="translate(-267.213 -43.258)" fill="#8b939e"/>
        <path id="패스_1721" data-name="패스 1721" d="M360.188,48.76a3.373,3.373,0,1,1-3.372-3.347A3.23,3.23,0,0,1,360.188,48.76Zm-5.76.013a2.389,2.389,0,1,0,2.388-2.462A2.332,2.332,0,0,0,354.429,48.772Z" transform="translate(-266.614 -42.722)" fill="#8b939e"/>
        <path id="패스_1722" data-name="패스 1722" d="M366.242,47.993V52.1h-.986v-3.84a1.724,1.724,0,0,0-1.882-1.871,2.162,2.162,0,0,0-2.236,2.136V52.1h-.986V45.44h.986v1.467a2.628,2.628,0,0,1,2.577-1.5A2.354,2.354,0,0,1,366.242,47.993Z" transform="translate(-264.843 -42.725)" fill="#8b939e"/>
      </g>
    </g>
  </g>
</svg>
