<svg xmlns="http://www.w3.org/2000/svg" width="20" height="20" viewBox="0 0 20 20">
  <g id="telegram_btn" transform="translate(-1503.5 -1363)">
    <g id="iconfinder_335_Telegram_logo_4375490" transform="translate(1478.998 1302.889)">
      <g id="그룹_1907" data-name="그룹 1907" transform="translate(26.001 63.112)">
        <path id="패스_1674" data-name="패스 1674" d="M42.27,64.357,39.808,75.969c-.186.82-.67,1.023-1.359.637L34.7,73.842l-1.81,1.741a.942.942,0,0,1-.754.368L32.4,72.13l6.953-6.283c.3-.269-.066-.419-.47-.149l-8.6,5.412-3.7-1.158c-.8-.251-.819-.805.168-1.191l14.474-5.576C41.9,62.933,42.489,63.334,42.27,64.357Z" transform="translate(-26.001 -63.112)" fill="#cdcdcd"/>
      </g>
    </g>
    <rect id="사각형_1908" data-name="사각형 1908" width="20" height="20" transform="translate(1503.5 1363)" fill="none"/>
  </g>
</svg>
