<svg xmlns="http://www.w3.org/2000/svg" width="149.399" height="33.121" viewBox="0 0 149.399 33.121">
  <g id="header_logo" transform="translate(-361 -20)">
    <g id="그룹_1944" data-name="그룹 1944" transform="translate(361 20.001)">
      <path id="패스_1723" data-name="패스 1723" d="M657.915,1428.876H644.2a1.946,1.946,0,0,0-1.686.974l-6.856,11.875a1.948,1.948,0,0,0,0,1.947l6.856,11.875,3.372-1.947-6.294-10.9,5.732-9.928h11.463l6.294,10.9,3.372-1.947L659.6,1429.85A1.947,1.947,0,0,0,657.915,1428.876Z" transform="translate(-630.289 -1428.876)" fill="#000"/>
      <path id="패스_1724" data-name="패스 1724" d="M648.94,1442.005l-3.372,1.947,6.293,10.9-5.731,9.928H634.666l-6.293-10.9L625,1455.826l6.856,11.875a1.947,1.947,0,0,0,1.686.974h13.712a1.947,1.947,0,0,0,1.686-.974l6.856-11.875a1.947,1.947,0,0,0,0-1.947Z" transform="translate(-625 -1435.553)" fill="#000"/>
    </g>
    <g id="그룹_1945" data-name="그룹 1945" transform="translate(408.806 21.454)">
      <path id="패스_1725" data-name="패스 1725" d="M724.109,1435.827l4.83,8.056h.878l4.83-8.113.019,9.736H736.5l-.019-13.363h-1.565l-5.5,9.392-5.574-9.392h-1.565v13.363h1.833Z" transform="translate(-722.276 -1431.99)" fill="#000"/>
      <rect id="사각형_1419" data-name="사각형 1419" width="1.909" height="13.363" transform="translate(18.231 0.153)" fill="#000"/>
      <path id="패스_1726" data-name="패스 1726" d="M781,1442.108l-8.018-9.965h-1.565v13.363h1.909v-9.965l8.018,9.965h1.565v-13.363H781Z" transform="translate(-747.265 -1431.99)" fill="#000"/>
      <path id="패스_1727" data-name="패스 1727" d="M803.613,1445.506h1.89v-11.7h4.582v-1.661H799.032v1.661h4.582Z" transform="translate(-761.31 -1431.99)" fill="#000"/>
      <path id="패스_1728" data-name="패스 1728" d="M830.977,1438.59a18.772,18.772,0,0,0-2.424-.725,17.439,17.439,0,0,1-1.842-.506,3.163,3.163,0,0,1-1.136-.668,1.46,1.46,0,0,1-.458-1.117,1.813,1.813,0,0,1,.811-1.527,4.127,4.127,0,0,1,2.434-.592,6.712,6.712,0,0,1,1.871.277,6.924,6.924,0,0,1,1.794.811l.63-1.527a6.207,6.207,0,0,0-1.966-.878,9.009,9.009,0,0,0-2.329-.305,6.93,6.93,0,0,0-2.844.516,3.868,3.868,0,0,0-1.709,1.374,3.442,3.442,0,0,0-.563,1.928,2.981,2.981,0,0,0,.659,2.033,4.017,4.017,0,0,0,1.584,1.117,19.08,19.08,0,0,0,2.434.726q1.2.286,1.861.515a3,3,0,0,1,1.108.659,1.479,1.479,0,0,1,.448,1.117,1.736,1.736,0,0,1-.82,1.5,4.419,4.419,0,0,1-2.482.563,7.2,7.2,0,0,1-2.453-.43,5.84,5.84,0,0,1-1.956-1.117l-.706,1.49a5.97,5.97,0,0,0,2.2,1.212,9.133,9.133,0,0,0,2.911.468,7.191,7.191,0,0,0,2.864-.506,3.839,3.839,0,0,0,1.737-1.375,3.413,3.413,0,0,0,.573-1.919,2.914,2.914,0,0,0-.659-2A4.082,4.082,0,0,0,830.977,1438.59Z" transform="translate(-773.46 -1431.832)" fill="#000"/>
      <path id="패스_1729" data-name="패스 1729" d="M851.782,1434.2a5.449,5.449,0,0,1,2.692-.668,4.979,4.979,0,0,1,3.761,1.585l1.24-1.2a5.87,5.87,0,0,0-2.214-1.556,7.575,7.575,0,0,0-2.864-.525,7.435,7.435,0,0,0-3.627.888,6.518,6.518,0,0,0-2.539,2.443,7.153,7.153,0,0,0,0,7.006,6.528,6.528,0,0,0,2.529,2.443,7.376,7.376,0,0,0,3.618.888,7.525,7.525,0,0,0,2.873-.535,5.94,5.94,0,0,0,2.224-1.565l-1.24-1.2a4.991,4.991,0,0,1-3.761,1.6,5.445,5.445,0,0,1-2.692-.668,4.844,4.844,0,0,1-1.88-1.843,5.422,5.422,0,0,1,0-5.25A4.846,4.846,0,0,1,851.782,1434.2Z" transform="translate(-785.865 -1431.832)" fill="#000"/>
      <path id="패스_1730" data-name="패스 1730" d="M878.888,1432.143l-6.052,13.363H874.8l1.47-3.341h7.1l1.469,3.341h2l-6.071-13.363Zm-1.948,8.5,2.883-6.548,2.882,6.548Z" transform="translate(-798.844 -1431.99)" fill="#000"/>
      <path id="패스_1731" data-name="패스 1731" d="M914.971,1432.143v9.965l-8.018-9.965h-1.565v13.363H907.3v-9.965l8.018,9.965h1.565v-13.363Z" transform="translate(-815.399 -1431.99)" fill="#000"/>
    </g>
    <g id="그룹_1947" data-name="그룹 1947" transform="translate(408.9 40.079)" opacity="0.85">
      <g id="그룹_1946" data-name="그룹 1946">
        <path id="패스_1732" data-name="패스 1732" d="M727.457,1472.756a2.95,2.95,0,0,1,1.158,1.164,3.71,3.71,0,0,1,0,3.424,2.992,2.992,0,0,1-1.158,1.17,3.291,3.291,0,0,1-1.651.419,3.056,3.056,0,0,1-1.46-.345,2.666,2.666,0,0,1-1.041-1v1.281h-.837v-9.14h.874v3.892a2.7,2.7,0,0,1,1.041-.954,3.063,3.063,0,0,1,1.423-.327A3.326,3.326,0,0,1,727.457,1472.756Zm-.481,5.087a2.221,2.221,0,0,0,.869-.893,2.924,2.924,0,0,0,0-2.636,2.224,2.224,0,0,0-.869-.893,2.584,2.584,0,0,0-2.469,0,2.236,2.236,0,0,0-.862.893,2.919,2.919,0,0,0,0,2.636,2.233,2.233,0,0,0,.862.893,2.584,2.584,0,0,0,2.469,0Z" transform="translate(-722.468 -1469.732)" fill="#000"/>
        <path id="패스_1733" data-name="패스 1733" d="M742.949,1475.146l-3.24,7.255a3.1,3.1,0,0,1-.912,1.294,2.037,2.037,0,0,1-1.244.382,2.542,2.542,0,0,1-.875-.148,1.893,1.893,0,0,1-.7-.444l.407-.653a1.612,1.612,0,0,0,1.182.493,1.192,1.192,0,0,0,.758-.247,2.238,2.238,0,0,0,.585-.838l.283-.628-2.895-6.467h.912l2.439,5.506,2.44-5.506Z" transform="translate(-729.338 -1472.485)" fill="#000"/>
        <path id="패스_1734" data-name="패스 1734" d="M760.258,1478.838a4.138,4.138,0,0,1-1.614-1.571,4.609,4.609,0,0,1,0-4.5,4.136,4.136,0,0,1,1.62-1.571,4.739,4.739,0,0,1,2.316-.567,4.791,4.791,0,0,1,1.774.32,3.68,3.68,0,0,1,1.38.936l-.579.58a3.435,3.435,0,0,0-2.55-1.023,3.745,3.745,0,0,0-1.86.468,3.419,3.419,0,0,0-1.312,1.281,3.741,3.741,0,0,0,0,3.646,3.41,3.41,0,0,0,1.312,1.281,3.744,3.744,0,0,0,1.86.468,3.388,3.388,0,0,0,2.55-1.035l.579.579a3.731,3.731,0,0,1-1.386.943,4.762,4.762,0,0,1-1.78.326A4.7,4.7,0,0,1,760.258,1478.838Z" transform="translate(-740.568 -1470.191)" fill="#000"/>
        <path id="패스_1735" data-name="패스 1735" d="M776.968,1481.21a3.092,3.092,0,0,1-1.182-1.176,3.564,3.564,0,0,1,0-3.4,3.05,3.05,0,0,1,1.182-1.17,3.606,3.606,0,0,1,3.375,0,3.015,3.015,0,0,1,1.177,1.17,3.611,3.611,0,0,1,0,3.4,3.056,3.056,0,0,1-1.177,1.176,3.562,3.562,0,0,1-3.375,0Zm2.925-.665a2.191,2.191,0,0,0,.856-.893,2.974,2.974,0,0,0,0-2.636,2.194,2.194,0,0,0-.856-.893,2.6,2.6,0,0,0-2.475,0,2.234,2.234,0,0,0-.862.893,2.923,2.923,0,0,0,0,2.636,2.231,2.231,0,0,0,.862.893,2.6,2.6,0,0,0,2.475,0Z" transform="translate(-749.363 -1472.434)" fill="#000"/>
        <path id="패스_1736" data-name="패스 1736" d="M791.7,1481.407a3.243,3.243,0,0,1-1.127-.573l.394-.69a3.3,3.3,0,0,0,1.022.524,4.064,4.064,0,0,0,1.281.2,2.444,2.444,0,0,0,1.312-.277.881.881,0,0,0,.425-.782.7.7,0,0,0-.234-.56,1.557,1.557,0,0,0-.591-.308,8.644,8.644,0,0,0-.949-.2,10.886,10.886,0,0,1-1.269-.3,1.863,1.863,0,0,1-.819-.523,1.456,1.456,0,0,1-.339-1.023,1.6,1.6,0,0,1,.678-1.331,3.04,3.04,0,0,1,1.885-.517,4.88,4.88,0,0,1,1.256.167,3.462,3.462,0,0,1,1.035.437l-.382.7a3.27,3.27,0,0,0-1.909-.554,2.215,2.215,0,0,0-1.263.3.905.905,0,0,0-.425.776.766.766,0,0,0,.24.591,1.471,1.471,0,0,0,.6.326,9.7,9.7,0,0,0,.985.216,11.4,11.4,0,0,1,1.244.3,1.833,1.833,0,0,1,.8.505,1.39,1.39,0,0,1,.333.985,1.568,1.568,0,0,1-.709,1.349,3.367,3.367,0,0,1-1.965.5A4.962,4.962,0,0,1,791.7,1481.407Z" transform="translate(-757.101 -1472.434)" fill="#000"/>
        <path id="패스_1737" data-name="패스 1737" d="M814.651,1475.747a2.821,2.821,0,0,1,.7,2.069v3.757h-.875V1477.9a2.2,2.2,0,0,0-.486-1.54,1.772,1.772,0,0,0-1.374-.529,2.065,2.065,0,0,0-1.589.622,2.423,2.423,0,0,0-.579,1.718v3.4h-.874V1477.9a2.2,2.2,0,0,0-.487-1.54,1.788,1.788,0,0,0-1.385-.529,2.071,2.071,0,0,0-1.583.622,2.41,2.41,0,0,0-.585,1.718v3.4h-.874v-6.479h.837v1.182a2.335,2.335,0,0,1,.961-.911,3.026,3.026,0,0,1,1.416-.32,2.775,2.775,0,0,1,1.41.345,2.121,2.121,0,0,1,.893,1.023,2.523,2.523,0,0,1,1.028-1,3.171,3.171,0,0,1,1.534-.364A2.575,2.575,0,0,1,814.651,1475.747Z" transform="translate(-764.265 -1472.434)" fill="#000"/>
        <path id="패스_1738" data-name="패스 1738" d="M831.583,1481.21a3.1,3.1,0,0,1-1.182-1.176,3.568,3.568,0,0,1,0-3.4,3.056,3.056,0,0,1,1.182-1.17,3.607,3.607,0,0,1,3.375,0,3.015,3.015,0,0,1,1.177,1.17,3.615,3.615,0,0,1,0,3.4,3.056,3.056,0,0,1-1.177,1.176,3.563,3.563,0,0,1-3.375,0Zm2.926-.665a2.19,2.19,0,0,0,.856-.893,2.974,2.974,0,0,0,0-2.636,2.193,2.193,0,0,0-.856-.893,2.6,2.6,0,0,0-2.476,0,2.233,2.233,0,0,0-.862.893,2.927,2.927,0,0,0,0,2.636,2.23,2.23,0,0,0,.862.893,2.6,2.6,0,0,0,2.476,0Z" transform="translate(-777.139 -1472.434)" fill="#000"/>
        <path id="패스_1739" data-name="패스 1739" d="M846.311,1481.407a3.241,3.241,0,0,1-1.127-.573l.394-.69a3.312,3.312,0,0,0,1.022.524,4.064,4.064,0,0,0,1.281.2,2.447,2.447,0,0,0,1.312-.277.882.882,0,0,0,.424-.782.7.7,0,0,0-.234-.56,1.555,1.555,0,0,0-.591-.308,8.617,8.617,0,0,0-.948-.2,10.87,10.87,0,0,1-1.268-.3,1.863,1.863,0,0,1-.819-.523,1.456,1.456,0,0,1-.339-1.023,1.6,1.6,0,0,1,.677-1.331,3.042,3.042,0,0,1,1.885-.517,4.881,4.881,0,0,1,1.256.167,3.451,3.451,0,0,1,1.035.437l-.382.7a3.27,3.27,0,0,0-1.909-.554,2.212,2.212,0,0,0-1.263.3.9.9,0,0,0-.425.776.766.766,0,0,0,.24.591,1.468,1.468,0,0,0,.6.326,9.748,9.748,0,0,0,.986.216,11.361,11.361,0,0,1,1.244.3,1.831,1.831,0,0,1,.8.505,1.39,1.39,0,0,1,.333.985,1.567,1.567,0,0,1-.708,1.349,3.367,3.367,0,0,1-1.965.5A4.96,4.96,0,0,1,846.311,1481.407Z" transform="translate(-784.876 -1472.434)" fill="#000"/>
        <path id="패스_1740" data-name="패스 1740" d="M861.638,1479.765a1.666,1.666,0,0,1-.61.339,2.454,2.454,0,0,1-.758.117,1.717,1.717,0,0,1-1.9-1.885v-3.917h-1.158v-.739h1.158v-1.417h.875v1.417h1.971v.739h-1.971v3.868a1.223,1.223,0,0,0,.289.881,1.1,1.1,0,0,0,.832.3,1.607,1.607,0,0,0,.523-.086,1.3,1.3,0,0,0,.437-.247Z" transform="translate(-790.994 -1471.019)" fill="#000"/>
        <path id="패스_1741" data-name="패스 1741" d="M873.1,1475.679a2.452,2.452,0,0,1,.678,1.879v4.016h-.838v-1.01a2.006,2.006,0,0,1-.868.789,3.042,3.042,0,0,1-1.361.283,2.665,2.665,0,0,1-1.725-.518,1.78,1.78,0,0,1-.043-2.7,2.925,2.925,0,0,1,1.9-.5H872.9v-.395a1.66,1.66,0,0,0-.468-1.275,1.933,1.933,0,0,0-1.367-.437,3.47,3.47,0,0,0-1.182.2,2.981,2.981,0,0,0-.973.56l-.394-.653a3.5,3.5,0,0,1,1.182-.647,4.6,4.6,0,0,1,1.454-.228A2.745,2.745,0,0,1,873.1,1475.679Zm-.985,4.927a2.021,2.021,0,0,0,.788-.979v-1.06h-2.033q-1.663,0-1.663,1.158a1.06,1.06,0,0,0,.431.893,1.965,1.965,0,0,0,1.207.326A2.3,2.3,0,0,0,872.113,1480.607Z" transform="translate(-796.654 -1472.434)" fill="#000"/>
        <path id="패스_1742" data-name="패스 1742" d="M886.6,1479.765a1.666,1.666,0,0,1-.61.339,2.454,2.454,0,0,1-.758.117,1.717,1.717,0,0,1-1.9-1.885v-3.917h-1.158v-.739h1.158v-1.417h.875v1.417h1.971v.739h-1.971v3.868a1.223,1.223,0,0,0,.289.881,1.1,1.1,0,0,0,.831.3,1.606,1.606,0,0,0,.523-.086,1.3,1.3,0,0,0,.437-.247Z" transform="translate(-803.69 -1471.019)" fill="#000"/>
        <path id="패스_1743" data-name="패스 1743" d="M894.195,1470.791a.6.6,0,0,1-.185-.443.591.591,0,0,1,.185-.432.619.619,0,0,1,.456-.184.633.633,0,0,1,.456.178.572.572,0,0,1,.184.425.644.644,0,0,1-1.1.455Zm.012,1.6h.874v6.479h-.874Z" transform="translate(-809.706 -1469.732)" fill="#000"/>
        <path id="패스_1744" data-name="패스 1744" d="M901.439,1481.21a3.094,3.094,0,0,1-1.183-1.176,3.567,3.567,0,0,1,0-3.4,3.052,3.052,0,0,1,1.183-1.17,3.606,3.606,0,0,1,3.375,0,3.015,3.015,0,0,1,1.176,1.17,3.611,3.611,0,0,1,0,3.4,3.056,3.056,0,0,1-1.176,1.176,3.562,3.562,0,0,1-3.375,0Zm2.925-.665a2.189,2.189,0,0,0,.856-.893,2.973,2.973,0,0,0,0-2.636,2.192,2.192,0,0,0-.856-.893,2.6,2.6,0,0,0-2.476,0,2.233,2.233,0,0,0-.862.893,2.923,2.923,0,0,0,0,2.636,2.23,2.23,0,0,0,.862.893,2.6,2.6,0,0,0,2.476,0Z" transform="translate(-812.664 -1472.434)" fill="#000"/>
        <path id="패스_1745" data-name="패스 1745" d="M922.11,1475.753a2.769,2.769,0,0,1,.721,2.063v3.757h-.874V1477.9a2.149,2.149,0,0,0-.505-1.54,1.9,1.9,0,0,0-1.441-.529,2.215,2.215,0,0,0-1.657.622,2.35,2.35,0,0,0-.61,1.718v3.4h-.874v-6.479h.837v1.195a2.427,2.427,0,0,1,.992-.917,3.169,3.169,0,0,1,1.472-.327A2.649,2.649,0,0,1,922.11,1475.753Z" transform="translate(-821.332 -1472.434)" fill="#000"/>
      </g>
    </g>
  </g>
</svg>
