<svg xmlns="http://www.w3.org/2000/svg" width="32" height="32" viewBox="0 0 32 32">
  <g id="msgsic_4" transform="translate(-393 -678)">
    <g id="그룹_3792" data-name="그룹 3792" transform="translate(-1256.08 77.619)">
      <path id="패스_1926" data-name="패스 1926" d="M1670.554,606.869v1.511a.235.235,0,0,1-.234.234H1659.3a.235.235,0,0,1-.234-.234v-1.511h11.486m.988-.988H1658.08v2.5a1.224,1.224,0,0,0,1.223,1.222h11.017a1.224,1.224,0,0,0,1.222-1.222v-2.5Z" transform="translate(0)" fill="#f0b90b"/>
      <path id="패스_1927" data-name="패스 1927" d="M1670.32,701.068a.235.235,0,0,1,.234.234v1.511h-11.486V701.3a.235.235,0,0,1,.234-.234h11.017m0-.988H1659.3a1.224,1.224,0,0,0-1.223,1.223v2.5h13.462v-2.5a1.224,1.224,0,0,0-1.222-1.223Z" transform="translate(0 -76.702)" fill="#f0b90b"/>
      <g id="그룹_3790" data-name="그룹 3790" transform="translate(1659.503 608.615)">
        <path id="패스_1928" data-name="패스 1928" d="M1666.73,636.324h-.988V632.3l3.638-3.775-3.638-3.814V620.6h.988v3.713l4.019,4.213-4.019,4.17Z" transform="translate(-1665.742 -620.598)" fill="#f0b90b"/>
        <path id="패스_1929" data-name="패스 1929" d="M1700.947,636.324h-.988v-3.63l-4.019-4.17,4.019-4.213V620.6h.988v4.109l-3.638,3.814,3.638,3.775Z" transform="translate(-1690.331 -620.598)" fill="#f0b90b"/>
      </g>
      <path id="패스_1930" data-name="패스 1930" d="M1676.96,633.407l-2.689-2.8.006-1.85.865,0-.005,1.5,2.448,2.552Z" transform="translate(-13.183 -18.623)" fill="#f0b90b"/>
      <g id="그룹_3791" data-name="그룹 3791" transform="translate(1661.345 618.383)">
        <path id="패스_1931" data-name="패스 1931" d="M1697.843,678.475l-.865,0,.005-1.931-2.586-2.667.621-.6,2.831,2.92Z" transform="translate(-1690.917 -673.257)" fill="#f0b90b"/>
        <path id="패스_1932" data-name="패스 1932" d="M1675.663,678.394l-.006-2.283,2.831-2.92.621.6-2.587,2.667.005,1.931Z" transform="translate(-1675.656 -673.191)" fill="#f0b90b"/>
        <rect id="사각형_1745" data-name="사각형 1745" width="1.375" height="0.865" transform="translate(2.779 0.055)" fill="#f0b90b"/>
      </g>
    </g>
    <rect id="사각형_1746" data-name="사각형 1746" width="32" height="32" transform="translate(393 678)" fill="none"/>
  </g>
</svg>
