<svg xmlns="http://www.w3.org/2000/svg" width="86.983" height="23.221" viewBox="0 0 86.983 23.221">
  <g id="appstore_btn" transform="translate(-220.024 -434.824)">
    <g id="그룹_1507" data-name="그룹 1507" transform="translate(220.024 434.824)">
      <g id="그룹_1506" data-name="그룹 1506">
        <path id="패스_1241" data-name="패스 1241" d="M233.811,443.845a4.608,4.608,0,0,1,2.2-3.868,4.718,4.718,0,0,0-3.718-2.011c-1.565-.164-3.082.937-3.879.937-.813,0-2.041-.921-3.362-.893a4.955,4.955,0,0,0-4.167,2.542c-1.8,3.12-.457,7.705,1.269,10.227.863,1.236,1.873,2.614,3.193,2.565,1.292-.053,1.776-.824,3.336-.824s2,.824,3.345.792c1.388-.022,2.261-1.24,3.095-2.487a10.194,10.194,0,0,0,1.414-2.882A4.455,4.455,0,0,1,233.811,443.845Z" transform="translate(-220.024 -433.055)" fill="#fff"/>
        <path id="패스_1242" data-name="패스 1242" d="M228.3,438.077a4.539,4.539,0,0,0,1.038-3.253,4.618,4.618,0,0,0-2.988,1.547,4.321,4.321,0,0,0-1.067,3.131A3.818,3.818,0,0,0,228.3,438.077Z" transform="translate(-217.058 -434.824)" fill="#fff"/>
      </g>
    </g>
    <g id="그룹_1508" data-name="그룹 1508" transform="translate(243.581 444.194)">
      <path id="패스_1243" data-name="패스 1243" d="M244,451.492h-1.806l-.99-3.109h-3.438l-.943,3.109h-1.759l3.408-10.584h2.1Zm-3.093-4.413-.9-2.763q-.141-.425-.534-2h-.031c-.1.451-.272,1.115-.5,2l-.879,2.763Z" transform="translate(-235.065 -440.75)" fill="#fff"/>
      <path id="패스_1244" data-name="패스 1244" d="M249.021,446.571a4.337,4.337,0,0,1-1.052,3.077,3.076,3.076,0,0,1-2.34,1.005,2.335,2.335,0,0,1-2.166-1.084h-.031v4.02h-1.7v-8.229q0-1.224-.063-2.512h1.491l.094,1.209h.031a3.02,3.02,0,0,1,4.83-.3A4.211,4.211,0,0,1,249.021,446.571Zm-1.727.063a3.147,3.147,0,0,0-.5-1.837,1.734,1.734,0,0,0-1.475-.753,1.763,1.763,0,0,0-1.139.415,1.921,1.921,0,0,0-.667,1.093,2.179,2.179,0,0,0-.078.517v1.272a2.039,2.039,0,0,0,.509,1.406,1.7,1.7,0,0,0,1.328.573,1.736,1.736,0,0,0,1.491-.738A3.254,3.254,0,0,0,247.294,446.633Z" transform="translate(-231.324 -439.739)" fill="#fff"/>
      <path id="패스_1245" data-name="패스 1245" d="M254.626,446.571a4.337,4.337,0,0,1-1.052,3.077,3.076,3.076,0,0,1-2.34,1.005,2.334,2.334,0,0,1-2.166-1.084h-.031v4.02h-1.7v-8.229q0-1.224-.063-2.512h1.491l.094,1.209h.031a3.02,3.02,0,0,1,4.83-.3A4.211,4.211,0,0,1,254.626,446.571Zm-1.727.063a3.147,3.147,0,0,0-.5-1.837,1.734,1.734,0,0,0-1.475-.753,1.763,1.763,0,0,0-1.139.415,1.929,1.929,0,0,0-.667,1.093,2.261,2.261,0,0,0-.078.517v1.272a2.039,2.039,0,0,0,.509,1.406,1.694,1.694,0,0,0,1.328.573,1.736,1.736,0,0,0,1.491-.738A3.254,3.254,0,0,0,252.9,446.633Z" transform="translate(-228.151 -439.739)" fill="#fff"/>
      <path id="패스_1246" data-name="패스 1246" d="M260.611,448.581a2.814,2.814,0,0,1-.94,2.2,4.168,4.168,0,0,1-2.883.927,5.05,5.05,0,0,1-2.744-.659l.393-1.414a4.639,4.639,0,0,0,2.451.677,2.322,2.322,0,0,0,1.494-.432,1.414,1.414,0,0,0,.533-1.157,1.474,1.474,0,0,0-.44-1.085,4.1,4.1,0,0,0-1.46-.817q-2.781-1.038-2.78-3.035a2.687,2.687,0,0,1,.974-2.139,3.844,3.844,0,0,1,2.592-.835,5.15,5.15,0,0,1,2.4.5l-.424,1.383a4.168,4.168,0,0,0-2.025-.487,2.049,2.049,0,0,0-1.4.44,1.259,1.259,0,0,0-.424.958,1.292,1.292,0,0,0,.487,1.035,5.491,5.491,0,0,0,1.54.818,5.214,5.214,0,0,1,2.009,1.287A2.694,2.694,0,0,1,260.611,448.581Z" transform="translate(-224.32 -440.807)" fill="#fff"/>
      <path id="패스_1247" data-name="패스 1247" d="M263.5,444.752h-1.87v3.705q0,1.414.99,1.414a3.053,3.053,0,0,0,.753-.078l.047,1.287a3.826,3.826,0,0,1-1.319.188,2.031,2.031,0,0,1-1.571-.612,3.006,3.006,0,0,1-.565-2.056v-3.848h-1.114V443.48h1.114v-1.4l1.665-.5v1.9h1.87Z" transform="translate(-221.6 -440.369)" fill="#fff"/>
      <path id="패스_1248" data-name="패스 1248" d="M269.9,446.6a4.191,4.191,0,0,1-1,2.89,3.593,3.593,0,0,1-2.8,1.162,3.412,3.412,0,0,1-2.677-1.115,4.06,4.06,0,0,1-1-2.81,4.146,4.146,0,0,1,1.027-2.905,3.56,3.56,0,0,1,2.772-1.131,3.488,3.488,0,0,1,2.7,1.115A4.024,4.024,0,0,1,269.9,446.6Zm-1.759.056a3.444,3.444,0,0,0-.456-1.812,1.674,1.674,0,0,0-1.522-.913,1.7,1.7,0,0,0-1.555.913,3.509,3.509,0,0,0-.456,1.843,3.442,3.442,0,0,0,.456,1.81,1.733,1.733,0,0,0,3.062-.016A3.446,3.446,0,0,0,268.144,446.658Z" transform="translate(-219.573 -439.739)" fill="#fff"/>
      <path id="패스_1249" data-name="패스 1249" d="M272.2,444.341a2.928,2.928,0,0,0-.536-.047,1.6,1.6,0,0,0-1.381.677,2.533,2.533,0,0,0-.424,1.507v4h-1.695l.016-5.229q0-1.32-.064-2.4h1.477l.063,1.46h.047a2.6,2.6,0,0,1,.847-1.207,2.053,2.053,0,0,1,1.226-.409,2.9,2.9,0,0,1,.424.03Z" transform="translate(-216.355 -439.739)" fill="#fff"/>
      <path id="패스_1250" data-name="패스 1250" d="M278.016,446.31a3.966,3.966,0,0,1-.063.769h-5.087a2.213,2.213,0,0,0,.738,1.727,2.521,2.521,0,0,0,1.663.534,5.63,5.63,0,0,0,2.059-.362l.265,1.178a6.365,6.365,0,0,1-2.557.471,3.7,3.7,0,0,1-2.789-1.045,3.861,3.861,0,0,1-1.013-2.8,4.378,4.378,0,0,1,.943-2.874,3.252,3.252,0,0,1,2.67-1.223,2.841,2.841,0,0,1,2.5,1.223A4.126,4.126,0,0,1,278.016,446.31Zm-1.618-.44a2.3,2.3,0,0,0-.329-1.3,1.48,1.48,0,0,0-1.352-.706,1.607,1.607,0,0,0-1.35.691,2.533,2.533,0,0,0-.5,1.319Z" transform="translate(-214.59 -439.745)" fill="#fff"/>
    </g>
    <g id="그룹_1510" data-name="그룹 1510" transform="translate(244.588 435.093)">
      <g id="그룹_1509" data-name="그룹 1509">
        <path id="패스_1251" data-name="패스 1251" d="M239.982,437.659a2.611,2.611,0,0,1-.841,2.114,3.348,3.348,0,0,1-2.215.655,10.378,10.378,0,0,1-1.218-.061v-5.115a8.924,8.924,0,0,1,1.435-.108,3.1,3.1,0,0,1,2.059.594A2.4,2.4,0,0,1,239.982,437.659Zm-.88.023a1.694,1.694,0,0,0-1.89-1.883,3.58,3.58,0,0,0-.67.053v3.889a4.4,4.4,0,0,0,.562.023,1.972,1.972,0,0,0,1.478-.532A2.135,2.135,0,0,0,239.1,437.683Z" transform="translate(-235.708 -434.912)" fill="#fff"/>
        <path id="패스_1252" data-name="패스 1252" d="M242.74,437.966a2.055,2.055,0,0,1-.493,1.419,1.762,1.762,0,0,1-1.374.572,1.671,1.671,0,0,1-1.316-.548,1.991,1.991,0,0,1-.49-1.381,2.036,2.036,0,0,1,.506-1.427,1.749,1.749,0,0,1,1.361-.554,1.709,1.709,0,0,1,1.327.547A1.976,1.976,0,0,1,242.74,437.966Zm-.865.028a1.7,1.7,0,0,0-.224-.891.821.821,0,0,0-.747-.448.834.834,0,0,0-.764.448,1.713,1.713,0,0,0-.224.905,1.689,1.689,0,0,0,.224.891.842.842,0,0,0,.756.448.831.831,0,0,0,.747-.457A1.677,1.677,0,0,0,241.875,437.994Z" transform="translate(-233.806 -434.402)" fill="#fff"/>
        <path id="패스_1253" data-name="패스 1253" d="M247.365,436.1l-1.173,3.749h-.764l-.486-1.629a12.107,12.107,0,0,1-.3-1.211h-.014a8.819,8.819,0,0,1-.3,1.211l-.517,1.629h-.772l-1.1-3.749h.857l.423,1.782q.155.632.255,1.2h.016c.061-.313.164-.713.309-1.195l.532-1.79H245l.509,1.751c.124.428.224.838.3,1.234h.023a11.838,11.838,0,0,1,.255-1.234l.456-1.751Z" transform="translate(-232.183 -434.374)" fill="#fff"/>
        <path id="패스_1254" data-name="패스 1254" d="M249.349,439.872h-.833v-2.147q0-.994-.756-.993a.75.75,0,0,0-.6.272.965.965,0,0,0-.232.644v2.224h-.833V437.2q0-.5-.031-1.073h.733l.039.586h.024a1.2,1.2,0,0,1,.431-.453,1.419,1.419,0,0,1,.756-.21,1.2,1.2,0,0,1,.872.338,1.651,1.651,0,0,1,.432,1.242Z" transform="translate(-229.846 -434.402)" fill="#fff"/>
        <path id="패스_1255" data-name="패스 1255" d="M249.929,440.467H249.1V435h.832Z" transform="translate(-228.128 -434.996)" fill="#fff"/>
        <path id="패스_1256" data-name="패스 1256" d="M254.09,437.966a2.048,2.048,0,0,1-.495,1.419,1.756,1.756,0,0,1-1.372.572,1.674,1.674,0,0,1-1.317-.548,2,2,0,0,1-.489-1.381,2.042,2.042,0,0,1,.5-1.427,1.753,1.753,0,0,1,1.361-.554,1.715,1.715,0,0,1,1.328.547A1.976,1.976,0,0,1,254.09,437.966Zm-.866.028A1.685,1.685,0,0,0,253,437.1a.82.82,0,0,0-.747-.448.834.834,0,0,0-.764.448,1.728,1.728,0,0,0-.224.905,1.7,1.7,0,0,0,.224.891.843.843,0,0,0,.756.448.829.829,0,0,0,.747-.457A1.663,1.663,0,0,0,253.224,437.994Z" transform="translate(-227.381 -434.402)" fill="#fff"/>
        <path id="패스_1257" data-name="패스 1257" d="M256.451,439.872H255.7l-.063-.432h-.023a1.284,1.284,0,0,1-1.095.517,1.129,1.129,0,0,1-.857-.34,1.063,1.063,0,0,1-.293-.763,1.164,1.164,0,0,1,.575-1.049,2.983,2.983,0,0,1,1.616-.356v-.069c0-.493-.258-.741-.778-.741a1.742,1.742,0,0,0-.977.277l-.169-.547a2.4,2.4,0,0,1,1.287-.324q1.468,0,1.471,1.55v1.381A5.821,5.821,0,0,0,256.451,439.872Zm-.866-1.289v-.578q-1.379-.024-1.38.755a.562.562,0,0,0,.161.44.575.575,0,0,0,.406.147.838.838,0,0,0,.511-.174.71.71,0,0,0,.288-.443A.67.67,0,0,0,255.585,438.583Z" transform="translate(-225.708 -434.402)" fill="#fff"/>
        <path id="패스_1258" data-name="패스 1258" d="M259.656,440.467h-.739l-.039-.6h-.023a1.247,1.247,0,0,1-1.2.686,1.411,1.411,0,0,1-1.126-.533,2.072,2.072,0,0,1-.446-1.38,2.172,2.172,0,0,1,.485-1.474,1.489,1.489,0,0,1,1.157-.525,1.123,1.123,0,0,1,1.056.509h.016V435h.835v4.46Q259.626,440,259.656,440.467Zm-.865-1.582v-.625a1.176,1.176,0,0,0-.023-.262.942.942,0,0,0-.3-.506.818.818,0,0,0-.558-.205.856.856,0,0,0-.733.371,1.587,1.587,0,0,0-.268.949,1.483,1.483,0,0,0,.257.9.855.855,0,0,0,.728.37.8.8,0,0,0,.659-.307A1.035,1.035,0,0,0,258.791,438.885Z" transform="translate(-224.176 -434.996)" fill="#fff"/>
        <path id="패스_1259" data-name="패스 1259" d="M264.242,437.966a2.056,2.056,0,0,1-.495,1.419,1.757,1.757,0,0,1-1.373.572,1.675,1.675,0,0,1-1.316-.548,2,2,0,0,1-.489-1.381,2.042,2.042,0,0,1,.5-1.427,1.752,1.752,0,0,1,1.363-.554,1.712,1.712,0,0,1,1.327.547A1.983,1.983,0,0,1,264.242,437.966Zm-.865.028a1.7,1.7,0,0,0-.224-.891.824.824,0,0,0-.749-.448.837.837,0,0,0-.764.448,1.728,1.728,0,0,0-.224.905,1.7,1.7,0,0,0,.224.891.843.843,0,0,0,.756.448.831.831,0,0,0,.749-.457A1.677,1.677,0,0,0,263.377,437.994Z" transform="translate(-221.633 -434.402)" fill="#fff"/>
        <path id="패스_1260" data-name="패스 1260" d="M266.963,439.872h-.833v-2.147c0-.662-.251-.993-.756-.993a.749.749,0,0,0-.6.272.965.965,0,0,0-.232.644v2.224h-.835V437.2q0-.5-.03-1.073h.731l.039.586h.023a1.219,1.219,0,0,1,.432-.453,1.415,1.415,0,0,1,.756-.21,1.2,1.2,0,0,1,.871.338,1.645,1.645,0,0,1,.432,1.242Z" transform="translate(-219.874 -434.402)" fill="#fff"/>
        <path id="패스_1261" data-name="패스 1261" d="M270.182,437.057h-.918v1.82c0,.464.163.7.485.7a1.448,1.448,0,0,0,.371-.039l.022.633a1.9,1.9,0,0,1-.648.092,1,1,0,0,1-.771-.3,1.468,1.468,0,0,1-.277-1.01v-1.89H267.9v-.625h.548v-.687l.818-.246v.933h.918Z" transform="translate(-217.483 -434.711)" fill="#fff"/>
        <path id="패스_1262" data-name="패스 1262" d="M273.352,440.467h-.835v-2.132q0-1.008-.755-1.009a.8.8,0,0,0-.8.586,1.025,1.025,0,0,0-.039.3v2.255H270.1V435h.832v2.26h.016a1.262,1.262,0,0,1,1.126-.615,1.166,1.166,0,0,1,.858.338,1.712,1.712,0,0,1,.424,1.258Z" transform="translate(-216.24 -434.996)" fill="#fff"/>
        <path id="패스_1263" data-name="패스 1263" d="M276.286,437.823a1.98,1.98,0,0,1-.031.378h-2.5a1.093,1.093,0,0,0,.362.849,1.241,1.241,0,0,0,.819.262,2.76,2.76,0,0,0,1.012-.177l.13.579a3.151,3.151,0,0,1-1.258.23,1.818,1.818,0,0,1-1.369-.512,1.89,1.89,0,0,1-.5-1.378,2.141,2.141,0,0,1,.464-1.411,1.594,1.594,0,0,1,1.311-.6,1.4,1.4,0,0,1,1.226.6A2.026,2.026,0,0,1,276.286,437.823Zm-.8-.216a1.126,1.126,0,0,0-.161-.641.727.727,0,0,0-.664-.348.79.79,0,0,0-.663.34,1.263,1.263,0,0,0-.247.648Z" transform="translate(-214.622 -434.404)" fill="#fff"/>
      </g>
    </g>
  </g>
</svg>
