<svg xmlns="http://www.w3.org/2000/svg" width="94.317" height="22.235" viewBox="0 0 94.317 22.235">
  <defs>
    <clipPath id="clip-path">
      <path id="패스_32" data-name="패스 32" d="M227.721,414.585l-3.359-3.36v-.239l3.36-3.359,4.056,2.3a1.235,1.235,0,0,1,0,2.349l-3.981,2.262-.077.043" transform="translate(-224.362 -407.627)" fill="#ffd300"/>
    </clipPath>
    <clipPath id="clip-path-2">
      <path id="패스_34" data-name="패스 34" d="M231.612,413.233l-3.436-3.436-10.138,10.138a1.325,1.325,0,0,0,1.691.05l11.883-6.753" transform="translate(-218.038 -409.797)" fill="#fd3845"/>
    </clipPath>
    <clipPath id="clip-path-3">
      <path id="패스_36" data-name="패스 36" d="M231.612,410.3l-11.883-6.754a1.327,1.327,0,0,0-1.691.05l10.138,10.14,3.436-3.436" transform="translate(-218.038 -403.271)" fill="#00f076"/>
    </clipPath>
  </defs>
  <g id="playstore_btn" transform="translate(-217.803 -403.076)">
    <path id="패스_16" data-name="패스 16" d="M238.678,405.876a2.2,2.2,0,0,1-.608,1.63,2.369,2.369,0,0,1-1.794.723,2.551,2.551,0,1,1,0-5.1,2.53,2.53,0,0,1,1,.2,2.026,2.026,0,0,1,.763.547l-.43.43a1.648,1.648,0,0,0-1.337-.579,1.887,1.887,0,0,0-1.9,1.949,1.872,1.872,0,0,0,.563,1.409,1.946,1.946,0,0,0,2.7,0,1.529,1.529,0,0,0,.409-.989h-1.773v-.587h2.368a2.116,2.116,0,0,1,.034.369" transform="translate(9.612 0.031)" fill="#fff"/>
    <path id="패스_17" data-name="패스 17" d="M238.709,405.907h-.082a2.121,2.121,0,0,1-.582,1.573h0v0a2.293,2.293,0,0,1-1.736.7,2.47,2.47,0,1,1,0-4.941,2.442,2.442,0,0,1,.97.2,1.925,1.925,0,0,1,.734.523l.063-.051-.058-.058-.43.43.058.058.063-.053a1.73,1.73,0,0,0-1.4-.608,2.032,2.032,0,1,0,1.422,3.495,1.61,1.61,0,0,0,.433-1.04l.008-.088h-1.781v-.425h2.286v-.08l-.082.014a1.973,1.973,0,0,1,.034.354h.164a2.136,2.136,0,0,0-.037-.383l-.011-.067h-2.517v.75h1.855v-.082l-.08-.006a1.46,1.46,0,0,1-.386.938,1.863,1.863,0,0,1-2.584,0,1.963,1.963,0,0,1,0-2.7,1.773,1.773,0,0,1,1.278-.519,1.57,1.57,0,0,1,1.275.55l.058.069.492-.492.053-.053-.048-.058a2.094,2.094,0,0,0-.8-.569,2.615,2.615,0,0,0-1.034-.21,2.633,2.633,0,1,0,0,5.267,2.455,2.455,0,0,0,1.853-.749l-.059-.056.058.058a2.291,2.291,0,0,0,.632-1.688h-.082" transform="translate(9.581)" fill="#fff"/>
    <path id="패스_18" data-name="패스 18" d="M240.234,403.795h-2.225v1.549h2.006v.586h-2.006v1.549h2.225v.6h-2.852v-4.885h2.852v.6" transform="translate(11.809 0.072)" fill="#fff"/>
    <path id="패스_19" data-name="패스 19" d="M240.264,403.825v-.081h-2.307v1.712h2.006v.423h-2.006v1.712h2.225v.437h-2.689v-4.722h2.689v.519h.081v0h.081v-.682h-3.015v5.048h3.015v-.763h-2.225v-1.386h2.006v-.749h-2.006v-1.386h2.225v-.081h-.081" transform="translate(11.779 0.041)" fill="#fff"/>
    <path id="패스_20" data-name="패스 20" d="M241.561,408.08h-.629v-4.285h-1.364v-.6h3.357v.6h-1.364v4.285" transform="translate(13.129 0.072)" fill="#fff"/>
    <path id="패스_21" data-name="패스 21" d="M241.592,408.11v-.081h-.547v-4.285h-1.364v-.437h3.195v.437h-1.365v4.366h.081v0h.081v-4.2h1.365v-.763h-3.52v.763h1.365v4.285h.791v-.081h-.081" transform="translate(13.098 0.041)" fill="#fff"/>
    <rect id="사각형_14" data-name="사각형 14" width="0.628" height="4.885" transform="translate(258.483 403.266)" fill="#fff"/>
    <path id="패스_22" data-name="패스 22" d="M243.208,408.11h.081v-4.8h.464v4.722h-.546v.081h0v.081h.709v-5.048h-.791v5.048h.081v-.081" transform="translate(15.275 0.041)" fill="#fff"/>
    <path id="패스_23" data-name="패스 23" d="M246.055,408.08h-.628v-4.285h-1.364v-.6h3.357v.6h-1.364v4.285" transform="translate(15.839 0.072)" fill="#fff"/>
    <path id="패스_24" data-name="패스 24" d="M246.086,408.11v-.081h-.546v-4.285h-1.364v-.437h3.194v.437H246v4.366h.081v0h.081v-4.2h1.364v-.763h-3.52v.763h1.364v4.285h.791v-.081h-.081" transform="translate(15.809 0.041)" fill="#fff"/>
    <path id="패스_25" data-name="패스 25" d="M251.738,407.489a2.535,2.535,0,0,1-3.581,0,2.639,2.639,0,0,1,0-3.623,2.531,2.531,0,0,1,3.578,0,2.631,2.631,0,0,1,0,3.62m-3.118-.409a1.881,1.881,0,0,0,2.655,0,2.08,2.08,0,0,0,0-2.8,1.881,1.881,0,0,0-2.655,0,2.085,2.085,0,0,0,0,2.8Z" transform="translate(17.875 0.031)" fill="#fff"/>
    <path id="패스_26" data-name="패스 26" d="M251.769,407.52l-.058-.056a2.456,2.456,0,0,1-3.464,0l0,0,0,0a2.556,2.556,0,0,1,0-3.509,2.444,2.444,0,0,1,3.461,0,2.548,2.548,0,0,1,0,3.506l.117.112a2.713,2.713,0,0,0,0-3.732,2.61,2.61,0,0,0-3.7,0,2.721,2.721,0,0,0,0,3.735l0,0,0,0a2.614,2.614,0,0,0,3.7,0l-.059-.056m-3.118-.409-.058.056a1.958,1.958,0,0,0,2.77,0,2.163,2.163,0,0,0,0-2.918,1.962,1.962,0,0,0-2.77,0,2.163,2.163,0,0,0,0,2.918l.117-.114a2,2,0,0,1,0-2.69h0a1.8,1.8,0,0,1,2.539,0,2,2,0,0,1,0,2.69,1.8,1.8,0,0,1-2.539,0Z" transform="translate(17.844)" fill="#fff"/>
    <path id="패스_27" data-name="패스 27" d="M251.119,408.08v-4.885h.765l2.374,3.8h.027l-.027-.941v-2.859h.628v4.885h-.655l-2.483-3.985h-.028l.028.942v3.043h-.628" transform="translate(20.095 0.072)" fill="#fff"/>
    <path id="패스_28" data-name="패스 28" d="M251.149,408.11h.081v-4.8h.637l2.374,3.8h.156l-.029-1.024v-2.776h.465v4.722h-.528l-2.484-3.985h-.156l.029,1.024v2.96h-.546v.081h0v.081h.709v-3.125l-.028-.942-.081,0v.081h.028v-.081l-.069.043,2.508,4.023H255v-5.048h-.791v2.942l.027.942.081,0v-.081h-.027v.081l.069-.042-2.4-3.839h-.891v5.048h.081v-.081" transform="translate(20.065 0.041)" fill="#fff"/>
    <path id="패스_29" data-name="패스 29" d="M255.64,412.127a3.463,3.463,0,1,0,3.476,3.463,3.413,3.413,0,0,0-3.476-3.463m0,5.561a2.1,2.1,0,1,1,1.954-2.1A2,2,0,0,1,255.64,417.688Zm-7.583-5.561a3.463,3.463,0,1,0,3.476,3.463A3.412,3.412,0,0,0,248.057,412.127Zm0,5.561a2.1,2.1,0,1,1,1.954-2.1A2,2,0,0,1,248.057,417.688Zm-9.019-4.5v1.469h3.514a3.068,3.068,0,0,1-.8,1.85,3.6,3.6,0,0,1-2.716,1.074,3.908,3.908,0,0,1,0-7.815,3.75,3.75,0,0,1,2.65,1.048l1.036-1.036a5.121,5.121,0,0,0-3.686-1.483,5.378,5.378,0,1,0,0,10.756,4.915,4.915,0,0,0,3.751-1.509,4.855,4.855,0,0,0,1.271-3.437,4.756,4.756,0,0,0-.079-.917Zm36.887,1.141a3.216,3.216,0,0,0-2.964-2.2,3.291,3.291,0,0,0-3.266,3.463,3.388,3.388,0,0,0,3.436,3.463,3.444,3.444,0,0,0,2.887-1.534l-1.182-.787a1.977,1.977,0,0,1-1.706.957,1.763,1.763,0,0,1-1.678-1.048l4.63-1.916Zm-4.721,1.154a1.9,1.9,0,0,1,1.81-2.02,1.341,1.341,0,0,1,1.286.734Zm-3.764,3.357h1.521V408.664H267.44Zm-2.493-5.941H264.9a2.4,2.4,0,0,0-1.823-.774,3.466,3.466,0,0,0,0,6.926,2.361,2.361,0,0,0,1.823-.787h.051v.5c0,1.326-.707,2.033-1.848,2.033a1.919,1.919,0,0,1-1.746-1.233l-1.324.551a3.3,3.3,0,0,0,3.07,2.046c1.783,0,3.291-1.05,3.291-3.607v-6.217h-1.443Zm-1.744,4.787a2.106,2.106,0,0,1,0-4.2,2.115,2.115,0,0,1,0,4.2Zm19.851-9.024h-3.641v10.179h1.518v-3.856h2.123a3.166,3.166,0,1,0,0-6.323Zm.038,4.906H280.93v-3.488h2.161a1.745,1.745,0,1,1,0,3.488Zm9.39-1.461a2.852,2.852,0,0,0-2.711,1.558l1.348.563a1.442,1.442,0,0,1,1.388-.747,1.462,1.462,0,0,1,1.6,1.31v.1a3.351,3.351,0,0,0-1.584-.393c-1.453,0-2.934.8-2.934,2.291a2.352,2.352,0,0,0,2.528,2.24,2.144,2.144,0,0,0,1.938-1h.051v.786h1.467v-3.9A2.791,2.791,0,0,0,292.481,412.109Zm-.184,5.577c-.5,0-1.191-.248-1.191-.864,0-.785.864-1.087,1.61-1.087a2.714,2.714,0,0,1,1.388.34A1.84,1.84,0,0,1,292.3,417.687Zm8.615-5.356-1.741,4.414h-.051l-1.808-4.414h-1.637l2.711,6.167-1.545,3.431h1.586l4.176-9.6Zm-13.683,6.512h1.52V408.664h-1.52Z" transform="translate(9.518 3.149)" fill="#fff"/>
    <path id="패스_30" data-name="패스 30" d="M218.18,403.494a1.629,1.629,0,0,0-.377,1.143v17.992a1.629,1.629,0,0,0,.377,1.143l.061.058,10.078-10.078v-.239l-10.078-10.078-.061.058" transform="translate(0 0.217)" fill="#00c6ff"/>
    <g id="그룹_9" data-name="그룹 9" transform="translate(228.318 410.372)">
      <path id="패스_31" data-name="패스 31" d="M227.721,414.585l-3.359-3.36v-.239l3.36-3.359,4.056,2.3a1.235,1.235,0,0,1,0,2.349l-3.981,2.262-.077.043" transform="translate(-224.362 -407.627)" fill="#ffd300"/>
      <g id="그룹_8" data-name="그룹 8" clip-path="url(#clip-path)">
        <rect id="사각형_15" data-name="사각형 15" width="8.553" height="6.959" transform="translate(0 -0.001)" fill="#ffd300"/>
      </g>
    </g>
    <g id="그룹_11" data-name="그룹 11" transform="translate(218.18 413.851)">
      <path id="패스_33" data-name="패스 33" d="M231.612,413.233l-3.436-3.436-10.138,10.138a1.325,1.325,0,0,0,1.691.05l11.883-6.753" transform="translate(-218.038 -409.797)" fill="#fd3845"/>
      <g id="그룹_10" data-name="그룹 10" clip-path="url(#clip-path-2)">
        <rect id="사각형_16" data-name="사각형 16" width="17.083" height="17.083" transform="translate(-5.292 5.291) rotate(-45)" fill="#fd3845"/>
      </g>
    </g>
    <g id="그룹_13" data-name="그룹 13" transform="translate(218.18 403.389)">
      <path id="패스_35" data-name="패스 35" d="M231.612,410.3l-11.883-6.754a1.327,1.327,0,0,0-1.691.05l10.138,10.14,3.436-3.436" transform="translate(-218.038 -403.271)" fill="#00f076"/>
      <g id="그룹_12" data-name="그룹 12" clip-path="url(#clip-path-3)">
        <rect id="사각형_17" data-name="사각형 17" width="17.083" height="17.083" transform="translate(-5.292 5.17) rotate(-45)" fill="#00f076"/>
      </g>
    </g>
  </g>
</svg>
